<svg width="78" height="68" viewBox="0 0 78 68" fill="none" xmlns="http://www.w3.org/2000/svg">
<mask id="path-1-outside-1_44_84" maskUnits="userSpaceOnUse" x="0" y="0" width="78" height="68" fill="black">
<rect fill="white" width="78" height="68"/>
<path d="M73.2953 49.7937C73.2953 52.4905 73.3441 55.2035 73.2791 57.9003C73.1654 62.1242 71.4273 63.8624 67.204 63.7974C64.4589 63.7487 62.0549 64.2523 59.5209 65.6007C55.7037 67.6314 51.5128 67.404 47.7119 65.0809C46.2337 64.1874 44.7881 63.7812 43.0988 63.7974C36.6988 63.8462 30.2989 63.8299 23.899 63.7974C22.632 63.7974 21.6087 64.0899 20.5854 64.9184C17.2717 67.5502 12.8697 67.5664 9.58852 64.8697C7.98042 63.5538 6.25862 63.8949 4.52057 63.8137C3.10739 63.7487 1.5805 63.9762 1.2069 61.9779C0.654621 58.9887 1.17445 57.3317 3.17239 56.6006C5.43023 55.7721 7.23323 54.5699 8.67889 52.5392C10.5469 49.9074 13.5032 49.3713 16.5245 49.7937C18.3113 50.0536 18.7661 49.485 18.7336 47.8117C18.6686 43.3279 18.7011 38.8604 18.7173 34.3766C18.7336 31.2737 19.562 29.9578 22.4371 28.9181C23.6391 28.4795 24.0289 27.5534 24.4025 26.5787C25.2472 24.3855 26.6604 23.3783 29.1456 23.622C31.5497 23.8494 33.9862 23.8007 36.3902 23.622C38.4856 23.4758 39.6226 24.4018 40.1424 26.2538C40.5648 27.7322 41.2795 28.6744 42.8714 29.1618C44.7719 29.7466 45.5353 31.3712 45.6003 33.3206C45.6327 34.3604 45.454 35.6763 47.0459 35.66C48.5565 35.6438 50.3921 36.4073 51.253 34.2142C53.4459 28.6581 55.6874 23.1346 57.929 17.5949C59.6671 13.306 61.4051 9.03341 63.1432 4.76081C63.3056 4.37091 63.4356 3.94853 63.6305 3.57488C65.2386 0.553192 74.4973 0.0333278 76.4628 2.86007C77.9085 4.90702 76.8851 7.66878 74.4648 8.26987C74.1887 8.33485 73.8801 8.43234 73.6202 8.3836C70.1603 7.71753 68.8284 9.60202 67.7401 12.5912C65.1249 19.723 62.1848 26.7412 59.3097 33.7755C58.7087 35.2539 58.9361 35.8062 60.6254 35.7412C63.0457 35.6438 65.466 35.66 67.87 35.7412C71.3786 35.8387 73.0842 37.5445 73.2304 41.0373C73.2953 42.5319 73.2466 44.0265 73.2466 45.5211C73.3116 46.9507 73.3116 48.3803 73.2953 49.7937C73.3116 49.7937 73.3116 49.7937 73.2953 49.7937ZM57.458 38.2268C54.193 38.2268 50.9281 38.2918 47.6632 38.1943C45.9251 38.1456 44.512 38.6005 43.18 39.7214C38.6318 43.5716 34.0187 47.3569 29.438 51.1746C27.9111 52.458 26.433 53.8064 24.1914 53.5952C23.233 53.514 22.7457 53.8389 23.1193 55.0086C23.6066 56.4869 23.9153 58.0303 23.5742 59.6223C23.3467 60.6945 23.834 61.2631 24.9223 61.2631C30.6075 61.2794 36.2928 61.2794 41.9617 61.2631C42.449 61.2631 42.9526 61.2306 43.0013 60.4996C43.0988 58.7288 41.2145 56.6494 39.3628 56.6169C37.2349 56.5681 35.107 56.5844 32.9791 56.5357C32.3944 56.5194 31.7933 56.292 31.7446 55.5934C31.6796 54.7486 32.3294 54.505 33.0116 54.4725C34.3598 54.4237 35.708 54.4237 37.0562 54.4237C40.8409 54.4237 40.8247 54.4075 41.9455 50.7522C43.6835 45.05 47.7931 42.2558 53.4945 41.5084C57.7341 40.9561 62.997 43.9128 65.2873 48.1691C67.2203 51.7757 67.204 55.4959 65.7584 59.2812C65.5147 59.9147 64.6375 60.6783 65.8233 61.2144C68.3573 62.3678 71.0212 60.8408 71.07 58.1602C71.1349 52.5555 71.1349 46.9345 71.07 41.3298C71.0537 39.0554 70.2091 38.3081 67.9025 38.2756C64.4264 38.2106 60.9503 38.2431 57.458 38.2268ZM33.6776 44.189C37.0562 42.8568 37.8196 40.5499 37.5273 37.5607C37.4298 36.521 37.1537 34.8802 38.6968 34.799C40.0775 34.7178 39.5414 36.2936 39.7851 37.1708C39.98 37.8369 39.7689 38.9579 41.1008 38.4868C42.8876 37.8369 43.781 35.7575 43.4398 33.2719C43.1637 31.2574 41.6856 31.0463 40.1424 31.0463C34.8796 31.0138 29.6167 31.0138 24.3538 31.0463C21.8848 31.0625 21.3163 31.6636 21.3163 34.0842C21.2838 38.9254 21.3326 43.7504 21.3001 48.5915C21.2838 50.0374 21.4787 51.0771 23.3467 51.0446C25.1497 50.9959 25.1822 49.9074 25.1822 48.6078C25.166 44.6926 25.166 40.7774 25.1985 36.8784C25.1985 35.9687 25.1985 34.7665 26.433 34.7503C27.7 34.734 27.6512 35.9524 27.6675 36.8459C27.7 39.9813 27.6512 43.1005 27.7162 46.2359C27.7325 47.0969 27.2452 48.5266 28.2035 48.7053C29.4056 48.9327 30.3314 47.7143 30.8674 46.6258C31.1923 45.976 31.1436 45.0987 31.1598 44.3352C31.2085 41.7034 31.1761 39.0716 31.2573 36.4398C31.2898 35.595 31.5659 34.5878 32.6705 34.6528C33.6938 34.7178 33.6776 35.7087 33.6776 36.4885C33.6938 38.9904 33.6776 41.476 33.6776 44.189ZM43.8947 54.1476C43.5211 60.0447 48.719 64.6422 54.1281 64.6747C59.9107 64.691 64.4101 60.0934 64.4101 54.18C64.4101 48.3641 59.9757 43.8478 54.258 43.8316C48.3616 43.7991 43.9109 48.2341 43.8947 54.1476ZM8.90632 58.1765C8.87384 61.8155 11.5702 64.6422 15.0788 64.6585C18.425 64.6585 21.4787 61.653 21.5762 58.2414C21.6737 55.0086 18.4899 51.9381 15.0626 51.9381C11.5865 51.9544 8.93881 54.6512 8.90632 58.1765ZM70.404 3.29871C66.3269 3.3312 66.3269 3.33119 64.8325 6.97021C63.6142 9.91067 62.396 12.8511 61.194 15.8078C58.7737 21.7862 56.3696 27.7809 53.9981 33.7755C53.7707 34.3604 53.2022 35.1889 54.2093 35.5788C54.9889 35.8874 55.7849 35.6113 56.2722 34.8802C56.5808 34.4091 56.7595 33.873 56.9707 33.3369C60.0244 25.7827 63.2081 18.2772 66.0507 10.6417C67.2528 7.44135 68.7796 5.45937 72.4831 6.20667C72.743 6.2554 73.0517 6.19042 73.3278 6.15793C74.0913 6.04421 74.741 5.70306 74.741 4.84204C74.7248 4.01351 74.1075 3.55863 73.3603 3.44491C72.4019 3.33119 71.3948 3.34744 70.404 3.29871ZM32.573 28.8368C33.9212 28.8368 35.2532 28.8856 36.6014 28.8206C37.2186 28.7881 38.2582 29.1942 38.307 28.1708C38.3557 27.3585 37.8359 26.3025 37.0075 26.1563C33.9375 25.6527 30.8349 25.7177 27.7649 26.1238C26.8715 26.2376 26.4492 27.326 26.4655 28.122C26.4817 29.1618 27.5051 28.8043 28.1386 28.8206C29.6005 28.8693 31.0949 28.8368 32.573 28.8368Z"/>
</mask>
<path d="M73.2953 49.7937C73.2953 52.4905 73.3441 55.2035 73.2791 57.9003C73.1654 62.1242 71.4273 63.8624 67.204 63.7974C64.4589 63.7487 62.0549 64.2523 59.5209 65.6007C55.7037 67.6314 51.5128 67.404 47.7119 65.0809C46.2337 64.1874 44.7881 63.7812 43.0988 63.7974C36.6988 63.8462 30.2989 63.8299 23.899 63.7974C22.632 63.7974 21.6087 64.0899 20.5854 64.9184C17.2717 67.5502 12.8697 67.5664 9.58852 64.8697C7.98042 63.5538 6.25862 63.8949 4.52057 63.8137C3.10739 63.7487 1.5805 63.9762 1.2069 61.9779C0.654621 58.9887 1.17445 57.3317 3.17239 56.6006C5.43023 55.7721 7.23323 54.5699 8.67889 52.5392C10.5469 49.9074 13.5032 49.3713 16.5245 49.7937C18.3113 50.0536 18.7661 49.485 18.7336 47.8117C18.6686 43.3279 18.7011 38.8604 18.7173 34.3766C18.7336 31.2737 19.562 29.9578 22.4371 28.9181C23.6391 28.4795 24.0289 27.5534 24.4025 26.5787C25.2472 24.3855 26.6604 23.3783 29.1456 23.622C31.5497 23.8494 33.9862 23.8007 36.3902 23.622C38.4856 23.4758 39.6226 24.4018 40.1424 26.2538C40.5648 27.7322 41.2795 28.6744 42.8714 29.1618C44.7719 29.7466 45.5353 31.3712 45.6003 33.3206C45.6327 34.3604 45.454 35.6763 47.0459 35.66C48.5565 35.6438 50.3921 36.4073 51.253 34.2142C53.4459 28.6581 55.6874 23.1346 57.929 17.5949C59.6671 13.306 61.4051 9.03341 63.1432 4.76081C63.3056 4.37091 63.4356 3.94853 63.6305 3.57488C65.2386 0.553192 74.4973 0.0333278 76.4628 2.86007C77.9085 4.90702 76.8851 7.66878 74.4648 8.26987C74.1887 8.33485 73.8801 8.43234 73.6202 8.3836C70.1603 7.71753 68.8284 9.60202 67.7401 12.5912C65.1249 19.723 62.1848 26.7412 59.3097 33.7755C58.7087 35.2539 58.9361 35.8062 60.6254 35.7412C63.0457 35.6438 65.466 35.66 67.87 35.7412C71.3786 35.8387 73.0842 37.5445 73.2304 41.0373C73.2953 42.5319 73.2466 44.0265 73.2466 45.5211C73.3116 46.9507 73.3116 48.3803 73.2953 49.7937C73.3116 49.7937 73.3116 49.7937 73.2953 49.7937ZM57.458 38.2268C54.193 38.2268 50.9281 38.2918 47.6632 38.1943C45.9251 38.1456 44.512 38.6005 43.18 39.7214C38.6318 43.5716 34.0187 47.3569 29.438 51.1746C27.9111 52.458 26.433 53.8064 24.1914 53.5952C23.233 53.514 22.7457 53.8389 23.1193 55.0086C23.6066 56.4869 23.9153 58.0303 23.5742 59.6223C23.3467 60.6945 23.834 61.2631 24.9223 61.2631C30.6075 61.2794 36.2928 61.2794 41.9617 61.2631C42.449 61.2631 42.9526 61.2306 43.0013 60.4996C43.0988 58.7288 41.2145 56.6494 39.3628 56.6169C37.2349 56.5681 35.107 56.5844 32.9791 56.5357C32.3944 56.5194 31.7933 56.292 31.7446 55.5934C31.6796 54.7486 32.3294 54.505 33.0116 54.4725C34.3598 54.4237 35.708 54.4237 37.0562 54.4237C40.8409 54.4237 40.8247 54.4075 41.9455 50.7522C43.6835 45.05 47.7931 42.2558 53.4945 41.5084C57.7341 40.9561 62.997 43.9128 65.2873 48.1691C67.2203 51.7757 67.204 55.4959 65.7584 59.2812C65.5147 59.9147 64.6375 60.6783 65.8233 61.2144C68.3573 62.3678 71.0212 60.8408 71.07 58.1602C71.1349 52.5555 71.1349 46.9345 71.07 41.3298C71.0537 39.0554 70.2091 38.3081 67.9025 38.2756C64.4264 38.2106 60.9503 38.2431 57.458 38.2268ZM33.6776 44.189C37.0562 42.8568 37.8196 40.5499 37.5273 37.5607C37.4298 36.521 37.1537 34.8802 38.6968 34.799C40.0775 34.7178 39.5414 36.2936 39.7851 37.1708C39.98 37.8369 39.7689 38.9579 41.1008 38.4868C42.8876 37.8369 43.781 35.7575 43.4398 33.2719C43.1637 31.2574 41.6856 31.0463 40.1424 31.0463C34.8796 31.0138 29.6167 31.0138 24.3538 31.0463C21.8848 31.0625 21.3163 31.6636 21.3163 34.0842C21.2838 38.9254 21.3326 43.7504 21.3001 48.5915C21.2838 50.0374 21.4787 51.0771 23.3467 51.0446C25.1497 50.9959 25.1822 49.9074 25.1822 48.6078C25.166 44.6926 25.166 40.7774 25.1985 36.8784C25.1985 35.9687 25.1985 34.7665 26.433 34.7503C27.7 34.734 27.6512 35.9524 27.6675 36.8459C27.7 39.9813 27.6512 43.1005 27.7162 46.2359C27.7325 47.0969 27.2452 48.5266 28.2035 48.7053C29.4056 48.9327 30.3314 47.7143 30.8674 46.6258C31.1923 45.976 31.1436 45.0987 31.1598 44.3352C31.2085 41.7034 31.1761 39.0716 31.2573 36.4398C31.2898 35.595 31.5659 34.5878 32.6705 34.6528C33.6938 34.7178 33.6776 35.7087 33.6776 36.4885C33.6938 38.9904 33.6776 41.476 33.6776 44.189ZM43.8947 54.1476C43.5211 60.0447 48.719 64.6422 54.1281 64.6747C59.9107 64.691 64.4101 60.0934 64.4101 54.18C64.4101 48.3641 59.9757 43.8478 54.258 43.8316C48.3616 43.7991 43.9109 48.2341 43.8947 54.1476ZM8.90632 58.1765C8.87384 61.8155 11.5702 64.6422 15.0788 64.6585C18.425 64.6585 21.4787 61.653 21.5762 58.2414C21.6737 55.0086 18.4899 51.9381 15.0626 51.9381C11.5865 51.9544 8.93881 54.6512 8.90632 58.1765ZM70.404 3.29871C66.3269 3.3312 66.3269 3.33119 64.8325 6.97021C63.6142 9.91067 62.396 12.8511 61.194 15.8078C58.7737 21.7862 56.3696 27.7809 53.9981 33.7755C53.7707 34.3604 53.2022 35.1889 54.2093 35.5788C54.9889 35.8874 55.7849 35.6113 56.2722 34.8802C56.5808 34.4091 56.7595 33.873 56.9707 33.3369C60.0244 25.7827 63.2081 18.2772 66.0507 10.6417C67.2528 7.44135 68.7796 5.45937 72.4831 6.20667C72.743 6.2554 73.0517 6.19042 73.3278 6.15793C74.0913 6.04421 74.741 5.70306 74.741 4.84204C74.7248 4.01351 74.1075 3.55863 73.3603 3.44491C72.4019 3.33119 71.3948 3.34744 70.404 3.29871ZM32.573 28.8368C33.9212 28.8368 35.2532 28.8856 36.6014 28.8206C37.2186 28.7881 38.2582 29.1942 38.307 28.1708C38.3557 27.3585 37.8359 26.3025 37.0075 26.1563C33.9375 25.6527 30.8349 25.7177 27.7649 26.1238C26.8715 26.2376 26.4492 27.326 26.4655 28.122C26.4817 29.1618 27.5051 28.8043 28.1386 28.8206C29.6005 28.8693 31.0949 28.8368 32.573 28.8368Z" fill="#00B3DF"/>
<path d="M73.2953 49.7937L72.7953 49.788L72.7895 50.2937H73.2953V49.7937ZM73.2791 57.9003L73.7789 57.9137L73.779 57.9123L73.2791 57.9003ZM67.204 63.7974L67.1951 64.2974L67.1963 64.2974L67.204 63.7974ZM59.5209 65.6007L59.7557 66.0421L59.7558 66.0421L59.5209 65.6007ZM47.7119 65.0809L47.9726 64.6542L47.9705 64.653L47.7119 65.0809ZM43.0988 63.7974L43.1026 64.2974L43.1036 64.2974L43.0988 63.7974ZM23.899 63.7974L23.9015 63.2974H23.899V63.7974ZM20.5854 64.9184L20.8963 65.31L20.9 65.307L20.5854 64.9184ZM9.58852 64.8697L9.906 64.4834L9.90517 64.4827L9.58852 64.8697ZM4.52057 63.8137L4.54392 63.3143L4.54354 63.3142L4.52057 63.8137ZM1.2069 61.9779L0.715218 62.0688L0.715415 62.0698L1.2069 61.9779ZM3.17239 56.6006L3.3442 57.0702L3.34464 57.07L3.17239 56.6006ZM8.67889 52.5392L9.08622 52.8292L9.08663 52.8286L8.67889 52.5392ZM16.5245 49.7937L16.5965 49.2989L16.5937 49.2985L16.5245 49.7937ZM18.7336 47.8117L18.2336 47.819L18.2337 47.8214L18.7336 47.8117ZM18.7173 34.3766L18.2173 34.374L18.2173 34.3748L18.7173 34.3766ZM22.4371 28.9181L22.6071 29.3883L22.6085 29.3878L22.4371 28.9181ZM24.4025 26.5787L23.9359 26.399L23.9357 26.3998L24.4025 26.5787ZM29.1456 23.622L29.0968 24.1196L29.0985 24.1198L29.1456 23.622ZM36.3902 23.622L36.3554 23.1232L36.3531 23.1234L36.3902 23.622ZM40.1424 26.2538L39.661 26.3889L39.6617 26.3911L40.1424 26.2538ZM42.8714 29.1618L43.0184 28.6839L43.0177 28.6837L42.8714 29.1618ZM45.6003 33.3206L46.1 33.305L46.1 33.304L45.6003 33.3206ZM47.0459 35.66L47.051 36.16H47.0513L47.0459 35.66ZM51.253 34.2142L50.7879 34.0306L50.7876 34.0315L51.253 34.2142ZM57.929 17.5949L57.4656 17.4071L57.4655 17.4073L57.929 17.5949ZM63.1432 4.76081L62.6816 4.56851L62.68 4.5724L63.1432 4.76081ZM63.6305 3.57488L63.1891 3.33997L63.1872 3.34362L63.6305 3.57488ZM76.4628 2.86007L76.0523 3.14551L76.0544 3.14851L76.4628 2.86007ZM74.4648 8.26987L74.5794 8.75661L74.5854 8.75513L74.4648 8.26987ZM73.6202 8.3836L73.5257 8.87459L73.528 8.87503L73.6202 8.3836ZM67.7401 12.5912L68.2095 12.7634L68.2099 12.7623L67.7401 12.5912ZM59.3097 33.7755L58.8469 33.5863L58.8465 33.5872L59.3097 33.7755ZM60.6254 35.7412L60.6447 36.2409L60.6456 36.2408L60.6254 35.7412ZM67.87 35.7412L67.8531 36.241L67.8561 36.2411L67.87 35.7412ZM73.2304 41.0373L72.7308 41.0582L72.7308 41.059L73.2304 41.0373ZM73.2466 45.5211H72.7466V45.5325L72.7471 45.5438L73.2466 45.5211ZM57.458 38.2268L57.4603 37.7268H57.458V38.2268ZM47.6632 38.1943L47.6781 37.6945L47.6772 37.6945L47.6632 38.1943ZM43.18 39.7214L42.858 39.3389L42.8569 39.3398L43.18 39.7214ZM29.438 51.1746L29.1179 50.7905L29.1163 50.7919L29.438 51.1746ZM24.1914 53.5952L24.2383 53.0974L24.2336 53.097L24.1914 53.5952ZM23.1193 55.0086L22.643 55.1607L22.6445 55.1651L23.1193 55.0086ZM23.5742 59.6223L23.0852 59.5176L23.085 59.5186L23.5742 59.6223ZM24.9223 61.2631L24.9238 60.7631H24.9223V61.2631ZM41.9617 61.2631V60.7631L41.9603 60.7631L41.9617 61.2631ZM43.0013 60.4996L43.5002 60.5328L43.5005 60.5271L43.0013 60.4996ZM39.3628 56.6169L39.3513 57.1168L39.354 57.1168L39.3628 56.6169ZM32.9791 56.5357L32.9652 57.0355L32.9677 57.0355L32.9791 56.5357ZM31.7446 55.5934L32.2434 55.5586L32.2431 55.5551L31.7446 55.5934ZM33.0116 54.4725L32.9935 53.9728L32.9878 53.973L33.0116 54.4725ZM41.9455 50.7522L42.4235 50.8988L42.4238 50.898L41.9455 50.7522ZM53.4945 41.5084L53.4299 41.0126L53.4296 41.0127L53.4945 41.5084ZM65.2873 48.1691L65.728 47.933L65.7276 47.9322L65.2873 48.1691ZM65.7584 59.2812L66.2251 59.4606L66.2255 59.4596L65.7584 59.2812ZM65.8233 61.2144L66.0305 60.7593L66.0293 60.7588L65.8233 61.2144ZM71.07 58.1602L71.5699 58.1693L71.5699 58.166L71.07 58.1602ZM71.07 41.3298L70.57 41.3333L70.57 41.3355L71.07 41.3298ZM67.9025 38.2756L67.8932 38.7755L67.8955 38.7755L67.9025 38.2756ZM33.6776 44.189H33.1776V44.9236L33.861 44.6541L33.6776 44.189ZM37.5273 37.5607L37.0294 37.6074L37.0296 37.6094L37.5273 37.5607ZM38.6968 34.799L38.7231 35.2983L38.7262 35.2981L38.6968 34.799ZM39.7851 37.1708L39.3033 37.3047L39.3052 37.3113L39.7851 37.1708ZM41.1008 38.4868L41.2676 38.9582L41.2717 38.9566L41.1008 38.4868ZM43.4398 33.2719L42.9445 33.3398L42.9445 33.3399L43.4398 33.2719ZM40.1424 31.0463L40.1393 31.5463H40.1424V31.0463ZM24.3538 31.0463L24.3507 30.5463L24.3505 30.5463L24.3538 31.0463ZM21.3163 34.0842L21.8163 34.0875V34.0842H21.3163ZM21.3001 48.5915L21.8001 48.5972L21.8001 48.5949L21.3001 48.5915ZM23.3467 51.0446L23.3554 51.5446L23.3602 51.5444L23.3467 51.0446ZM25.1822 48.6078H25.6822L25.6822 48.6057L25.1822 48.6078ZM25.1985 36.8784L25.6985 36.8826V36.8784H25.1985ZM26.433 34.7503L26.4266 34.2503L26.4264 34.2503L26.433 34.7503ZM27.6675 36.8459L28.1675 36.8408L28.1674 36.8368L27.6675 36.8459ZM27.7162 46.2359L28.2161 46.2265L28.2161 46.2256L27.7162 46.2359ZM28.2035 48.7053L28.2965 48.214L28.2952 48.2137L28.2035 48.7053ZM30.8674 46.6258L30.4202 46.4022L30.4189 46.4049L30.8674 46.6258ZM31.1598 44.3352L31.6597 44.3458L31.6597 44.3444L31.1598 44.3352ZM31.2573 36.4398L30.7576 36.4206L30.7575 36.4244L31.2573 36.4398ZM32.6705 34.6528L32.7022 34.1538L32.6999 34.1537L32.6705 34.6528ZM33.6776 36.4885H33.1776L33.1776 36.4918L33.6776 36.4885ZM43.8947 54.1476L44.3937 54.1792L44.3946 54.1641L44.3947 54.1489L43.8947 54.1476ZM54.1281 64.6747L54.1251 65.1747H54.1267L54.1281 64.6747ZM54.258 43.8316L54.2552 44.3316L54.2566 44.3316L54.258 43.8316ZM8.90632 58.1765L8.40634 58.1719L8.40634 58.172L8.90632 58.1765ZM15.0788 64.6585L15.0765 65.1585H15.0788V64.6585ZM21.5762 58.2414L21.0764 58.2264L21.0764 58.2272L21.5762 58.2414ZM15.0626 51.9381V51.4381L15.0602 51.4382L15.0626 51.9381ZM70.404 3.29871L70.4285 2.79931L70.4143 2.79861L70.4 2.79872L70.404 3.29871ZM64.8325 6.97021L65.2944 7.16159L65.295 7.16015L64.8325 6.97021ZM61.194 15.8078L60.7308 15.6195L60.7305 15.6202L61.194 15.8078ZM53.9981 33.7755L53.5331 33.5916L53.5321 33.5943L53.9981 33.7755ZM54.2093 35.5788L54.3933 35.1139L54.3898 35.1125L54.2093 35.5788ZM56.2722 34.8802L56.6883 35.1576L56.6905 35.1542L56.2722 34.8802ZM56.9707 33.3369L56.5071 33.1495L56.5055 33.1536L56.9707 33.3369ZM66.0507 10.6417L65.5827 10.4659L65.5822 10.4673L66.0507 10.6417ZM72.4831 6.20667L72.3842 6.69683L72.391 6.6981L72.4831 6.20667ZM73.3278 6.15793L73.3863 6.65451L73.3939 6.65361L73.4015 6.65247L73.3278 6.15793ZM74.741 4.84204H75.2411L75.2409 4.83224L74.741 4.84204ZM73.3603 3.44491L73.4355 2.9506L73.4274 2.94937L73.4192 2.9484L73.3603 3.44491ZM36.6014 28.8206L36.6254 29.32L36.6277 29.3199L36.6014 28.8206ZM38.307 28.1708L37.8078 28.1408L37.8075 28.147L38.307 28.1708ZM37.0075 26.1563L37.0944 25.6639L37.0884 25.6629L37.0075 26.1563ZM27.7649 26.1238L27.8281 26.6198L27.8305 26.6195L27.7649 26.1238ZM26.4655 28.122L26.9654 28.1142L26.9654 28.1118L26.4655 28.122ZM28.1386 28.8206L28.1552 28.3209L28.1514 28.3208L28.1386 28.8206ZM72.7953 49.7937C72.7953 52.5028 72.844 55.1993 72.7792 57.8883L73.779 57.9123C73.8441 55.2078 73.7953 52.4782 73.7953 49.7937H72.7953ZM72.7793 57.8868C72.7238 59.9483 72.2724 61.2794 71.4332 62.0996C70.5961 62.9176 69.2684 63.3292 67.2117 63.2975L67.1963 64.2974C69.363 64.3307 71.0159 63.9056 72.1321 62.8148C73.2462 61.7261 73.7207 60.0762 73.7789 57.9137L72.7793 57.8868ZM67.2129 63.2975C64.3904 63.2474 61.9014 63.7676 59.286 65.1593L59.7558 66.0421C62.2084 64.737 64.5273 64.25 67.1951 64.2974L67.2129 63.2975ZM59.2861 65.1593C55.6363 67.1009 51.6338 66.8919 47.9726 64.6542L47.4511 65.5075C51.3919 67.916 55.7711 68.1619 59.7557 66.0421L59.2861 65.1593ZM47.9705 64.653C46.4159 63.7132 44.8794 63.2803 43.0939 63.2975L43.1036 64.2974C44.6967 64.2821 46.0516 64.6615 47.4532 65.5088L47.9705 64.653ZM43.0949 63.2975C36.6982 63.3462 30.3008 63.3299 23.9015 63.2975L23.8965 64.2974C30.297 64.3299 36.6994 64.3462 43.1026 64.2974L43.0949 63.2975ZM23.899 63.2974C22.536 63.2974 21.3965 63.6184 20.2707 64.5298L20.9 65.307C21.8209 64.5614 22.728 64.2974 23.899 64.2974V63.2974ZM20.2744 64.5269C17.1411 67.0154 13.001 67.0271 9.906 64.4834L9.27104 65.2559C12.7384 68.1057 17.4023 68.0849 20.8963 65.3099L20.2744 64.5269ZM9.90517 64.4827C9.00599 63.7469 8.07251 63.478 7.15563 63.3814C6.70344 63.3338 6.25278 63.3279 5.81954 63.3279C5.37895 63.3279 4.96319 63.3338 4.54392 63.3143L4.49723 64.3132C4.94698 64.3342 5.39822 64.3279 5.81954 64.3279C6.24822 64.3279 6.6544 64.3342 7.05093 64.3759C7.83148 64.4581 8.56295 64.6765 9.27188 65.2566L9.90517 64.4827ZM4.54354 63.3142C4.35958 63.3058 4.17439 63.3021 3.99875 63.2982C3.82057 63.2943 3.65114 63.2902 3.4865 63.2812C3.15437 63.263 2.87133 63.226 2.63155 63.1463C2.39965 63.0692 2.21461 62.9545 2.06728 62.7781C1.91741 62.5987 1.78024 62.3239 1.69838 61.8861L0.715415 62.0698C0.820355 62.6311 1.01414 63.0772 1.29981 63.4192C1.58801 63.7642 1.94307 63.9713 2.31624 64.0953C2.68153 64.2167 3.06854 64.2598 3.43183 64.2797C3.6149 64.2897 3.79953 64.2941 3.9768 64.298C4.15662 64.302 4.32827 64.3054 4.49761 64.3132L4.54354 63.3142ZM1.69858 61.8871C1.4277 60.421 1.43799 59.3641 1.70475 58.6091C1.95827 57.8915 2.4628 57.3927 3.3442 57.0702L3.00058 56.1311C1.88403 56.5396 1.12969 57.2349 0.761871 58.2759C0.407305 59.2795 0.433818 60.5457 0.715219 62.0688L1.69858 61.8871ZM3.34464 57.07C5.67809 56.2138 7.57132 54.9572 9.08622 52.8292L8.27157 52.2493C6.89513 54.1827 5.18237 55.3305 3.00014 56.1312L3.34464 57.07ZM9.08663 52.8286C10.8006 50.4139 13.5243 49.8791 16.4553 50.2889L16.5937 49.2985C13.4822 48.8635 10.2932 49.401 8.27116 52.2498L9.08663 52.8286ZM16.4525 50.2885C17.3579 50.4202 18.1399 50.384 18.6571 49.8888C19.1614 49.406 19.2497 48.6353 19.2335 47.802L18.2337 47.8214C18.25 48.6614 18.1271 49.0118 17.9655 49.1665C17.8166 49.3091 17.4779 49.4271 16.5965 49.2989L16.4525 50.2885ZM19.2335 47.8045C19.1686 43.3265 19.2011 38.8649 19.2173 34.3784L18.2173 34.3748C18.2011 38.8559 18.1686 43.3294 18.2336 47.819L19.2335 47.8045ZM19.2173 34.3792C19.2253 32.8589 19.4348 31.8754 19.9203 31.1524C20.402 30.4348 21.2102 29.8934 22.6071 29.3883L22.2671 28.4479C20.7889 28.9824 19.7453 29.6189 19.09 30.5949C18.4384 31.5655 18.2256 32.7914 18.2173 34.374L19.2173 34.3792ZM22.6085 29.3878C24.0405 28.8652 24.4962 27.7314 24.8694 26.7577L23.9357 26.3998C23.5617 27.3755 23.2377 28.0937 22.2657 28.4484L22.6085 29.3878ZM24.8691 26.7584C25.2682 25.7221 25.7787 25.026 26.4296 24.6069C27.0775 24.1897 27.9298 24.0052 29.0968 24.1196L29.1944 23.1244C27.8763 22.9951 26.7794 23.1923 25.8882 23.7661C25 24.338 24.3815 25.2421 23.9359 26.399L24.8691 26.7584ZM29.0985 24.1198C31.5397 24.3507 34.0062 24.3006 36.4273 24.1206L36.3531 23.1234C33.9662 23.3008 31.5596 23.3481 29.1927 23.1242L29.0985 24.1198ZM36.425 24.1208C37.3941 24.0532 38.0743 24.2372 38.563 24.5929C39.054 24.9502 39.42 25.5303 39.661 26.3889L40.6238 26.1187C40.345 25.1253 39.8826 24.3164 39.1514 23.7843C38.4178 23.2504 37.4817 23.0446 36.3554 23.1232L36.425 24.1208ZM39.6617 26.3911C39.885 27.1728 40.1974 27.8557 40.6956 28.4127C41.1979 28.9743 41.8591 29.3748 42.725 29.6399L43.0177 28.6837C42.2918 28.4614 41.7996 28.147 41.441 27.7461C41.0783 27.3406 40.8222 26.8132 40.6232 26.1165L39.6617 26.3911ZM42.7243 29.6396C43.5576 29.8961 44.1234 30.3706 44.4961 30.9879C44.8753 31.6159 45.0699 32.4183 45.1005 33.3373L46.1 33.304C46.0656 32.2735 45.846 31.2889 45.3521 30.471C44.8518 29.6424 44.0856 29.0123 43.0184 28.6839L42.7243 29.6396ZM45.1005 33.3363C45.107 33.5431 45.1045 33.8953 45.1165 34.1506C45.13 34.4356 45.1632 34.7537 45.2659 35.0501C45.3718 35.3556 45.557 35.6528 45.8772 35.8646C46.1922 36.073 46.5867 36.1647 47.051 36.16L47.0408 35.16C46.7091 35.1634 46.5291 35.0968 46.4289 35.0305C46.3338 34.9677 46.2632 34.8739 46.2107 34.7226C46.1551 34.562 46.1274 34.3573 46.1154 34.1036C46.1021 33.8202 46.1098 33.618 46.1 33.305L45.1005 33.3363ZM47.0513 36.16C47.3969 36.1563 47.7592 36.1971 48.1757 36.2337C48.5751 36.2689 49.0171 36.2991 49.4492 36.2503C49.889 36.2006 50.3381 36.0675 50.7445 35.7633C51.151 35.459 51.477 35.0119 51.7184 34.3969L50.7876 34.0315C50.5985 34.513 50.3722 34.7928 50.1453 34.9627C49.9182 35.1327 49.6526 35.2209 49.337 35.2566C49.0138 35.2931 48.6598 35.2725 48.2633 35.2376C47.8839 35.2042 47.4502 35.1556 47.0405 35.16L47.0513 36.16ZM51.7181 34.3977C53.91 28.8442 56.1506 23.323 58.3925 17.7824L57.4655 17.4073C55.2243 22.9463 52.9817 28.4721 50.7879 34.0306L51.7181 34.3977ZM58.3924 17.7827C60.1303 13.4942 61.8682 9.22186 63.6063 4.94921L62.68 4.5724C60.942 8.84496 59.2038 13.1179 57.4656 17.4071L58.3924 17.7827ZM63.6047 4.95309C63.6894 4.74973 63.7695 4.52843 63.8414 4.34092C63.9169 4.1443 63.9899 3.96689 64.0738 3.80614L63.1872 3.34362C63.0761 3.55652 62.9867 3.77713 62.9078 3.98258C62.8255 4.19715 62.7593 4.38199 62.6816 4.56852L63.6047 4.95309ZM64.0719 3.80978C64.3892 3.2135 65.132 2.67187 66.2159 2.25801C67.2824 1.85079 68.5993 1.5985 69.9405 1.52353C71.2818 1.44857 72.6206 1.55243 73.7299 1.83847C74.8568 2.12905 75.6628 2.58528 76.0523 3.14551L76.8733 2.57463C76.2801 1.72149 75.1916 1.18267 73.9796 0.870138C72.7498 0.553055 71.3049 0.445719 69.8847 0.525093C68.4646 0.604464 67.0424 0.872034 65.8592 1.3238C64.6934 1.76893 63.6758 2.42542 63.1891 3.33998L64.0719 3.80978ZM76.0544 3.14851C77.2985 4.91011 76.4208 7.26891 74.3443 7.78461L74.5854 8.75513C77.3494 8.06865 78.5184 4.90393 76.8712 2.57163L76.0544 3.14851ZM74.3503 7.78316C74.1847 7.82214 74.075 7.854 73.9464 7.87756C73.8251 7.89976 73.7536 7.8999 73.7123 7.89217L73.528 8.87503C73.7467 8.91604 73.9594 8.8918 74.1265 8.8612C74.2862 8.83195 74.4689 8.78258 74.5794 8.75657L74.3503 7.78316ZM73.7147 7.89262C71.8762 7.53868 70.5129 7.85223 69.4682 8.73472C68.4592 9.58698 67.8181 10.9155 67.2702 12.4202L68.2099 12.7623C68.7504 11.2777 69.3194 10.1694 70.1135 9.49865C70.8718 8.85811 71.9043 8.56245 73.5257 8.87458L73.7147 7.89262ZM67.2706 12.4191C64.6595 19.5399 61.7243 26.5462 58.8469 33.5863L59.7726 33.9647C62.6453 26.9361 65.5903 19.9062 68.2095 12.7634L67.2706 12.4191ZM58.8465 33.5872C58.6907 33.9706 58.5745 34.3265 58.5292 34.645C58.484 34.9627 58.501 35.3023 58.6824 35.5984C58.8685 35.9021 59.1699 36.0672 59.4953 36.1529C59.8147 36.2371 60.2027 36.2579 60.6447 36.2409L60.6062 35.2416C60.2035 35.2571 59.9296 35.2332 59.7501 35.1859C59.5765 35.1402 59.5418 35.0869 59.535 35.0759C59.5236 35.0572 59.4908 34.9855 59.5192 34.7859C59.5475 34.5871 59.6283 34.3196 59.7729 33.9638L58.8465 33.5872ZM60.6456 36.2408C63.0504 36.144 65.4579 36.16 67.8531 36.241L67.8869 35.2415C65.474 35.16 63.041 35.1436 60.6053 35.2416L60.6456 36.2408ZM67.8561 36.2411C69.5374 36.2878 70.6983 36.7173 71.4591 37.4712C72.2204 38.2256 72.6607 39.3835 72.7308 41.0582L73.7299 41.0164C73.6538 39.1984 73.1682 37.757 72.163 36.7609C71.1574 35.7643 69.7111 35.2922 67.8839 35.2414L67.8561 36.2411ZM72.7308 41.059C72.7952 42.5396 72.7466 44.0043 72.7466 45.5211H73.7466C73.7466 44.0487 73.7955 42.5242 73.7299 41.0156L72.7308 41.059ZM72.7471 45.5438C72.8114 46.9592 72.8115 48.3776 72.7953 49.788L73.7953 49.7995C73.8116 48.383 73.8117 46.9423 73.7461 45.4984L72.7471 45.5438ZM73.2953 50.2937C73.2953 50.2937 73.2954 50.2937 73.2954 50.2937C73.2954 50.2937 73.2955 50.2937 73.2955 50.2937C73.2955 50.2937 73.2956 50.2937 73.2956 50.2937C73.2956 50.2937 73.2957 50.2937 73.2957 50.2937C73.2957 50.2937 73.2957 50.2937 73.2958 50.2937C73.2958 50.2937 73.2958 50.2937 73.2959 50.2937C73.2959 50.2937 73.2959 50.2937 73.296 50.2937C73.296 50.2937 73.296 50.2937 73.2961 50.2937C73.2961 50.2937 73.2961 50.2937 73.2962 50.2937C73.2962 50.2937 73.2962 50.2937 73.2962 50.2937C73.2963 50.2937 73.2963 50.2937 73.2963 50.2937C73.2964 50.2937 73.2964 50.2937 73.2964 50.2937C73.2965 50.2937 73.2965 50.2937 73.2965 50.2937C73.2965 50.2937 73.2966 50.2937 73.2966 50.2937C73.2966 50.2937 73.2967 50.2937 73.2967 50.2937C73.2967 50.2937 73.2968 50.2937 73.2968 50.2937C73.2968 50.2937 73.2968 50.2937 73.2969 50.2937C73.2969 50.2937 73.2969 50.2937 73.297 50.2937C73.297 50.2937 73.297 50.2937 73.2971 50.2937C73.2971 50.2937 73.2971 50.2937 73.2971 50.2937C73.2972 50.2937 73.2972 50.2937 73.2972 50.2937C73.2973 50.2937 73.2973 50.2937 73.2973 50.2937C73.2973 50.2937 73.2974 50.2937 73.2974 50.2937C73.2974 50.2937 73.2975 50.2937 73.2975 50.2937C73.2975 50.2937 73.2975 50.2937 73.2976 50.2937C73.2976 50.2937 73.2976 50.2937 73.2977 50.2937C73.2977 50.2937 73.2977 50.2937 73.2977 50.2937C73.2978 50.2937 73.2978 50.2937 73.2978 50.2937C73.2979 50.2937 73.2979 50.2937 73.2979 50.2937C73.2979 50.2937 73.298 50.2937 73.298 50.2937C73.298 50.2937 73.298 50.2937 73.2981 50.2937C73.2981 50.2937 73.2981 50.2937 73.2982 50.2937C73.2982 50.2937 73.2982 50.2937 73.2982 50.2937C73.2983 50.2937 73.2983 50.2937 73.2983 50.2937C73.2984 50.2937 73.2984 50.2937 73.2984 50.2937C73.2984 50.2937 73.2985 50.2937 73.2985 50.2937C73.2985 50.2937 73.2985 50.2937 73.2986 50.2937C73.2986 50.2937 73.2986 50.2937 73.2987 50.2937C73.2987 50.2937 73.2987 50.2937 73.2987 50.2937C73.2988 50.2937 73.2988 50.2937 73.2988 50.2937C73.2988 50.2937 73.2989 50.2937 73.2989 50.2937C73.2989 50.2937 73.299 50.2937 73.299 50.2937C73.299 50.2937 73.299 50.2937 73.2991 50.2937C73.2991 50.2937 73.2991 50.2937 73.2991 50.2937C73.2992 50.2937 73.2992 50.2937 73.2992 50.2937C73.2992 50.2937 73.2993 50.2937 73.2993 50.2937C73.2993 50.2937 73.2993 50.2937 73.2994 50.2937C73.2994 50.2937 73.2994 50.2937 73.2994 50.2937C73.2995 50.2937 73.2995 50.2937 73.2995 50.2937C73.2996 50.2937 73.2996 50.2937 73.2996 50.2937C73.2996 50.2937 73.2997 50.2937 73.2997 50.2937C73.2997 50.2937 73.2997 50.2937 73.2998 50.2937C73.2998 50.2937 73.2998 50.2937 73.2998 50.2937C73.2999 50.2937 73.2999 50.2937 73.2999 50.2937C73.2999 50.2937 73.3 50.2937 73.3 50.2937C73.3 50.2937 73.3 50.2937 73.3001 50.2937C73.3001 50.2937 73.3001 50.2937 73.3001 50.2937C73.3002 50.2937 73.3002 50.2937 73.3002 50.2937C73.3002 50.2937 73.3003 50.2937 73.3003 50.2937C73.3003 50.2937 73.3003 50.2937 73.3003 50.2937C73.3004 50.2937 73.3004 50.2937 73.3004 50.2937C73.3004 50.2937 73.3005 50.2937 73.3005 50.2937C73.3005 50.2937 73.3005 50.2937 73.3006 50.2937C73.3006 50.2937 73.3006 50.2937 73.3006 50.2937C73.3007 50.2937 73.3007 50.2937 73.3007 50.2937C73.3007 50.2937 73.3008 50.2937 73.3008 50.2937C73.3008 50.2937 73.3008 50.2937 73.3008 50.2937C73.3009 50.2937 73.3009 50.2937 73.3009 50.2937C73.3009 50.2937 73.301 50.2937 73.301 50.2937C73.301 50.2937 73.301 50.2937 73.3011 50.2937C73.3011 50.2937 73.3011 50.2937 73.3011 50.2937C73.3011 50.2937 73.3012 50.2937 73.3012 50.2937C73.3012 50.2937 73.3012 50.2937 73.3013 50.2937C73.3013 50.2937 73.3013 50.2937 73.3013 50.2937C73.3014 50.2937 73.3014 50.2937 73.3014 50.2937C73.3014 50.2937 73.3014 50.2937 73.3015 50.2937C73.3015 50.2937 73.3015 50.2937 73.3015 50.2937C73.3016 50.2937 73.3016 50.2937 73.3016 50.2937C73.3016 50.2937 73.3016 50.2937 73.3017 50.2937C73.3017 50.2937 73.3017 50.2937 73.3017 50.2937C73.3018 50.2937 73.3018 50.2937 73.3018 50.2937C73.3018 50.2937 73.3018 50.2937 73.3019 50.2937C73.3019 50.2937 73.3019 50.2937 73.3019 50.2937C73.3019 50.2937 73.302 50.2937 73.302 50.2937C73.302 50.2937 73.302 50.2937 73.3021 50.2937C73.3021 50.2937 73.3021 50.2937 73.3021 50.2937C73.3021 50.2937 73.3022 50.2937 73.3022 50.2937C73.3022 50.2937 73.3022 50.2937 73.3022 50.2937C73.3023 50.2937 73.3023 50.2937 73.3023 50.2937C73.3023 50.2937 73.3023 50.2937 73.3024 50.2937C73.3024 50.2937 73.3024 50.2937 73.3024 50.2937C73.3025 50.2937 73.3025 50.2937 73.3025 50.2937C73.3025 50.2937 73.3025 50.2937 73.3026 50.2937C73.3026 50.2937 73.3026 50.2937 73.3026 50.2937C73.3026 50.2937 73.3027 50.2937 73.3027 50.2937C73.3027 50.2937 73.3027 50.2937 73.3027 50.2937C73.3027 50.2937 73.3028 50.2937 73.3028 50.2937C73.3028 50.2937 73.3028 50.2937 73.3028 50.2937C73.3029 50.2937 73.3029 50.2937 73.3029 50.2937C73.3029 50.2937 73.3029 50.2937 73.303 50.2937C73.303 50.2937 73.303 50.2937 73.303 50.2937C73.303 50.2937 73.3031 50.2937 73.3031 50.2937C73.3031 50.2937 73.3031 50.2937 73.3031 50.2937C73.3032 50.2937 73.3032 50.2937 73.3032 50.2937C73.3032 50.2937 73.3032 50.2937 73.3033 50.2937C73.3033 50.2937 73.3033 50.2937 73.3033 50.2937C73.3033 50.2937 73.3033 50.2937 73.3034 50.2937C73.3034 50.2937 73.3034 50.2937 73.3034 50.2937C73.3034 50.2937 73.3035 50.2937 73.3035 50.2937C73.3035 50.2937 73.3035 50.2937 73.3035 50.2937C73.3035 50.2937 73.3036 50.2937 73.3036 50.2937C73.3036 50.2937 73.3036 50.2937 73.3036 50.2937C73.3036 50.2937 73.3037 50.2937 73.3037 50.2937C73.3037 50.2937 73.3037 50.2937 73.3037 50.2937C73.3038 50.2937 73.3038 50.2937 73.3038 50.2937C73.3038 50.2937 73.3038 50.2937 73.3038 50.2937C73.3039 50.2937 73.3039 50.2937 73.3039 50.2937C73.3039 50.2937 73.3039 50.2937 73.3039 50.2937C73.304 50.2937 73.304 50.2937 73.304 50.2937C73.304 50.2937 73.304 50.2937 73.3041 50.2937C73.3041 50.2937 73.3041 50.2937 73.3041 50.2937C73.3041 50.2937 73.3041 50.2937 73.3042 50.2937C73.3042 50.2937 73.3042 50.2937 73.3042 50.2937C73.3042 50.2937 73.3042 50.2937 73.3043 50.2937C73.3043 50.2937 73.3043 50.2937 73.3043 50.2937C73.3043 50.2937 73.3043 50.2937 73.3044 50.2937C73.3044 50.2937 73.3044 50.2937 73.3044 50.2937C73.3044 50.2937 73.3044 50.2937 73.3044 50.2937C73.3045 50.2937 73.3045 50.2937 73.3045 50.2937C73.3045 50.2937 73.3045 50.2937 73.3045 50.2937C73.3046 50.2937 73.3046 50.2937 73.3046 50.2937C73.3046 50.2937 73.3046 50.2937 73.3046 50.2937C73.3046 50.2937 73.3047 50.2937 73.3047 50.2937C73.3047 50.2937 73.3047 50.2937 73.3047 50.2937C73.3047 50.2937 73.3048 50.2937 73.3048 50.2937C73.3048 50.2937 73.3048 50.2937 73.3048 50.2937C73.3048 50.2937 73.3048 50.2937 73.3049 50.2937C73.3049 50.2937 73.3049 50.2937 73.3049 50.2937C73.3049 50.2937 73.3049 50.2937 73.3049 50.2937C73.305 50.2937 73.305 50.2937 73.305 50.2937C73.305 50.2937 73.305 50.2937 73.305 50.2937C73.305 50.2937 73.3051 50.2937 73.3051 50.2937C73.3051 50.2937 73.3051 50.2937 73.3051 50.2937C73.3051 50.2937 73.3051 50.2937 73.3052 50.2937C73.3052 50.2937 73.3052 50.2937 73.3052 50.2937C73.3052 50.2937 73.3052 50.2937 73.3052 50.2937C73.3053 50.2937 73.3053 50.2937 73.3053 50.2937C73.3053 50.2937 73.3053 50.2937 73.3053 50.2937C73.3053 50.2937 73.3054 50.2937 73.3054 50.2937C73.3054 50.2937 73.3054 50.2937 73.3054 50.2937C73.3054 50.2937 73.3054 50.2937 73.3054 50.2937C73.3055 50.2937 73.3055 50.2937 73.3055 50.2937C73.3055 50.2937 73.3055 50.2937 73.3055 50.2937C73.3055 50.2937 73.3055 50.2937 73.3056 50.2937C73.3056 50.2937 73.3056 50.2937 73.3056 50.2937C73.3056 50.2937 73.3056 50.2937 73.3056 50.2937C73.3056 50.2937 73.3057 50.2937 73.3057 50.2937C73.3057 50.2937 73.3057 50.2937 73.3057 50.2937C73.3057 50.2937 73.3057 50.2937 73.3057 50.2937C73.3058 50.2937 73.3058 50.2937 73.3058 50.2937C73.3058 50.2937 73.3058 50.2937 73.3058 50.2937C73.3058 50.2937 73.3058 50.2937 73.3058 50.2937C73.3059 50.2937 73.3059 50.2937 73.3059 50.2937C73.3059 50.2937 73.3059 50.2937 73.3059 50.2937C73.3059 50.2937 73.3059 50.2937 73.306 50.2937C73.306 50.2937 73.306 50.2937 73.306 50.2937C73.306 50.2937 73.306 50.2937 73.306 50.2937C73.306 50.2937 73.306 50.2937 73.3061 50.2937C73.3061 50.2937 73.3061 50.2937 73.3061 50.2937C73.3061 50.2937 73.3061 50.2937 73.3061 50.2937C73.3061 50.2937 73.3061 50.2937 73.3061 50.2937C73.3062 50.2937 73.3062 50.2937 73.3062 50.2937C73.3062 50.2937 73.3062 50.2937 73.3062 50.2937C73.3062 50.2937 73.3062 50.2937 73.3062 50.2937C73.3063 50.2937 73.3063 50.2937 73.3063 50.2937C73.3063 50.2937 73.3063 50.2937 73.3063 50.2937C73.3063 50.2937 73.3063 50.2937 73.3063 50.2937C73.3063 50.2937 73.3064 50.2937 73.3064 50.2937C73.3064 50.2937 73.3064 50.2937 73.3064 50.2937C73.3064 50.2937 73.3064 50.2937 73.3064 50.2937C73.3064 50.2937 73.3064 50.2937 73.3064 50.2937C73.3064 50.2937 73.3065 50.2937 73.3065 50.2937C73.3065 50.2937 73.3065 50.2937 73.3065 50.2937C73.3065 50.2937 73.3065 50.2937 73.3065 50.2937C73.3065 50.2937 73.3065 50.2937 73.3065 50.2937C73.3066 50.2937 73.3066 50.2937 73.3066 50.2937C73.3066 50.2937 73.3066 50.2937 73.3066 50.2937C73.3066 50.2937 73.3066 50.2937 73.3066 50.2937C73.3066 50.2937 73.3066 50.2937 73.3067 50.2937C73.3067 50.2937 73.3067 50.2937 73.3067 50.2937C73.3067 50.2937 73.3067 50.2937 73.3067 50.2937C73.3067 50.2937 73.3067 50.2937 73.3067 50.2937C73.3067 50.2937 73.3067 50.2937 73.3068 50.2937C73.3068 50.2937 73.3068 50.2937 73.3068 50.2937C73.3068 50.2937 73.3068 50.2937 73.3068 50.2937C73.3068 50.2937 73.3068 50.2937 73.3068 50.2937C73.3068 50.2937 73.3068 50.2937 73.3068 50.2937C73.3068 50.2937 73.3069 50.2937 73.3069 50.2937C73.3069 50.2937 73.3069 50.2937 73.3069 50.2937C73.3069 50.2937 73.3069 50.2937 73.3069 50.2937C73.3069 50.2937 73.3069 50.2937 73.3069 50.2937C73.3069 50.2937 73.3069 50.2937 73.3069 50.2937C73.307 50.2937 73.307 50.2937 73.307 50.2937C73.307 50.2937 73.307 50.2937 73.307 50.2937C73.307 50.2937 73.307 50.2937 73.307 50.2937C73.307 50.2937 73.307 50.2937 73.307 50.2937C73.307 50.2937 73.307 50.2937 73.307 50.2937C73.3071 50.2937 73.3071 50.2937 73.3071 50.2937C73.3071 50.2937 73.3071 50.2937 73.3071 50.2937C73.3071 50.2937 73.3071 50.2937 73.3071 50.2937C73.3071 50.2937 73.3071 50.2937 73.3071 50.2937C73.3071 50.2937 73.3071 50.2937 73.3071 50.2937C73.3071 50.2937 73.3071 50.2937 73.3071 50.2937C73.3072 50.2937 73.3072 50.2937 73.3072 50.2937C73.3072 50.2937 73.3072 50.2937 73.3072 50.2937C73.3072 50.2937 73.3072 50.2937 73.3072 50.2937C73.3072 50.2937 73.3072 50.2937 73.3072 50.2937C73.3072 50.2937 73.3072 50.2937 73.3072 50.2937C73.3072 50.2937 73.3072 50.2937 73.3072 50.2937C73.3072 50.2937 73.3072 50.2937 73.3073 50.2937H73.3073C73.3073 50.2937 73.3073 50.2937 73.3073 50.2937C73.3073 50.2937 73.3073 50.2937 73.3073 50.2937H73.3073C73.3073 50.2937 73.3073 50.2937 73.3073 50.2937H73.3073C73.3073 50.2937 73.3073 50.2937 73.3073 50.2937H73.3073C73.3074 50.2937 73.3074 50.2937 73.3074 50.2937C73.3074 50.2937 73.3074 50.2937 73.3074 50.2937H73.3074H73.3074C73.3074 50.2937 73.3074 50.2937 73.3074 50.2937C73.3074 50.2937 73.3074 50.2937 73.3074 50.2937C73.3074 50.2937 73.3074 50.2937 73.3074 50.2937C73.3074 50.2937 73.3074 50.2937 73.3074 50.2937C73.3074 50.2937 73.3074 50.2937 73.3074 50.2937C73.3074 50.2937 73.3074 50.2937 73.3074 50.2937C73.3074 50.2937 73.3074 50.2937 73.3074 50.2937H73.3074C73.3074 50.2937 73.3074 50.2937 73.3075 50.2937H73.3075C73.3075 50.2937 73.3075 50.2937 73.3075 50.2937H73.3075C73.3075 50.2937 73.3075 50.2937 73.3075 50.2937C73.3075 50.2937 73.3075 50.2937 73.3075 49.7937C73.3075 49.2937 73.3075 49.2937 73.3075 49.2937C73.3075 49.2937 73.3075 49.2937 73.3075 49.2937H73.3075C73.3075 49.2937 73.3075 49.2937 73.3075 49.2937H73.3075C73.3074 49.2937 73.3074 49.2937 73.3074 49.2937H73.3074C73.3074 49.2937 73.3074 49.2937 73.3074 49.2937C73.3074 49.2937 73.3074 49.2937 73.3074 49.2937C73.3074 49.2937 73.3074 49.2937 73.3074 49.2937C73.3074 49.2937 73.3074 49.2937 73.3074 49.2937C73.3074 49.2937 73.3074 49.2937 73.3074 49.2937C73.3074 49.2937 73.3074 49.2937 73.3074 49.2937C73.3074 49.2937 73.3074 49.2937 73.3074 49.2937H73.3074H73.3074C73.3074 49.2937 73.3074 49.2937 73.3074 49.2937C73.3074 49.2937 73.3074 49.2937 73.3073 49.2937H73.3073C73.3073 49.2937 73.3073 49.2937 73.3073 49.2937H73.3073C73.3073 49.2937 73.3073 49.2937 73.3073 49.2937H73.3073C73.3073 49.2937 73.3073 49.2937 73.3073 49.2937C73.3073 49.2937 73.3073 49.2937 73.3073 49.2937H73.3073C73.3072 49.2937 73.3072 49.2937 73.3072 49.2937C73.3072 49.2937 73.3072 49.2937 73.3072 49.2937C73.3072 49.2937 73.3072 49.2937 73.3072 49.2937C73.3072 49.2937 73.3072 49.2937 73.3072 49.2937C73.3072 49.2937 73.3072 49.2937 73.3072 49.2937C73.3072 49.2937 73.3072 49.2937 73.3072 49.2937C73.3072 49.2937 73.3072 49.2937 73.3071 49.2937C73.3071 49.2937 73.3071 49.2937 73.3071 49.2937C73.3071 49.2937 73.3071 49.2937 73.3071 49.2937C73.3071 49.2937 73.3071 49.2937 73.3071 49.2937C73.3071 49.2937 73.3071 49.2937 73.3071 49.2937C73.3071 49.2937 73.3071 49.2937 73.3071 49.2937C73.3071 49.2937 73.3071 49.2937 73.307 49.2937C73.307 49.2937 73.307 49.2937 73.307 49.2937C73.307 49.2937 73.307 49.2937 73.307 49.2937C73.307 49.2937 73.307 49.2937 73.307 49.2937C73.307 49.2937 73.307 49.2937 73.307 49.2937C73.307 49.2937 73.307 49.2937 73.3069 49.2937C73.3069 49.2937 73.3069 49.2937 73.3069 49.2937C73.3069 49.2937 73.3069 49.2937 73.3069 49.2937C73.3069 49.2937 73.3069 49.2937 73.3069 49.2937C73.3069 49.2937 73.3069 49.2937 73.3069 49.2937C73.3069 49.2937 73.3068 49.2937 73.3068 49.2937C73.3068 49.2937 73.3068 49.2937 73.3068 49.2937C73.3068 49.2937 73.3068 49.2937 73.3068 49.2937C73.3068 49.2937 73.3068 49.2937 73.3068 49.2937C73.3068 49.2937 73.3068 49.2937 73.3068 49.2937C73.3067 49.2937 73.3067 49.2937 73.3067 49.2937C73.3067 49.2937 73.3067 49.2937 73.3067 49.2937C73.3067 49.2937 73.3067 49.2937 73.3067 49.2937C73.3067 49.2937 73.3067 49.2937 73.3067 49.2937C73.3066 49.2937 73.3066 49.2937 73.3066 49.2937C73.3066 49.2937 73.3066 49.2937 73.3066 49.2937C73.3066 49.2937 73.3066 49.2937 73.3066 49.2937C73.3066 49.2937 73.3066 49.2937 73.3065 49.2937C73.3065 49.2937 73.3065 49.2937 73.3065 49.2937C73.3065 49.2937 73.3065 49.2937 73.3065 49.2937C73.3065 49.2937 73.3065 49.2937 73.3065 49.2937C73.3065 49.2937 73.3064 49.2937 73.3064 49.2937C73.3064 49.2937 73.3064 49.2937 73.3064 49.2937C73.3064 49.2937 73.3064 49.2937 73.3064 49.2937C73.3064 49.2937 73.3064 49.2937 73.3064 49.2937C73.3064 49.2937 73.3063 49.2937 73.3063 49.2937C73.3063 49.2937 73.3063 49.2937 73.3063 49.2937C73.3063 49.2937 73.3063 49.2937 73.3063 49.2937C73.3063 49.2937 73.3063 49.2937 73.3062 49.2937C73.3062 49.2937 73.3062 49.2937 73.3062 49.2937C73.3062 49.2937 73.3062 49.2937 73.3062 49.2937C73.3062 49.2937 73.3062 49.2937 73.3061 49.2937C73.3061 49.2937 73.3061 49.2937 73.3061 49.2937C73.3061 49.2937 73.3061 49.2937 73.3061 49.2937C73.3061 49.2937 73.3061 49.2937 73.3061 49.2937C73.306 49.2937 73.306 49.2937 73.306 49.2937C73.306 49.2937 73.306 49.2937 73.306 49.2937C73.306 49.2937 73.306 49.2937 73.306 49.2937C73.3059 49.2937 73.3059 49.2937 73.3059 49.2937C73.3059 49.2937 73.3059 49.2937 73.3059 49.2937C73.3059 49.2937 73.3059 49.2937 73.3058 49.2937C73.3058 49.2937 73.3058 49.2937 73.3058 49.2937C73.3058 49.2937 73.3058 49.2937 73.3058 49.2937C73.3058 49.2937 73.3058 49.2937 73.3057 49.2937C73.3057 49.2937 73.3057 49.2937 73.3057 49.2937C73.3057 49.2937 73.3057 49.2937 73.3057 49.2937C73.3057 49.2937 73.3056 49.2937 73.3056 49.2937C73.3056 49.2937 73.3056 49.2937 73.3056 49.2937C73.3056 49.2937 73.3056 49.2937 73.3056 49.2937C73.3055 49.2937 73.3055 49.2937 73.3055 49.2937C73.3055 49.2937 73.3055 49.2937 73.3055 49.2937C73.3055 49.2937 73.3055 49.2937 73.3054 49.2937C73.3054 49.2937 73.3054 49.2937 73.3054 49.2937C73.3054 49.2937 73.3054 49.2937 73.3054 49.2937C73.3054 49.2937 73.3053 49.2937 73.3053 49.2937C73.3053 49.2937 73.3053 49.2937 73.3053 49.2937C73.3053 49.2937 73.3053 49.2937 73.3052 49.2937C73.3052 49.2937 73.3052 49.2937 73.3052 49.2937C73.3052 49.2937 73.3052 49.2937 73.3052 49.2937C73.3051 49.2937 73.3051 49.2937 73.3051 49.2937C73.3051 49.2937 73.3051 49.2937 73.3051 49.2937C73.3051 49.2937 73.305 49.2937 73.305 49.2937C73.305 49.2937 73.305 49.2937 73.305 49.2937C73.305 49.2937 73.305 49.2937 73.3049 49.2937C73.3049 49.2937 73.3049 49.2937 73.3049 49.2937C73.3049 49.2937 73.3049 49.2937 73.3049 49.2937C73.3048 49.2937 73.3048 49.2937 73.3048 49.2937C73.3048 49.2937 73.3048 49.2937 73.3048 49.2937C73.3048 49.2937 73.3047 49.2937 73.3047 49.2937C73.3047 49.2937 73.3047 49.2937 73.3047 49.2937C73.3047 49.2937 73.3046 49.2937 73.3046 49.2937C73.3046 49.2937 73.3046 49.2937 73.3046 49.2937C73.3046 49.2937 73.3046 49.2937 73.3045 49.2937C73.3045 49.2937 73.3045 49.2937 73.3045 49.2937C73.3045 49.2937 73.3045 49.2937 73.3044 49.2937C73.3044 49.2937 73.3044 49.2937 73.3044 49.2937C73.3044 49.2937 73.3044 49.2937 73.3044 49.2937C73.3043 49.2937 73.3043 49.2937 73.3043 49.2937C73.3043 49.2937 73.3043 49.2937 73.3043 49.2937C73.3042 49.2937 73.3042 49.2937 73.3042 49.2937C73.3042 49.2937 73.3042 49.2937 73.3042 49.2937C73.3041 49.2937 73.3041 49.2937 73.3041 49.2937C73.3041 49.2937 73.3041 49.2937 73.3041 49.2937C73.304 49.2937 73.304 49.2937 73.304 49.2937C73.304 49.2937 73.304 49.2937 73.3039 49.2937C73.3039 49.2937 73.3039 49.2937 73.3039 49.2937C73.3039 49.2937 73.3039 49.2937 73.3038 49.2937C73.3038 49.2937 73.3038 49.2937 73.3038 49.2937C73.3038 49.2937 73.3038 49.2937 73.3037 49.2937C73.3037 49.2937 73.3037 49.2937 73.3037 49.2937C73.3037 49.2937 73.3036 49.2937 73.3036 49.2937C73.3036 49.2937 73.3036 49.2937 73.3036 49.2937C73.3036 49.2937 73.3035 49.2937 73.3035 49.2937C73.3035 49.2937 73.3035 49.2937 73.3035 49.2937C73.3035 49.2937 73.3034 49.2937 73.3034 49.2937C73.3034 49.2937 73.3034 49.2937 73.3034 49.2937C73.3033 49.2937 73.3033 49.2937 73.3033 49.2937C73.3033 49.2937 73.3033 49.2937 73.3033 49.2937C73.3032 49.2937 73.3032 49.2937 73.3032 49.2937C73.3032 49.2937 73.3032 49.2937 73.3031 49.2937C73.3031 49.2937 73.3031 49.2937 73.3031 49.2937C73.3031 49.2937 73.303 49.2937 73.303 49.2937C73.303 49.2937 73.303 49.2937 73.303 49.2937C73.3029 49.2937 73.3029 49.2937 73.3029 49.2937C73.3029 49.2937 73.3029 49.2937 73.3028 49.2937C73.3028 49.2937 73.3028 49.2937 73.3028 49.2937C73.3028 49.2937 73.3027 49.2937 73.3027 49.2937C73.3027 49.2937 73.3027 49.2937 73.3027 49.2937C73.3027 49.2937 73.3026 49.2937 73.3026 49.2937C73.3026 49.2937 73.3026 49.2937 73.3026 49.2937C73.3025 49.2937 73.3025 49.2937 73.3025 49.2937C73.3025 49.2937 73.3025 49.2937 73.3024 49.2937C73.3024 49.2937 73.3024 49.2937 73.3024 49.2937C73.3023 49.2937 73.3023 49.2937 73.3023 49.2937C73.3023 49.2937 73.3023 49.2937 73.3022 49.2937C73.3022 49.2937 73.3022 49.2937 73.3022 49.2937C73.3022 49.2937 73.3021 49.2937 73.3021 49.2937C73.3021 49.2937 73.3021 49.2937 73.3021 49.2937C73.302 49.2937 73.302 49.2937 73.302 49.2937C73.302 49.2937 73.3019 49.2937 73.3019 49.2937C73.3019 49.2937 73.3019 49.2937 73.3019 49.2937C73.3018 49.2937 73.3018 49.2937 73.3018 49.2937C73.3018 49.2937 73.3018 49.2937 73.3017 49.2937C73.3017 49.2937 73.3017 49.2937 73.3017 49.2937C73.3016 49.2937 73.3016 49.2937 73.3016 49.2937C73.3016 49.2937 73.3016 49.2937 73.3015 49.2937C73.3015 49.2937 73.3015 49.2937 73.3015 49.2937C73.3014 49.2937 73.3014 49.2937 73.3014 49.2937C73.3014 49.2937 73.3014 49.2937 73.3013 49.2937C73.3013 49.2937 73.3013 49.2937 73.3013 49.2937C73.3012 49.2937 73.3012 49.2937 73.3012 49.2937C73.3012 49.2937 73.3011 49.2937 73.3011 49.2937C73.3011 49.2937 73.3011 49.2937 73.3011 49.2937C73.301 49.2937 73.301 49.2937 73.301 49.2937C73.301 49.2937 73.3009 49.2937 73.3009 49.2937C73.3009 49.2937 73.3009 49.2937 73.3008 49.2937C73.3008 49.2937 73.3008 49.2937 73.3008 49.2937C73.3008 49.2937 73.3007 49.2937 73.3007 49.2937C73.3007 49.2937 73.3007 49.2937 73.3006 49.2937C73.3006 49.2937 73.3006 49.2937 73.3006 49.2937C73.3005 49.2937 73.3005 49.2937 73.3005 49.2937C73.3005 49.2937 73.3004 49.2937 73.3004 49.2937C73.3004 49.2937 73.3004 49.2937 73.3003 49.2937C73.3003 49.2937 73.3003 49.2937 73.3003 49.2937C73.3003 49.2937 73.3002 49.2937 73.3002 49.2937C73.3002 49.2937 73.3002 49.2937 73.3001 49.2937C73.3001 49.2937 73.3001 49.2937 73.3001 49.2937C73.3 49.2937 73.3 49.2937 73.3 49.2937C73.3 49.2937 73.2999 49.2937 73.2999 49.2937C73.2999 49.2937 73.2999 49.2937 73.2998 49.2937C73.2998 49.2937 73.2998 49.2937 73.2998 49.2937C73.2997 49.2937 73.2997 49.2937 73.2997 49.2937C73.2997 49.2937 73.2996 49.2937 73.2996 49.2937C73.2996 49.2937 73.2996 49.2937 73.2995 49.2937C73.2995 49.2937 73.2995 49.2937 73.2994 49.2937C73.2994 49.2937 73.2994 49.2937 73.2994 49.2937C73.2993 49.2937 73.2993 49.2937 73.2993 49.2937C73.2993 49.2937 73.2992 49.2937 73.2992 49.2937C73.2992 49.2937 73.2992 49.2937 73.2991 49.2937C73.2991 49.2937 73.2991 49.2937 73.2991 49.2937C73.299 49.2937 73.299 49.2937 73.299 49.2937C73.299 49.2937 73.2989 49.2937 73.2989 49.2937C73.2989 49.2937 73.2988 49.2937 73.2988 49.2937C73.2988 49.2937 73.2988 49.2937 73.2987 49.2937C73.2987 49.2937 73.2987 49.2937 73.2987 49.2937C73.2986 49.2937 73.2986 49.2937 73.2986 49.2937C73.2985 49.2937 73.2985 49.2937 73.2985 49.2937C73.2985 49.2937 73.2984 49.2937 73.2984 49.2937C73.2984 49.2937 73.2984 49.2937 73.2983 49.2937C73.2983 49.2937 73.2983 49.2937 73.2982 49.2937C73.2982 49.2937 73.2982 49.2937 73.2982 49.2937C73.2981 49.2937 73.2981 49.2937 73.2981 49.2937C73.298 49.2937 73.298 49.2937 73.298 49.2937C73.298 49.2937 73.2979 49.2937 73.2979 49.2937C73.2979 49.2937 73.2979 49.2937 73.2978 49.2937C73.2978 49.2937 73.2978 49.2937 73.2977 49.2937C73.2977 49.2937 73.2977 49.2937 73.2977 49.2937C73.2976 49.2937 73.2976 49.2937 73.2976 49.2937C73.2975 49.2937 73.2975 49.2937 73.2975 49.2937C73.2975 49.2937 73.2974 49.2937 73.2974 49.2937C73.2974 49.2937 73.2973 49.2937 73.2973 49.2937C73.2973 49.2937 73.2973 49.2937 73.2972 49.2937C73.2972 49.2937 73.2972 49.2937 73.2971 49.2937C73.2971 49.2937 73.2971 49.2937 73.2971 49.2937C73.297 49.2937 73.297 49.2937 73.297 49.2937C73.2969 49.2937 73.2969 49.2937 73.2969 49.2937C73.2968 49.2937 73.2968 49.2937 73.2968 49.2937C73.2968 49.2937 73.2967 49.2937 73.2967 49.2937C73.2967 49.2937 73.2966 49.2937 73.2966 49.2937C73.2966 49.2937 73.2965 49.2937 73.2965 49.2937C73.2965 49.2937 73.2965 49.2937 73.2964 49.2937C73.2964 49.2937 73.2964 49.2937 73.2963 49.2937C73.2963 49.2937 73.2963 49.2937 73.2962 49.2937C73.2962 49.2937 73.2962 49.2937 73.2962 49.2937C73.2961 49.2937 73.2961 49.2937 73.2961 49.2937C73.296 49.2937 73.296 49.2937 73.296 49.2937C73.2959 49.2937 73.2959 49.2937 73.2959 49.2937C73.2958 49.2937 73.2958 49.2937 73.2958 49.2937C73.2957 49.2937 73.2957 49.2937 73.2957 49.2937C73.2957 49.2937 73.2956 49.2937 73.2956 49.2937C73.2956 49.2937 73.2955 49.2937 73.2955 49.2937C73.2955 49.2937 73.2954 49.2937 73.2954 49.2937C73.2954 49.2937 73.2953 49.2937 73.2953 49.2937V50.2937C73.2953 50.2937 73.2954 50.2937 73.2954 50.2937C73.2954 50.2937 73.2955 50.2937 73.2955 50.2937C73.2955 50.2937 73.2956 50.2937 73.2956 50.2937C73.2956 50.2937 73.2957 50.2937 73.2957 50.2937C73.2957 50.2937 73.2957 50.2937 73.2958 50.2937C73.2958 50.2937 73.2958 50.2937 73.2959 50.2937C73.2959 50.2937 73.2959 50.2937 73.296 50.2937C73.296 50.2937 73.296 50.2937 73.2961 50.2937C73.2961 50.2937 73.2961 50.2937 73.2962 50.2937C73.2962 50.2937 73.2962 50.2937 73.2962 50.2937C73.2963 50.2937 73.2963 50.2937 73.2963 50.2937C73.2964 50.2937 73.2964 50.2937 73.2964 50.2937C73.2965 50.2937 73.2965 50.2937 73.2965 50.2937C73.2965 50.2937 73.2966 50.2937 73.2966 50.2937C73.2966 50.2937 73.2967 50.2937 73.2967 50.2937C73.2967 50.2937 73.2968 50.2937 73.2968 50.2937C73.2968 50.2937 73.2968 50.2937 73.2969 50.2937C73.2969 50.2937 73.2969 50.2937 73.297 50.2937C73.297 50.2937 73.297 50.2937 73.2971 50.2937C73.2971 50.2937 73.2971 50.2937 73.2971 50.2937C73.2972 50.2937 73.2972 50.2937 73.2972 50.2937C73.2973 50.2937 73.2973 50.2937 73.2973 50.2937C73.2973 50.2937 73.2974 50.2937 73.2974 50.2937C73.2974 50.2937 73.2975 50.2937 73.2975 50.2937C73.2975 50.2937 73.2975 50.2937 73.2976 50.2937C73.2976 50.2937 73.2976 50.2937 73.2977 50.2937C73.2977 50.2937 73.2977 50.2937 73.2977 50.2937C73.2978 50.2937 73.2978 50.2937 73.2978 50.2937C73.2979 50.2937 73.2979 50.2937 73.2979 50.2937C73.2979 50.2937 73.298 50.2937 73.298 50.2937C73.298 50.2937 73.298 50.2937 73.2981 50.2937C73.2981 50.2937 73.2981 50.2937 73.2982 50.2937C73.2982 50.2937 73.2982 50.2937 73.2982 50.2937C73.2983 50.2937 73.2983 50.2937 73.2983 50.2937C73.2984 50.2937 73.2984 50.2937 73.2984 50.2937C73.2984 50.2937 73.2985 50.2937 73.2985 50.2937C73.2985 50.2937 73.2985 50.2937 73.2986 50.2937C73.2986 50.2937 73.2986 50.2937 73.2987 50.2937C73.2987 50.2937 73.2987 50.2937 73.2987 50.2937C73.2988 50.2937 73.2988 50.2937 73.2988 50.2937C73.2988 50.2937 73.2989 50.2937 73.2989 50.2937C73.2989 50.2937 73.299 50.2937 73.299 50.2937C73.299 50.2937 73.299 50.2937 73.2991 50.2937C73.2991 50.2937 73.2991 50.2937 73.2991 50.2937C73.2992 50.2937 73.2992 50.2937 73.2992 50.2937C73.2992 50.2937 73.2993 50.2937 73.2993 50.2937C73.2993 50.2937 73.2993 50.2937 73.2994 50.2937C73.2994 50.2937 73.2994 50.2937 73.2994 50.2937C73.2995 50.2937 73.2995 50.2937 73.2995 50.2937C73.2996 50.2937 73.2996 50.2937 73.2996 50.2937C73.2996 50.2937 73.2997 50.2937 73.2997 50.2937C73.2997 50.2937 73.2997 50.2937 73.2998 50.2937C73.2998 50.2937 73.2998 50.2937 73.2998 50.2937C73.2999 50.2937 73.2999 50.2937 73.2999 50.2937C73.2999 50.2937 73.3 50.2937 73.3 50.2937C73.3 50.2937 73.3 50.2937 73.3001 50.2937C73.3001 50.2937 73.3001 50.2937 73.3001 50.2937C73.3002 50.2937 73.3002 50.2937 73.3002 50.2937C73.3002 50.2937 73.3003 50.2937 73.3003 50.2937C73.3003 50.2937 73.3003 50.2937 73.3003 50.2937C73.3004 50.2937 73.3004 50.2937 73.3004 50.2937C73.3004 50.2937 73.3005 50.2937 73.3005 50.2937C73.3005 50.2937 73.3005 50.2937 73.3006 50.2937C73.3006 50.2937 73.3006 50.2937 73.3006 50.2937C73.3007 50.2937 73.3007 50.2937 73.3007 50.2937C73.3007 50.2937 73.3008 50.2937 73.3008 50.2937C73.3008 50.2937 73.3008 50.2937 73.3008 50.2937C73.3009 50.2937 73.3009 50.2937 73.3009 50.2937C73.3009 50.2937 73.301 50.2937 73.301 50.2937C73.301 50.2937 73.301 50.2937 73.3011 50.2937C73.3011 50.2937 73.3011 50.2937 73.3011 50.2937C73.3011 50.2937 73.3012 50.2937 73.3012 50.2937C73.3012 50.2937 73.3012 50.2937 73.3013 50.2937C73.3013 50.2937 73.3013 50.2937 73.3013 50.2937C73.3014 50.2937 73.3014 50.2937 73.3014 50.2937C73.3014 50.2937 73.3014 50.2937 73.3015 50.2937C73.3015 50.2937 73.3015 50.2937 73.3015 50.2937C73.3016 50.2937 73.3016 50.2937 73.3016 50.2937C73.3016 50.2937 73.3016 50.2937 73.3017 50.2937C73.3017 50.2937 73.3017 50.2937 73.3017 50.2937C73.3018 50.2937 73.3018 50.2937 73.3018 50.2937C73.3018 50.2937 73.3018 50.2937 73.3019 50.2937C73.3019 50.2937 73.3019 50.2937 73.3019 50.2937C73.3019 50.2937 73.302 50.2937 73.302 50.2937C73.302 50.2937 73.302 50.2937 73.3021 50.2937C73.3021 50.2937 73.3021 50.2937 73.3021 50.2937C73.3021 50.2937 73.3022 50.2937 73.3022 50.2937C73.3022 50.2937 73.3022 50.2937 73.3022 50.2937C73.3023 50.2937 73.3023 50.2937 73.3023 50.2937C73.3023 50.2937 73.3023 50.2937 73.3024 50.2937C73.3024 50.2937 73.3024 50.2937 73.3024 50.2937C73.3025 50.2937 73.3025 50.2937 73.3025 50.2937C73.3025 50.2937 73.3025 50.2937 73.3026 50.2937C73.3026 50.2937 73.3026 50.2937 73.3026 50.2937C73.3026 50.2937 73.3027 50.2937 73.3027 50.2937C73.3027 50.2937 73.3027 50.2937 73.3027 50.2937C73.3027 50.2937 73.3028 50.2937 73.3028 50.2937C73.3028 50.2937 73.3028 50.2937 73.3028 50.2937C73.3029 50.2937 73.3029 50.2937 73.3029 50.2937C73.3029 50.2937 73.3029 50.2937 73.303 50.2937C73.303 50.2937 73.303 50.2937 73.303 50.2937C73.303 50.2937 73.3031 50.2937 73.3031 50.2937C73.3031 50.2937 73.3031 50.2937 73.3031 50.2937C73.3032 50.2937 73.3032 50.2937 73.3032 50.2937C73.3032 50.2937 73.3032 50.2937 73.3033 50.2937C73.3033 50.2937 73.3033 50.2937 73.3033 50.2937C73.3033 50.2937 73.3033 50.2937 73.3034 50.2937C73.3034 50.2937 73.3034 50.2937 73.3034 50.2937C73.3034 50.2937 73.3035 50.2937 73.3035 50.2937C73.3035 50.2937 73.3035 50.2937 73.3035 50.2937C73.3035 50.2937 73.3036 50.2937 73.3036 50.2937C73.3036 50.2937 73.3036 50.2937 73.3036 50.2937C73.3036 50.2937 73.3037 50.2937 73.3037 50.2937C73.3037 50.2937 73.3037 50.2937 73.3037 50.2937C73.3038 50.2937 73.3038 50.2937 73.3038 50.2937C73.3038 50.2937 73.3038 50.2937 73.3038 50.2937C73.3039 50.2937 73.3039 50.2937 73.3039 50.2937C73.3039 50.2937 73.3039 50.2937 73.3039 50.2937C73.304 50.2937 73.304 50.2937 73.304 50.2937C73.304 50.2937 73.304 50.2937 73.3041 50.2937C73.3041 50.2937 73.3041 50.2937 73.3041 50.2937C73.3041 50.2937 73.3041 50.2937 73.3042 50.2937C73.3042 50.2937 73.3042 50.2937 73.3042 50.2937C73.3042 50.2937 73.3042 50.2937 73.3043 50.2937C73.3043 50.2937 73.3043 50.2937 73.3043 50.2937C73.3043 50.2937 73.3043 50.2937 73.3044 50.2937C73.3044 50.2937 73.3044 50.2937 73.3044 50.2937C73.3044 50.2937 73.3044 50.2937 73.3044 50.2937C73.3045 50.2937 73.3045 50.2937 73.3045 50.2937C73.3045 50.2937 73.3045 50.2937 73.3045 50.2937C73.3046 50.2937 73.3046 50.2937 73.3046 50.2937C73.3046 50.2937 73.3046 50.2937 73.3046 50.2937C73.3046 50.2937 73.3047 50.2937 73.3047 50.2937C73.3047 50.2937 73.3047 50.2937 73.3047 50.2937C73.3047 50.2937 73.3048 50.2937 73.3048 50.2937C73.3048 50.2937 73.3048 50.2937 73.3048 50.2937C73.3048 50.2937 73.3048 50.2937 73.3049 50.2937C73.3049 50.2937 73.3049 50.2937 73.3049 50.2937C73.3049 50.2937 73.3049 50.2937 73.3049 50.2937C73.305 50.2937 73.305 50.2937 73.305 50.2937C73.305 50.2937 73.305 50.2937 73.305 50.2937C73.305 50.2937 73.3051 50.2937 73.3051 50.2937C73.3051 50.2937 73.3051 50.2937 73.3051 50.2937C73.3051 50.2937 73.3051 50.2937 73.3052 50.2937C73.3052 50.2937 73.3052 50.2937 73.3052 50.2937C73.3052 50.2937 73.3052 50.2937 73.3052 50.2937C73.3053 50.2937 73.3053 50.2937 73.3053 50.2937C73.3053 50.2937 73.3053 50.2937 73.3053 50.2937C73.3053 50.2937 73.3054 50.2937 73.3054 50.2937C73.3054 50.2937 73.3054 50.2937 73.3054 50.2937C73.3054 50.2937 73.3054 50.2937 73.3054 50.2937C73.3055 50.2937 73.3055 50.2937 73.3055 50.2937C73.3055 50.2937 73.3055 50.2937 73.3055 50.2937C73.3055 50.2937 73.3055 50.2937 73.3056 50.2937C73.3056 50.2937 73.3056 50.2937 73.3056 50.2937C73.3056 50.2937 73.3056 50.2937 73.3056 50.2937C73.3056 50.2937 73.3057 50.2937 73.3057 50.2937C73.3057 50.2937 73.3057 50.2937 73.3057 50.2937C73.3057 50.2937 73.3057 50.2937 73.3057 50.2937C73.3058 50.2937 73.3058 50.2937 73.3058 50.2937C73.3058 50.2937 73.3058 50.2937 73.3058 50.2937C73.3058 50.2937 73.3058 50.2937 73.3058 50.2937C73.3059 50.2937 73.3059 50.2937 73.3059 50.2937C73.3059 50.2937 73.3059 50.2937 73.3059 50.2937C73.3059 50.2937 73.3059 50.2937 73.306 50.2937C73.306 50.2937 73.306 50.2937 73.306 50.2937C73.306 50.2937 73.306 50.2937 73.306 50.2937C73.306 50.2937 73.306 50.2937 73.3061 50.2937C73.3061 50.2937 73.3061 50.2937 73.3061 50.2937C73.3061 50.2937 73.3061 50.2937 73.3061 50.2937C73.3061 50.2937 73.3061 50.2937 73.3061 50.2937C73.3062 50.2937 73.3062 50.2937 73.3062 50.2937C73.3062 50.2937 73.3062 50.2937 73.3062 50.2937C73.3062 50.2937 73.3062 50.2937 73.3062 50.2937C73.3063 50.2937 73.3063 50.2937 73.3063 50.2937C73.3063 50.2937 73.3063 50.2937 73.3063 50.2937C73.3063 50.2937 73.3063 50.2937 73.3063 50.2937C73.3063 50.2937 73.3064 50.2937 73.3064 50.2937C73.3064 50.2937 73.3064 50.2937 73.3064 50.2937C73.3064 50.2937 73.3064 50.2937 73.3064 50.2937C73.3064 50.2937 73.3064 50.2937 73.3064 50.2937C73.3064 50.2937 73.3065 50.2937 73.3065 50.2937C73.3065 50.2937 73.3065 50.2937 73.3065 50.2937C73.3065 50.2937 73.3065 50.2937 73.3065 50.2937C73.3065 50.2937 73.3065 50.2937 73.3065 50.2937C73.3066 50.2937 73.3066 50.2937 73.3066 50.2937C73.3066 50.2937 73.3066 50.2937 73.3066 50.2937C73.3066 50.2937 73.3066 50.2937 73.3066 50.2937C73.3066 50.2937 73.3066 50.2937 73.3067 50.2937C73.3067 50.2937 73.3067 50.2937 73.3067 50.2937C73.3067 50.2937 73.3067 50.2937 73.3067 50.2937C73.3067 50.2937 73.3067 50.2937 73.3067 50.2937C73.3067 50.2937 73.3067 50.2937 73.3068 50.2937C73.3068 50.2937 73.3068 50.2937 73.3068 50.2937C73.3068 50.2937 73.3068 50.2937 73.3068 50.2937C73.3068 50.2937 73.3068 50.2937 73.3068 50.2937C73.3068 50.2937 73.3068 50.2937 73.3068 50.2937C73.3068 50.2937 73.3069 50.2937 73.3069 50.2937C73.3069 50.2937 73.3069 50.2937 73.3069 50.2937C73.3069 50.2937 73.3069 50.2937 73.3069 50.2937C73.3069 50.2937 73.3069 50.2937 73.3069 50.2937C73.3069 50.2937 73.3069 50.2937 73.3069 50.2937C73.307 50.2937 73.307 50.2937 73.307 50.2937C73.307 50.2937 73.307 50.2937 73.307 50.2937C73.307 50.2937 73.307 50.2937 73.307 50.2937C73.307 50.2937 73.307 50.2937 73.307 50.2937C73.307 50.2937 73.307 50.2937 73.307 50.2937C73.3071 50.2937 73.3071 50.2937 73.3071 50.2937C73.3071 50.2937 73.3071 50.2937 73.3071 50.2937C73.3071 50.2937 73.3071 50.2937 73.3071 50.2937C73.3071 50.2937 73.3071 50.2937 73.3071 50.2937C73.3071 50.2937 73.3071 50.2937 73.3071 50.2937C73.3071 50.2937 73.3071 50.2937 73.3071 50.2937C73.3072 50.2937 73.3072 50.2937 73.3072 50.2937C73.3072 50.2937 73.3072 50.2937 73.3072 50.2937C73.3072 50.2937 73.3072 50.2937 73.3072 50.2937C73.3072 50.2937 73.3072 50.2937 73.3072 50.2937C73.3072 50.2937 73.3072 50.2937 73.3072 50.2937C73.3072 50.2937 73.3072 50.2937 73.3072 50.2937C73.3072 50.2937 73.3072 50.2937 73.3073 50.2937H73.3073C73.3073 50.2937 73.3073 50.2937 73.3073 50.2937C73.3073 50.2937 73.3073 50.2937 73.3073 50.2937H73.3073C73.3073 50.2937 73.3073 50.2937 73.3073 50.2937H73.3073C73.3073 50.2937 73.3073 50.2937 73.3073 50.2937H73.3073C73.3074 50.2937 73.3074 50.2937 73.3074 50.2937C73.3074 50.2937 73.3074 50.2937 73.3074 50.2937H73.3074H73.3074C73.3074 50.2937 73.3074 50.2937 73.3074 50.2937C73.3074 50.2937 73.3074 50.2937 73.3074 50.2937C73.3074 50.2937 73.3074 50.2937 73.3074 50.2937C73.3074 50.2937 73.3074 50.2937 73.3074 50.2937C73.3074 50.2937 73.3074 50.2937 73.3074 50.2937C73.3074 50.2937 73.3074 50.2937 73.3074 50.2937C73.3074 50.2937 73.3074 50.2937 73.3074 50.2937H73.3074C73.3074 50.2937 73.3074 50.2937 73.3075 50.2937H73.3075C73.3075 50.2937 73.3075 50.2937 73.3075 50.2937H73.3075C73.3075 50.2937 73.3075 50.2937 73.3075 50.2937C73.3075 50.2937 73.3075 50.2937 73.3075 49.7937C73.3075 49.2937 73.3075 49.2937 73.3075 49.2937C73.3075 49.2937 73.3075 49.2937 73.3075 49.2937H73.3075C73.3075 49.2937 73.3075 49.2937 73.3075 49.2937H73.3075C73.3074 49.2937 73.3074 49.2937 73.3074 49.2937H73.3074C73.3074 49.2937 73.3074 49.2937 73.3074 49.2937C73.3074 49.2937 73.3074 49.2937 73.3074 49.2937C73.3074 49.2937 73.3074 49.2937 73.3074 49.2937C73.3074 49.2937 73.3074 49.2937 73.3074 49.2937C73.3074 49.2937 73.3074 49.2937 73.3074 49.2937C73.3074 49.2937 73.3074 49.2937 73.3074 49.2937C73.3074 49.2937 73.3074 49.2937 73.3074 49.2937H73.3074H73.3074C73.3074 49.2937 73.3074 49.2937 73.3074 49.2937C73.3074 49.2937 73.3074 49.2937 73.3073 49.2937H73.3073C73.3073 49.2937 73.3073 49.2937 73.3073 49.2937H73.3073C73.3073 49.2937 73.3073 49.2937 73.3073 49.2937H73.3073C73.3073 49.2937 73.3073 49.2937 73.3073 49.2937C73.3073 49.2937 73.3073 49.2937 73.3073 49.2937H73.3073C73.3072 49.2937 73.3072 49.2937 73.3072 49.2937C73.3072 49.2937 73.3072 49.2937 73.3072 49.2937C73.3072 49.2937 73.3072 49.2937 73.3072 49.2937C73.3072 49.2937 73.3072 49.2937 73.3072 49.2937C73.3072 49.2937 73.3072 49.2937 73.3072 49.2937C73.3072 49.2937 73.3072 49.2937 73.3072 49.2937C73.3072 49.2937 73.3072 49.2937 73.3071 49.2937C73.3071 49.2937 73.3071 49.2937 73.3071 49.2937C73.3071 49.2937 73.3071 49.2937 73.3071 49.2937C73.3071 49.2937 73.3071 49.2937 73.3071 49.2937C73.3071 49.2937 73.3071 49.2937 73.3071 49.2937C73.3071 49.2937 73.3071 49.2937 73.3071 49.2937C73.3071 49.2937 73.3071 49.2937 73.307 49.2937C73.307 49.2937 73.307 49.2937 73.307 49.2937C73.307 49.2937 73.307 49.2937 73.307 49.2937C73.307 49.2937 73.307 49.2937 73.307 49.2937C73.307 49.2937 73.307 49.2937 73.307 49.2937C73.307 49.2937 73.307 49.2937 73.3069 49.2937C73.3069 49.2937 73.3069 49.2937 73.3069 49.2937C73.3069 49.2937 73.3069 49.2937 73.3069 49.2937C73.3069 49.2937 73.3069 49.2937 73.3069 49.2937C73.3069 49.2937 73.3069 49.2937 73.3069 49.2937C73.3069 49.2937 73.3068 49.2937 73.3068 49.2937C73.3068 49.2937 73.3068 49.2937 73.3068 49.2937C73.3068 49.2937 73.3068 49.2937 73.3068 49.2937C73.3068 49.2937 73.3068 49.2937 73.3068 49.2937C73.3068 49.2937 73.3068 49.2937 73.3068 49.2937C73.3067 49.2937 73.3067 49.2937 73.3067 49.2937C73.3067 49.2937 73.3067 49.2937 73.3067 49.2937C73.3067 49.2937 73.3067 49.2937 73.3067 49.2937C73.3067 49.2937 73.3067 49.2937 73.3067 49.2937C73.3066 49.2937 73.3066 49.2937 73.3066 49.2937C73.3066 49.2937 73.3066 49.2937 73.3066 49.2937C73.3066 49.2937 73.3066 49.2937 73.3066 49.2937C73.3066 49.2937 73.3066 49.2937 73.3065 49.2937C73.3065 49.2937 73.3065 49.2937 73.3065 49.2937C73.3065 49.2937 73.3065 49.2937 73.3065 49.2937C73.3065 49.2937 73.3065 49.2937 73.3065 49.2937C73.3065 49.2937 73.3064 49.2937 73.3064 49.2937C73.3064 49.2937 73.3064 49.2937 73.3064 49.2937C73.3064 49.2937 73.3064 49.2937 73.3064 49.2937C73.3064 49.2937 73.3064 49.2937 73.3064 49.2937C73.3064 49.2937 73.3063 49.2937 73.3063 49.2937C73.3063 49.2937 73.3063 49.2937 73.3063 49.2937C73.3063 49.2937 73.3063 49.2937 73.3063 49.2937C73.3063 49.2937 73.3063 49.2937 73.3062 49.2937C73.3062 49.2937 73.3062 49.2937 73.3062 49.2937C73.3062 49.2937 73.3062 49.2937 73.3062 49.2937C73.3062 49.2937 73.3062 49.2937 73.3061 49.2937C73.3061 49.2937 73.3061 49.2937 73.3061 49.2937C73.3061 49.2937 73.3061 49.2937 73.3061 49.2937C73.3061 49.2937 73.3061 49.2937 73.3061 49.2937C73.306 49.2937 73.306 49.2937 73.306 49.2937C73.306 49.2937 73.306 49.2937 73.306 49.2937C73.306 49.2937 73.306 49.2937 73.306 49.2937C73.3059 49.2937 73.3059 49.2937 73.3059 49.2937C73.3059 49.2937 73.3059 49.2937 73.3059 49.2937C73.3059 49.2937 73.3059 49.2937 73.3058 49.2937C73.3058 49.2937 73.3058 49.2937 73.3058 49.2937C73.3058 49.2937 73.3058 49.2937 73.3058 49.2937C73.3058 49.2937 73.3058 49.2937 73.3057 49.2937C73.3057 49.2937 73.3057 49.2937 73.3057 49.2937C73.3057 49.2937 73.3057 49.2937 73.3057 49.2937C73.3057 49.2937 73.3056 49.2937 73.3056 49.2937C73.3056 49.2937 73.3056 49.2937 73.3056 49.2937C73.3056 49.2937 73.3056 49.2937 73.3056 49.2937C73.3055 49.2937 73.3055 49.2937 73.3055 49.2937C73.3055 49.2937 73.3055 49.2937 73.3055 49.2937C73.3055 49.2937 73.3055 49.2937 73.3054 49.2937C73.3054 49.2937 73.3054 49.2937 73.3054 49.2937C73.3054 49.2937 73.3054 49.2937 73.3054 49.2937C73.3054 49.2937 73.3053 49.2937 73.3053 49.2937C73.3053 49.2937 73.3053 49.2937 73.3053 49.2937C73.3053 49.2937 73.3053 49.2937 73.3052 49.2937C73.3052 49.2937 73.3052 49.2937 73.3052 49.2937C73.3052 49.2937 73.3052 49.2937 73.3052 49.2937C73.3051 49.2937 73.3051 49.2937 73.3051 49.2937C73.3051 49.2937 73.3051 49.2937 73.3051 49.2937C73.3051 49.2937 73.305 49.2937 73.305 49.2937C73.305 49.2937 73.305 49.2937 73.305 49.2937C73.305 49.2937 73.305 49.2937 73.3049 49.2937C73.3049 49.2937 73.3049 49.2937 73.3049 49.2937C73.3049 49.2937 73.3049 49.2937 73.3049 49.2937C73.3048 49.2937 73.3048 49.2937 73.3048 49.2937C73.3048 49.2937 73.3048 49.2937 73.3048 49.2937C73.3048 49.2937 73.3047 49.2937 73.3047 49.2937C73.3047 49.2937 73.3047 49.2937 73.3047 49.2937C73.3047 49.2937 73.3046 49.2937 73.3046 49.2937C73.3046 49.2937 73.3046 49.2937 73.3046 49.2937C73.3046 49.2937 73.3046 49.2937 73.3045 49.2937C73.3045 49.2937 73.3045 49.2937 73.3045 49.2937C73.3045 49.2937 73.3045 49.2937 73.3044 49.2937C73.3044 49.2937 73.3044 49.2937 73.3044 49.2937C73.3044 49.2937 73.3044 49.2937 73.3044 49.2937C73.3043 49.2937 73.3043 49.2937 73.3043 49.2937C73.3043 49.2937 73.3043 49.2937 73.3043 49.2937C73.3042 49.2937 73.3042 49.2937 73.3042 49.2937C73.3042 49.2937 73.3042 49.2937 73.3042 49.2937C73.3041 49.2937 73.3041 49.2937 73.3041 49.2937C73.3041 49.2937 73.3041 49.2937 73.3041 49.2937C73.304 49.2937 73.304 49.2937 73.304 49.2937C73.304 49.2937 73.304 49.2937 73.3039 49.2937C73.3039 49.2937 73.3039 49.2937 73.3039 49.2937C73.3039 49.2937 73.3039 49.2937 73.3038 49.2937C73.3038 49.2937 73.3038 49.2937 73.3038 49.2937C73.3038 49.2937 73.3038 49.2937 73.3037 49.2937C73.3037 49.2937 73.3037 49.2937 73.3037 49.2937C73.3037 49.2937 73.3036 49.2937 73.3036 49.2937C73.3036 49.2937 73.3036 49.2937 73.3036 49.2937C73.3036 49.2937 73.3035 49.2937 73.3035 49.2937C73.3035 49.2937 73.3035 49.2937 73.3035 49.2937C73.3035 49.2937 73.3034 49.2937 73.3034 49.2937C73.3034 49.2937 73.3034 49.2937 73.3034 49.2937C73.3033 49.2937 73.3033 49.2937 73.3033 49.2937C73.3033 49.2937 73.3033 49.2937 73.3033 49.2937C73.3032 49.2937 73.3032 49.2937 73.3032 49.2937C73.3032 49.2937 73.3032 49.2937 73.3031 49.2937C73.3031 49.2937 73.3031 49.2937 73.3031 49.2937C73.3031 49.2937 73.303 49.2937 73.303 49.2937C73.303 49.2937 73.303 49.2937 73.303 49.2937C73.3029 49.2937 73.3029 49.2937 73.3029 49.2937C73.3029 49.2937 73.3029 49.2937 73.3028 49.2937C73.3028 49.2937 73.3028 49.2937 73.3028 49.2937C73.3028 49.2937 73.3027 49.2937 73.3027 49.2937C73.3027 49.2937 73.3027 49.2937 73.3027 49.2937C73.3027 49.2937 73.3026 49.2937 73.3026 49.2937C73.3026 49.2937 73.3026 49.2937 73.3026 49.2937C73.3025 49.2937 73.3025 49.2937 73.3025 49.2937C73.3025 49.2937 73.3025 49.2937 73.3024 49.2937C73.3024 49.2937 73.3024 49.2937 73.3024 49.2937C73.3023 49.2937 73.3023 49.2937 73.3023 49.2937C73.3023 49.2937 73.3023 49.2937 73.3022 49.2937C73.3022 49.2937 73.3022 49.2937 73.3022 49.2937C73.3022 49.2937 73.3021 49.2937 73.3021 49.2937C73.3021 49.2937 73.3021 49.2937 73.3021 49.2937C73.302 49.2937 73.302 49.2937 73.302 49.2937C73.302 49.2937 73.3019 49.2937 73.3019 49.2937C73.3019 49.2937 73.3019 49.2937 73.3019 49.2937C73.3018 49.2937 73.3018 49.2937 73.3018 49.2937C73.3018 49.2937 73.3018 49.2937 73.3017 49.2937C73.3017 49.2937 73.3017 49.2937 73.3017 49.2937C73.3016 49.2937 73.3016 49.2937 73.3016 49.2937C73.3016 49.2937 73.3016 49.2937 73.3015 49.2937C73.3015 49.2937 73.3015 49.2937 73.3015 49.2937C73.3014 49.2937 73.3014 49.2937 73.3014 49.2937C73.3014 49.2937 73.3014 49.2937 73.3013 49.2937C73.3013 49.2937 73.3013 49.2937 73.3013 49.2937C73.3012 49.2937 73.3012 49.2937 73.3012 49.2937C73.3012 49.2937 73.3011 49.2937 73.3011 49.2937C73.3011 49.2937 73.3011 49.2937 73.3011 49.2937C73.301 49.2937 73.301 49.2937 73.301 49.2937C73.301 49.2937 73.3009 49.2937 73.3009 49.2937C73.3009 49.2937 73.3009 49.2937 73.3008 49.2937C73.3008 49.2937 73.3008 49.2937 73.3008 49.2937C73.3008 49.2937 73.3007 49.2937 73.3007 49.2937C73.3007 49.2937 73.3007 49.2937 73.3006 49.2937C73.3006 49.2937 73.3006 49.2937 73.3006 49.2937C73.3005 49.2937 73.3005 49.2937 73.3005 49.2937C73.3005 49.2937 73.3004 49.2937 73.3004 49.2937C73.3004 49.2937 73.3004 49.2937 73.3003 49.2937C73.3003 49.2937 73.3003 49.2937 73.3003 49.2937C73.3003 49.2937 73.3002 49.2937 73.3002 49.2937C73.3002 49.2937 73.3002 49.2937 73.3001 49.2937C73.3001 49.2937 73.3001 49.2937 73.3001 49.2937C73.3 49.2937 73.3 49.2937 73.3 49.2937C73.3 49.2937 73.2999 49.2937 73.2999 49.2937C73.2999 49.2937 73.2999 49.2937 73.2998 49.2937C73.2998 49.2937 73.2998 49.2937 73.2998 49.2937C73.2997 49.2937 73.2997 49.2937 73.2997 49.2937C73.2997 49.2937 73.2996 49.2937 73.2996 49.2937C73.2996 49.2937 73.2996 49.2937 73.2995 49.2937C73.2995 49.2937 73.2995 49.2937 73.2994 49.2937C73.2994 49.2937 73.2994 49.2937 73.2994 49.2937C73.2993 49.2937 73.2993 49.2937 73.2993 49.2937C73.2993 49.2937 73.2992 49.2937 73.2992 49.2937C73.2992 49.2937 73.2992 49.2937 73.2991 49.2937C73.2991 49.2937 73.2991 49.2937 73.2991 49.2937C73.299 49.2937 73.299 49.2937 73.299 49.2937C73.299 49.2937 73.2989 49.2937 73.2989 49.2937C73.2989 49.2937 73.2988 49.2937 73.2988 49.2937C73.2988 49.2937 73.2988 49.2937 73.2987 49.2937C73.2987 49.2937 73.2987 49.2937 73.2987 49.2937C73.2986 49.2937 73.2986 49.2937 73.2986 49.2937C73.2985 49.2937 73.2985 49.2937 73.2985 49.2937C73.2985 49.2937 73.2984 49.2937 73.2984 49.2937C73.2984 49.2937 73.2984 49.2937 73.2983 49.2937C73.2983 49.2937 73.2983 49.2937 73.2982 49.2937C73.2982 49.2937 73.2982 49.2937 73.2982 49.2937C73.2981 49.2937 73.2981 49.2937 73.2981 49.2937C73.298 49.2937 73.298 49.2937 73.298 49.2937C73.298 49.2937 73.2979 49.2937 73.2979 49.2937C73.2979 49.2937 73.2979 49.2937 73.2978 49.2937C73.2978 49.2937 73.2978 49.2937 73.2977 49.2937C73.2977 49.2937 73.2977 49.2937 73.2977 49.2937C73.2976 49.2937 73.2976 49.2937 73.2976 49.2937C73.2975 49.2937 73.2975 49.2937 73.2975 49.2937C73.2975 49.2937 73.2974 49.2937 73.2974 49.2937C73.2974 49.2937 73.2973 49.2937 73.2973 49.2937C73.2973 49.2937 73.2973 49.2937 73.2972 49.2937C73.2972 49.2937 73.2972 49.2937 73.2971 49.2937C73.2971 49.2937 73.2971 49.2937 73.2971 49.2937C73.297 49.2937 73.297 49.2937 73.297 49.2937C73.2969 49.2937 73.2969 49.2937 73.2969 49.2937C73.2968 49.2937 73.2968 49.2937 73.2968 49.2937C73.2968 49.2937 73.2967 49.2937 73.2967 49.2937C73.2967 49.2937 73.2966 49.2937 73.2966 49.2937C73.2966 49.2937 73.2965 49.2937 73.2965 49.2937C73.2965 49.2937 73.2965 49.2937 73.2964 49.2937C73.2964 49.2937 73.2964 49.2937 73.2963 49.2937C73.2963 49.2937 73.2963 49.2937 73.2962 49.2937C73.2962 49.2937 73.2962 49.2937 73.2962 49.2937C73.2961 49.2937 73.2961 49.2937 73.2961 49.2937C73.296 49.2937 73.296 49.2937 73.296 49.2937C73.2959 49.2937 73.2959 49.2937 73.2959 49.2937C73.2958 49.2937 73.2958 49.2937 73.2958 49.2937C73.2957 49.2937 73.2957 49.2937 73.2957 49.2937C73.2957 49.2937 73.2956 49.2937 73.2956 49.2937C73.2956 49.2937 73.2955 49.2937 73.2955 49.2937C73.2955 49.2937 73.2954 49.2937 73.2954 49.2937C73.2954 49.2937 73.2953 49.2937 73.2953 49.2937V50.2937ZM57.458 37.7268C54.1796 37.7268 50.9332 37.7917 47.6781 37.6945L47.6482 38.6941C50.923 38.7919 54.2064 38.7268 57.458 38.7268V37.7268ZM47.6772 37.6945C45.8249 37.6426 44.29 38.1338 42.858 39.3389L43.5019 40.104C44.7339 39.0672 46.0253 38.6486 47.6491 38.6941L47.6772 37.6945ZM42.8569 39.3398C38.3105 43.1886 33.7027 46.9693 29.1179 50.7905L29.7581 51.5587C34.3346 47.7444 38.9532 43.9547 43.5031 40.103L42.8569 39.3398ZM29.1163 50.7919C27.5489 52.1093 26.2349 53.2855 24.2383 53.0974L24.1445 54.093C26.6311 54.3273 28.2733 52.8067 29.7597 51.5574L29.1163 50.7919ZM24.2336 53.097C23.7423 53.0553 23.1521 53.0882 22.7837 53.4989C22.3967 53.9303 22.4474 54.5483 22.643 55.1607L23.5956 54.8564C23.4176 54.2992 23.5252 54.1699 23.5281 54.1667C23.5495 54.1428 23.6822 54.0538 24.1492 54.0934L24.2336 53.097ZM22.6445 55.1651C23.121 56.6107 23.399 58.0533 23.0852 59.5176L24.0631 59.7271C24.4315 58.0072 24.0923 56.3631 23.5942 54.852L22.6445 55.1651ZM23.085 59.5186C22.9552 60.1308 23.0034 60.7228 23.3703 61.1643C23.7345 61.6027 24.3057 61.7631 24.9223 61.7631V60.7631C24.4506 60.7631 24.2341 60.6392 24.1394 60.5253C24.0474 60.4145 23.9657 60.1861 24.0633 59.7261L23.085 59.5186ZM24.9209 61.7631C30.6071 61.7794 36.2933 61.7794 41.9632 61.7631L41.9603 60.7631C36.2923 60.7794 30.608 60.7794 24.9238 60.7631L24.9209 61.7631ZM41.9617 61.7631C42.1882 61.7631 42.5582 61.7634 42.8752 61.5999C43.2582 61.4023 43.467 61.0308 43.5002 60.5328L42.5024 60.4663C42.4939 60.5939 42.4679 60.653 42.4548 60.6756C42.4448 60.6929 42.4355 60.7015 42.4167 60.7111C42.3912 60.7243 42.3442 60.7401 42.2613 60.7504C42.1778 60.7608 42.0817 60.7631 41.9617 60.7631V61.7631ZM43.5005 60.5271C43.559 59.4652 43.0298 58.3763 42.2798 57.5666C41.5286 56.7557 40.4741 56.1363 39.3716 56.117L39.354 57.1168C40.1032 57.1299 40.9167 57.5665 41.5462 58.2462C42.1768 58.927 42.5411 59.7632 42.5021 60.4721L43.5005 60.5271ZM39.3742 56.117C38.3058 56.0925 37.2381 56.0844 36.1748 56.0763C35.1102 56.0682 34.0501 56.0601 32.9906 56.0358L32.9677 57.0355C34.0361 57.06 35.1038 57.0681 36.1671 57.0763C37.2317 57.0844 38.2918 57.0925 39.3513 57.1167L39.3742 56.117ZM32.993 56.0359C32.7495 56.0291 32.554 55.978 32.4296 55.8988C32.3296 55.8351 32.2564 55.7449 32.2434 55.5586L31.2458 55.6282C31.2816 56.1405 31.5332 56.5133 31.8921 56.7421C32.2266 56.9552 32.6239 57.026 32.9652 57.0355L32.993 56.0359ZM32.2431 55.5551C32.2227 55.289 32.3057 55.1942 32.3879 55.1357C32.5111 55.0479 32.7286 54.9865 33.0354 54.9719L32.9878 53.973C32.6124 53.9909 32.1639 54.0676 31.8079 54.321C31.4109 54.6037 31.2016 55.0531 31.2461 55.6318L32.2431 55.5551ZM33.0297 54.9721C34.3673 54.9238 35.7065 54.9237 37.0562 54.9237V53.9237C35.7095 53.9237 34.3523 53.9237 32.9935 53.9728L33.0297 54.9721ZM37.0562 54.9237C37.9919 54.9237 38.7315 54.9234 39.3124 54.8612C39.8991 54.7985 40.392 54.6673 40.8015 54.3574C41.2096 54.0486 41.4736 53.6085 41.7023 53.0606C41.9293 52.5168 42.1466 51.8019 42.4235 50.8988L41.4674 50.6056C41.184 51.5302 40.983 52.188 40.7795 52.6753C40.5778 53.1585 40.3992 53.4078 40.1981 53.56C39.9984 53.7111 39.7158 53.8124 39.206 53.8669C38.6905 53.9221 38.0129 53.9237 37.0562 53.9237V54.9237ZM42.4238 50.898C43.2659 48.1351 44.6726 46.1031 46.5385 44.6686C48.4088 43.2307 50.7717 42.3696 53.5595 42.0042L53.4296 41.0127C50.5159 41.3946 47.9733 42.3042 45.929 43.8758C43.8802 45.4509 42.3631 47.6671 41.4672 50.6064L42.4238 50.898ZM53.5591 42.0043C55.5454 41.7455 57.8124 42.3073 59.8763 43.4711C61.9372 44.6332 63.7525 46.372 64.847 48.4061L65.7276 47.9322C64.5318 45.71 62.5704 43.8422 60.3675 42.6C58.1674 41.3594 55.6832 40.7191 53.4299 41.0126L53.5591 42.0043ZM64.8466 48.4053C66.7001 51.8635 66.6941 55.4297 65.2913 59.1028L66.2255 59.4596C67.714 55.5622 67.7405 51.6878 65.728 47.933L64.8466 48.4053ZM65.2917 59.1017C65.2487 59.2135 65.1747 59.3375 65.0664 59.5244C64.9712 59.6886 64.846 59.9078 64.7761 60.1401C64.7023 60.385 64.6746 60.6941 64.834 61.004C64.9868 61.301 65.2679 61.512 65.6173 61.67L66.0293 60.7588C65.7859 60.6487 65.7319 60.5633 65.7233 60.5465C65.7213 60.5426 65.7058 60.5208 65.7336 60.4285C65.7651 60.3238 65.8308 60.1997 65.9316 60.0258C66.0192 59.8746 66.1462 59.6656 66.2251 59.4606L65.2917 59.1017ZM65.6162 61.6695C68.4353 62.9527 71.5138 61.255 71.5699 58.1693L70.57 58.1511C70.5287 60.4266 68.2792 61.7829 66.0305 60.7593L65.6162 61.6695ZM71.5699 58.166C71.6349 52.5574 71.6349 46.9326 71.5699 41.324L70.57 41.3355C70.6349 46.9364 70.6349 52.5536 70.57 58.1544L71.5699 58.166ZM71.57 41.3262C71.5615 40.1495 71.3424 39.2181 70.689 38.599C70.0438 37.9876 69.0896 37.7922 67.9096 37.7756L67.8955 38.7755C69.022 38.7914 69.6434 38.9859 70.0012 39.3249C70.3509 39.6562 70.5621 40.2356 70.57 41.3333L71.57 41.3262ZM67.9119 37.7757C64.4317 37.7106 60.9427 37.743 57.4603 37.7268L57.4556 38.7268C60.9579 38.7431 64.4212 38.7106 67.8932 38.7755L67.9119 37.7757ZM33.861 44.6541C35.6338 43.9551 36.7783 42.975 37.4233 41.7256C38.0623 40.4881 38.1757 39.0539 38.0249 37.5121L37.0296 37.6094C37.1712 39.0568 37.0491 40.2706 36.5348 41.2669C36.0266 42.2512 35.1 43.0907 33.4942 43.7238L33.861 44.6541ZM38.0251 37.5141C37.972 36.9481 37.8939 36.3776 37.9868 35.9199C38.0302 35.7062 38.1031 35.5678 38.1951 35.4798C38.2807 35.3978 38.4304 35.3137 38.7231 35.2983L38.6705 34.2997C38.1917 34.3249 37.7971 34.4764 37.5036 34.7574C37.2164 35.0324 37.0751 35.3844 37.0068 35.721C36.8763 36.3639 36.985 37.1337 37.0294 37.6074L38.0251 37.5141ZM38.7262 35.2981C38.9766 35.2834 39.0423 35.3461 39.0588 35.3628C39.0936 35.3982 39.1428 35.4851 39.1721 35.6948C39.2014 35.9036 39.2005 36.1384 39.2065 36.4291C39.212 36.6942 39.2233 37.0167 39.3033 37.3046L40.2668 37.037C40.225 36.8863 40.212 36.6829 40.2063 36.4084C40.2011 36.1594 40.2023 35.8408 40.1625 35.5562C40.1228 35.2724 40.0319 34.9258 39.7713 34.6612C39.4924 34.3778 39.1073 34.274 38.6674 34.2999L38.7262 35.2981ZM39.3052 37.3113C39.3414 37.4351 39.3589 37.5811 39.391 37.7972C39.4188 37.9843 39.4596 38.2376 39.5612 38.4617C39.6723 38.7069 39.8733 38.9533 40.222 39.0539C40.5388 39.1454 40.8937 39.0904 41.2676 38.9581L40.9341 38.0154C40.642 38.1187 40.5238 38.1002 40.4994 38.0932C40.4948 38.0918 40.4942 38.0911 40.4958 38.0921C40.4975 38.0931 40.4987 38.0941 40.4986 38.0941C40.4983 38.0937 40.4875 38.0832 40.472 38.0488C40.4355 37.9683 40.4092 37.8459 40.3802 37.6502C40.3554 37.4835 40.3262 37.2396 40.2649 37.0304L39.3052 37.3113ZM41.2717 38.9566C43.3729 38.1925 44.2926 35.8081 43.9352 33.2039L42.9445 33.3399C43.2693 35.7068 42.4023 37.4814 40.9299 38.0169L41.2717 38.9566ZM43.9352 33.204C43.7782 32.0583 43.2563 31.3475 42.4935 30.9583C41.7799 30.5942 40.9157 30.5463 40.1424 30.5463V31.5463C40.9123 31.5463 41.5587 31.6039 42.039 31.849C42.4702 32.069 42.8254 32.4711 42.9445 33.3398L43.9352 33.204ZM40.1455 30.5463C34.8806 30.5138 29.6157 30.5138 24.3507 30.5463L24.3569 31.5462C29.6177 31.5138 34.8785 31.5138 40.1393 31.5462L40.1455 30.5463ZM24.3505 30.5463C23.1229 30.5543 22.1636 30.6965 21.554 31.3116C20.9445 31.9268 20.8163 32.8823 20.8163 34.0842H21.8163C21.8163 32.8655 21.9724 32.3102 22.2643 32.0155C22.5562 31.721 23.1157 31.5544 24.3571 31.5462L24.3505 30.5463ZM20.8163 34.0808C20.8 36.5039 20.8041 38.9225 20.8082 41.3387C20.8123 43.7556 20.8163 46.17 20.8001 48.5882L21.8001 48.5949C21.8163 46.1719 21.8123 43.7532 21.8082 41.337C21.8041 38.9201 21.8001 36.5057 21.8163 34.0875L20.8163 34.0808ZM20.8001 48.5859C20.7921 49.2963 20.8249 50.0642 21.196 50.6425C21.6077 51.284 22.3321 51.5624 23.3554 51.5446L23.338 50.5447C22.4934 50.5594 22.1863 50.3342 22.0376 50.1024C21.8484 49.8075 21.7918 49.3326 21.8 48.5972L20.8001 48.5859ZM23.3602 51.5444C24.3683 51.5172 25.0349 51.1853 25.3824 50.5294C25.6856 49.9572 25.6822 49.2219 25.6822 48.6078H24.6822C24.6822 49.2933 24.6626 49.7521 24.4988 50.0612C24.3793 50.2867 24.1281 50.5233 23.3332 50.5448L23.3602 51.5444ZM25.6822 48.6057C25.666 44.6918 25.666 40.7788 25.6985 36.8826L24.6985 36.8743C24.666 40.7759 24.666 44.6933 24.6822 48.6099L25.6822 48.6057ZM25.6985 36.8784C25.6985 36.3989 25.7046 35.9687 25.8216 35.6531C25.875 35.509 25.9417 35.4194 26.0178 35.3628C26.0913 35.3081 26.2149 35.2532 26.4395 35.2502L26.4264 34.2503C26.0338 34.2555 25.6945 34.3569 25.4207 34.5606C25.1496 34.7624 24.9849 35.0333 24.884 35.3055C24.6924 35.8224 24.6985 36.4482 24.6985 36.8784H25.6985ZM26.4394 35.2502C26.6742 35.2472 26.7967 35.3008 26.8648 35.3502C26.935 35.401 26.9978 35.4838 27.0485 35.6254C27.1619 35.9425 27.1587 36.3659 27.1676 36.855L28.1674 36.8368C28.16 36.4325 28.173 35.7999 27.99 35.2885C27.8924 35.0158 27.7289 34.7412 27.4513 34.5402C27.1718 34.3378 26.8253 34.2452 26.4266 34.2503L26.4394 35.2502ZM27.1675 36.8511C27.1997 39.9623 27.1514 43.1143 27.2163 46.2463L28.2161 46.2256C28.1511 43.0867 28.2002 40.0003 28.1675 36.8408L27.1675 36.8511ZM27.2163 46.2453C27.2196 46.422 27.1968 46.6383 27.1674 46.9051C27.1398 47.1563 27.1066 47.4501 27.1066 47.7265C27.1066 47.9967 27.1367 48.3155 27.2813 48.5949C27.4425 48.9064 27.723 49.1243 28.1119 49.1968L28.2952 48.2137C28.2049 48.1969 28.1869 48.169 28.1694 48.1353C28.1353 48.0695 28.1066 47.9436 28.1066 47.7264C28.1066 47.5155 28.1323 47.2792 28.1614 47.0146C28.1889 46.7656 28.2209 46.4804 28.2161 46.2265L27.2163 46.2453ZM28.1106 49.1965C28.9214 49.35 29.6068 49.0019 30.1235 48.5272C30.6361 48.0563 31.0344 47.4185 31.316 46.8467L30.4189 46.4049C30.1645 46.9216 29.8318 47.4373 29.447 47.7908C29.0663 48.1405 28.6877 48.288 28.2965 48.214L28.1106 49.1965ZM31.3147 46.8494C31.5194 46.4398 31.5955 45.9831 31.6279 45.5615C31.6597 45.1477 31.6522 44.6987 31.6597 44.3458L30.6599 44.3245C30.6512 44.7352 30.6599 45.1066 30.6308 45.4848C30.6023 45.8552 30.5403 46.162 30.4202 46.4022L31.3147 46.8494ZM31.6597 44.3444C31.709 41.6838 31.6757 39.0911 31.757 36.4552L30.7575 36.4244C30.6764 39.052 30.7081 41.7229 30.6599 44.3259L31.6597 44.3444ZM31.7569 36.459C31.772 36.0667 31.8439 35.7051 31.9897 35.4638C32.0581 35.3507 32.1367 35.2741 32.2265 35.2254C32.3152 35.1773 32.4445 35.1404 32.6411 35.1519L32.6999 34.1537C32.3443 34.1327 32.0248 34.1973 31.75 34.3462C31.4764 34.4945 31.2768 34.7103 31.134 34.9464C30.8575 35.4038 30.775 35.9682 30.7576 36.4206L31.7569 36.459ZM32.6388 35.1518C32.8112 35.1627 32.8985 35.2087 32.9467 35.2474C32.9975 35.2882 33.046 35.354 33.0859 35.468C33.1756 35.7238 33.1776 36.0701 33.1776 36.4885H34.1776C34.1776 36.1272 34.1877 35.5881 34.0296 35.1372C33.9457 34.8978 33.8064 34.655 33.5724 34.4674C33.3359 34.2776 33.0414 34.1753 32.7022 34.1538L32.6388 35.1518ZM33.1776 36.4918C33.1938 38.9917 33.1776 41.4714 33.1776 44.189H34.1776C34.1776 41.4805 34.1938 38.989 34.1776 36.4853L33.1776 36.4918ZM43.3957 54.1159C43.0012 60.3423 48.4729 65.1408 54.1251 65.1747L54.1311 64.1747C48.9651 64.1437 44.0409 59.7472 44.3937 54.1792L43.3957 54.1159ZM54.1267 65.1747C60.1971 65.1918 64.9101 60.3589 64.9101 54.18H63.9101C63.9101 59.828 59.6244 64.1902 54.1295 64.1747L54.1267 65.1747ZM64.9101 54.18C64.9101 48.0961 60.2602 43.3486 54.2594 43.3316L54.2566 44.3316C59.6912 44.347 63.9101 48.6321 63.9101 54.18H64.9101ZM54.2607 43.3316C48.0858 43.2975 43.4117 47.958 43.3947 54.1462L44.3947 54.1489C44.4102 48.5103 48.6374 44.3006 54.2552 44.3316L54.2607 43.3316ZM8.40634 58.172C8.37153 62.0714 11.2746 65.1409 15.0765 65.1585L15.0811 64.1585C11.8658 64.1436 9.37614 61.5596 9.4063 58.1809L8.40634 58.172ZM15.0788 65.1585C18.7025 65.1585 21.971 61.9308 22.076 58.2557L21.0764 58.2272C20.9865 61.3753 18.1474 64.1585 15.0788 64.1585V65.1585ZM22.076 58.2565C22.1298 56.4706 21.2794 54.7656 19.9887 53.518C18.6969 52.2693 16.9237 51.4381 15.0626 51.4381V52.4381C16.6287 52.4381 18.1611 53.1422 19.2937 54.237C20.4274 55.3328 21.12 56.7794 21.0764 58.2264L22.076 58.2565ZM15.0602 51.4382C11.3017 51.4557 8.44127 54.3822 8.40634 58.1719L9.4063 58.1811C9.43635 54.9201 11.8712 52.4531 15.0649 52.4381L15.0602 51.4382ZM70.4 2.79872C69.3905 2.80677 68.5982 2.81255 67.9724 2.87698C67.3412 2.94195 66.8199 3.07107 66.3746 3.36451C65.9274 3.65921 65.6114 4.08357 65.3192 4.63016C65.0306 5.17003 64.7396 5.8802 64.37 6.78028L65.295 7.16015C65.6726 6.24072 65.942 5.58625 66.2011 5.10163C66.4566 4.62374 66.6756 4.36375 66.9248 4.19951C67.176 4.03402 67.5125 3.92961 68.0748 3.87172C68.6423 3.81329 69.3789 3.80689 70.408 3.79869L70.4 2.79872ZM64.3706 6.77883C63.1524 9.71904 61.9335 12.661 60.7308 15.6195L61.6572 15.9961C62.8584 13.0412 64.076 10.1023 65.2944 7.16159L64.3706 6.77883ZM60.7305 15.6202C58.3098 21.5996 55.9053 27.5955 53.5331 33.5916L54.463 33.9594C56.834 27.9662 59.2376 21.9729 61.6574 15.9955L60.7305 15.6202ZM53.5321 33.5943C53.4738 33.7443 53.4215 33.8431 53.3324 34.056C53.2587 34.2319 53.1767 34.4516 53.1453 34.683C53.1129 34.9216 53.1302 35.2039 53.2904 35.4715C53.4493 35.737 53.7087 35.9212 54.0287 36.0451L54.3898 35.1125C54.2063 35.0415 54.1591 34.9758 54.1484 34.958C54.1391 34.9423 54.1239 34.9078 54.1362 34.8175C54.1494 34.7199 54.1893 34.5984 54.2547 34.4424C54.3046 34.3232 54.4087 34.0992 54.4641 33.9567L53.5321 33.5943ZM54.0252 36.0437C55.0442 36.4471 56.0826 36.0662 56.6883 35.1576L55.8562 34.6029C55.4873 35.1563 54.9337 35.3278 54.3933 35.1139L54.0252 36.0437ZM56.6905 35.1542C57.0356 34.6274 57.2388 34.0205 57.4359 33.5201L56.5055 33.1536C56.2802 33.7255 56.1261 34.1908 55.854 34.6062L56.6905 35.1542ZM57.4342 33.5243C60.4837 25.9806 63.6735 18.4603 66.5193 10.8162L65.5822 10.4673C62.7428 18.0941 59.5652 25.5847 56.5071 33.1495L57.4342 33.5243ZM66.5188 10.8175C67.1141 9.23272 67.758 8.04638 68.6427 7.33307C69.4945 6.64633 70.6398 6.34479 72.3842 6.69679L72.582 5.71654C70.623 5.32124 69.1531 5.63704 68.0151 6.55457C66.91 7.44553 66.1895 8.85037 65.5827 10.4659L66.5188 10.8175ZM72.391 6.6981C72.5902 6.73546 72.7876 6.7262 72.9484 6.71035C73.085 6.69688 73.2945 6.6653 73.3863 6.65451L73.2694 5.66136C73.085 5.68305 73.0021 5.70021 72.8503 5.71517C72.7228 5.72774 72.636 5.72661 72.5753 5.71523L72.391 6.6981ZM73.4015 6.65247C73.8235 6.58961 74.2772 6.45651 74.6338 6.17004C75.014 5.86463 75.241 5.41863 75.241 4.84204H74.241C74.241 5.12646 74.1431 5.28155 74.0076 5.39041C73.8485 5.5182 73.5956 5.61253 73.2542 5.66339L73.4015 6.65247ZM75.2409 4.83224C75.2301 4.28342 75.0149 3.83335 74.6647 3.50873C74.3242 3.19311 73.8819 3.01855 73.4355 2.9506L73.2851 3.93922C73.5859 3.985 73.8259 4.09473 73.9848 4.24212C74.1341 4.3805 74.2356 4.57213 74.2411 4.85184L75.2409 4.83224ZM73.4192 2.9484C72.4406 2.83227 71.372 2.84572 70.4285 2.79931L70.3794 3.7981C71.4176 3.84917 72.3633 3.83011 73.3014 3.94143L73.4192 2.9484ZM32.573 29.3368C33.8966 29.3368 35.2617 29.3857 36.6254 29.32L36.5773 28.3212C35.2446 28.3854 33.9459 28.3368 32.573 28.3368V29.3368ZM36.6277 29.3199C36.736 29.3142 36.8719 29.3279 37.0743 29.347C37.2544 29.3641 37.4877 29.3852 37.7116 29.3653C37.937 29.3453 38.2186 29.279 38.4479 29.0651C38.6854 28.8434 38.7901 28.5361 38.8064 28.1946L37.8075 28.147C37.8034 28.233 37.7898 28.2825 37.7799 28.3077C37.7751 28.3199 37.771 28.3266 37.769 28.3297C37.7671 28.3326 37.7659 28.3336 37.7656 28.334C37.7651 28.3344 37.7637 28.3357 37.7602 28.3377C37.7565 28.3399 37.7499 28.3433 37.739 28.3472C37.7161 28.3555 37.6793 28.3643 37.6232 28.3693C37.5039 28.3798 37.3585 28.3695 37.1685 28.3515C37.0009 28.3356 36.7753 28.3107 36.5751 28.3213L36.6277 29.3199ZM38.8061 28.2007C38.8369 27.6869 38.6904 27.1215 38.4163 26.6589C38.1436 26.1986 37.7 25.7708 37.0944 25.6639L36.9206 26.6487C37.1433 26.688 37.3739 26.8613 37.556 27.1686C37.7367 27.4736 37.8258 27.8423 37.8079 28.1408L38.8061 28.2007ZM37.0884 25.6629C33.9586 25.1495 30.8052 25.2173 27.6994 25.6282L27.8305 26.6195C30.8647 26.2181 33.9163 26.1559 36.9265 26.6497L37.0884 25.6629ZM27.7018 25.6278C27.0463 25.7113 26.6008 26.1514 26.3374 26.6235C26.0754 27.0933 25.9558 27.6532 25.9656 28.1322L26.9654 28.1118C26.9589 27.7948 27.0424 27.4125 27.2108 27.1106C27.3778 26.8111 27.5902 26.6501 27.8281 26.6198L27.7018 25.6278ZM25.9655 28.1298C25.9709 28.4702 26.061 28.7809 26.2835 29.0133C26.5017 29.2412 26.7793 29.3223 27.0078 29.3512C27.2332 29.3797 27.4676 29.3641 27.6525 29.3492C27.8593 29.3325 28.0021 29.3173 28.1257 29.3204L28.1514 28.3208C27.9583 28.3158 27.7356 28.3392 27.5719 28.3524C27.3861 28.3674 27.245 28.3732 27.1333 28.3591C27.0809 28.3524 27.0477 28.3427 27.0281 28.3345C27.0105 28.3271 27.0061 28.322 27.0059 28.3218C27.0053 28.3212 27.0036 28.3193 27.001 28.3151C26.9984 28.3107 26.994 28.3021 26.989 28.2878C26.9789 28.2582 26.9668 28.2041 26.9654 28.1142L25.9655 28.1298ZM28.1219 29.3203C29.5948 29.3694 31.1098 29.3368 32.573 29.3368V28.3368C31.08 28.3368 29.6062 28.3692 28.1552 28.3209L28.1219 29.3203Z" fill="#00B3DF" mask="url(#path-1-outside-1_44_84)"/>
<path d="M54.0446 60.7009L54.0445 60.7009C50.581 60.6671 47.4762 57.5529 47.527 54.1603L54.0446 60.7009ZM54.0446 60.7009C57.6502 60.7346 60.6602 57.9365 60.7617 54.3985L60.7617 54.3983M54.0446 60.7009L60.7617 54.3983M60.7617 54.3983C60.8633 50.7904 57.8521 47.7899 54.1618 47.773L60.7617 54.3983ZM54.2219 50.4986L54.2219 50.4986C56.2838 50.529 57.7437 52.0639 57.7441 54.2443C57.7362 55.3227 57.3637 56.2158 56.7368 56.8446C56.1096 57.4738 55.2113 57.8547 54.1228 57.8779L54.1225 57.8779C52.1336 57.9231 50.5465 56.2654 50.5772 54.1513C50.6077 52.0404 52.1903 50.4683 54.2219 50.4986ZM54.1618 47.773C50.5696 47.7562 47.5778 50.623 47.527 54.1601L54.1618 47.773Z" fill="#00B3DF" stroke="#00B3DF" stroke-width="0.5"/>
</svg>
