<svg width="68" height="68" viewBox="0 0 68 68" fill="none" xmlns="http://www.w3.org/2000/svg">
<path d="M67.0975 34.0655L67.0863 34.1155C66.9936 34.5286 66.782 34.776 66.4919 34.9103C66.2442 35.025 65.9527 35.0476 65.7084 35.0665C65.6943 35.0676 65.6804 35.0687 65.6667 35.0698C65.0043 35.1265 64.5337 35.1685 64.1841 35.2385C63.8367 35.3081 63.6484 35.3985 63.524 35.5241C63.3977 35.6517 63.3053 35.8477 63.2233 36.2026C63.1532 36.5056 63.0971 36.8921 63.0227 37.4042C63.0096 37.4939 62.996 37.5875 62.9817 37.6851C61.7342 46.2064 57.6751 53.0787 50.582 58.0587L50.4383 57.8541L50.582 58.0587C46.1564 61.1655 41.2438 62.9556 35.8058 63.2396L35.8053 63.2396C35.4152 63.2591 35.2101 63.3575 35.0961 63.4873C34.9792 63.6204 34.9107 63.8397 34.9173 64.2094C34.9173 64.2095 34.9173 64.2095 34.9173 64.2096L34.6673 64.214C34.6814 64.8191 34.6814 65.4241 34.6392 66.0292L67.0975 34.0655ZM67.0975 34.0655L67.0882 34.0152C67.0363 33.7358 66.9368 33.5123 66.7894 33.3396C66.6414 33.1663 66.4585 33.0598 66.2653 32.994C65.9596 32.8898 65.5952 32.881 65.2746 32.8733C65.2121 32.8718 65.1513 32.8704 65.0929 32.8682L65.0918 32.8682C64.5335 32.8504 64.1404 32.8374 63.8501 32.7956C63.5606 32.754 63.4212 32.6893 63.3362 32.6048C63.2492 32.5184 63.1808 32.3734 63.1257 32.0771C63.0774 31.8175 63.0453 31.4807 63.0021 31.0261C62.996 30.9626 62.9898 30.8969 62.9832 30.8288C62.6997 27.8802 62.0187 24.9804 60.7515 22.3034L60.7515 22.3033C56.0889 12.4666 48.4235 6.53034 37.5907 4.85665M67.0975 34.0655L37.5907 4.85665M32.787 66.0862C32.8176 66.3528 32.8925 66.6393 33.0629 66.8643C33.2433 67.1024 33.5148 67.25 33.8795 67.25C34.2657 67.25 34.5315 67.0843 34.6895 66.8235C34.8333 66.586 34.8741 66.2918 34.8887 66.0451L12.0308 53.2531M32.787 66.0862C32.7149 65.4799 32.7009 64.8484 32.7151 64.2503L32.7152 64.2482C32.7282 63.8443 32.6445 63.6244 32.5121 63.4921C32.3737 63.3536 32.1316 63.2589 31.7083 63.2251C23.7635 62.6715 17.1341 59.3198 11.8449 53.4202M32.787 66.0862C32.7871 66.0864 32.7871 66.0866 32.7871 66.0868L33.0354 66.0573L32.787 66.0857C32.787 66.0859 32.787 66.086 32.787 66.0862ZM11.8449 53.4202C11.8448 53.4201 11.8448 53.42 11.8447 53.4199L12.0308 53.2531M11.8449 53.4202C11.8449 53.4202 11.8449 53.4202 11.845 53.4203L12.0308 53.2531M11.8449 53.4202C7.5168 48.6089 5.08887 42.9001 4.62056 36.4149M12.0308 53.2531C7.73989 48.4831 5.33415 42.8267 4.86988 36.3965L4.62059 36.4153C4.62058 36.4151 4.62057 36.415 4.62056 36.4149M4.62056 36.4149C4.57299 35.7834 4.42382 35.4622 4.20891 35.2869C3.98733 35.1062 3.63479 35.0285 3.04681 35.0424L3.04574 35.0424C2.91638 35.0449 2.76998 35.0617 2.60263 35.081C2.55252 35.0867 2.50052 35.0927 2.44654 35.0986C2.22335 35.1229 1.97316 35.1442 1.73915 35.1223C1.50517 35.1004 1.25702 35.0327 1.06403 34.8525C0.866133 34.6677 0.763298 34.3997 0.751152 34.0555L0.751125 34.0548C0.739282 33.6875 0.821331 33.3959 1.0042 33.1843C1.18564 32.9744 1.43403 32.881 1.67647 32.8414C1.91749 32.8021 2.17832 32.8118 2.41483 32.8299C2.51148 32.8373 2.60147 32.8457 2.68654 32.8537C2.82239 32.8665 2.94573 32.8781 3.06373 32.8823C3.65463 32.9029 4.00134 32.8184 4.21681 32.6343C4.42957 32.4525 4.57288 32.1224 4.6206 31.4951L4.62063 31.4947C5.18816 24.1868 8.15578 17.9526 13.4193 12.9012C18.4392 8.07922 24.4584 5.25256 31.4559 4.75568C32.023 4.71466 32.3302 4.59077 32.4971 4.40755C32.6604 4.22824 32.7422 3.93283 32.7017 3.4061C32.6573 2.82916 32.7169 2.24435 32.8023 1.68858L32.8026 1.68679C32.8439 1.43116 32.9502 1.17735 33.1439 0.995543C33.3451 0.806764 33.619 0.716509 33.942 0.761378C34.216 0.798244 34.4281 0.925713 34.5787 1.11223C34.7247 1.29306 34.8035 1.51687 34.8431 1.73894L34.8436 1.74179C34.8528 1.79672 34.8569 1.8534 34.8603 1.89883L34.8604 1.89987L34.8605 1.90092C34.864 1.9486 34.8669 1.98785 34.8722 2.02585C34.9153 2.27965 34.9091 2.53952 34.8921 2.78409C34.8845 2.89318 34.8754 2.9939 34.8665 3.09135C34.8542 3.22762 34.8424 3.35749 34.8362 3.49488C34.8159 3.94555 34.8722 4.28419 35.1568 4.5366L35.1595 4.539C35.4105 4.76825 35.7533 4.82901 36.194 4.83244C36.3319 4.83352 36.4665 4.82935 36.6065 4.82502C36.6935 4.82233 36.7826 4.81957 36.876 4.81796C37.1094 4.81394 37.3539 4.81794 37.5907 4.85665M4.62056 36.4149L37.5907 4.85665M4.86988 31.514C5.43263 24.2677 8.37296 18.0907 13.5924 13.0816C18.5728 8.29756 24.5379 5.49751 31.4738 5.00504C32.6415 4.92062 33.0354 4.48444 32.951 3.38693C32.9087 2.83818 32.965 2.27534 33.0494 1.72659C33.1198 1.2904 33.4011 0.938647 33.9076 1.009C34.3297 1.06528 34.5267 1.38891 34.597 1.78289C34.6043 1.8266 34.6078 1.87409 34.6114 1.92339C34.6148 1.96931 34.6183 2.0168 34.6251 2.06429C34.6795 2.38052 34.6488 2.72103 34.6184 3.05842C34.5623 3.68182 34.5071 4.29454 34.9909 4.72363C35.4159 5.11168 36.0167 5.09325 36.6222 5.07469C36.9388 5.06498 37.2567 5.05523 37.5514 5.10354M4.86988 31.514L65.6737 34.8185C66.1982 34.7772 66.6903 34.7386 66.8424 34.0608C66.675 33.1594 65.9891 33.1419 65.2808 33.1238C65.2152 33.1221 65.1494 33.1205 65.0838 33.1181C62.9434 33.0499 62.9432 33.0478 62.7532 31.0504C62.7472 30.9865 62.7409 30.9207 62.7344 30.8527C62.453 27.926 61.7777 25.0556 60.5256 22.4104C55.897 12.6454 48.2999 6.76387 37.5514 5.10354M4.86988 31.514C4.7714 32.8085 4.26492 33.1743 3.05501 33.1321L4.86988 31.514ZM37.5514 5.10354L37.5918 4.85684C37.5915 4.85678 37.5911 4.85671 37.5907 4.85665M37.5514 5.10354L37.5896 4.85647C37.5899 4.85653 37.5903 4.85659 37.5907 4.85665M35.7903 61.0973L35.8044 61.0955C41.246 60.424 45.7043 58.9018 49.6571 55.9925L49.6571 55.9924C56.3509 51.069 59.9888 44.4502 60.882 36.2288L60.882 36.2285C60.945 35.6542 60.8792 35.3701 60.754 35.2298C60.6371 35.0987 60.3929 35.0141 59.8473 35.0693L59.8448 35.0696C59.3615 35.1135 58.8814 35.0844 58.4229 35.0566L58.4162 35.0562C58.1487 35.0421 57.8241 35.01 57.5614 34.8709C57.4247 34.7985 57.2998 34.6949 57.2093 34.5476C57.1193 34.4011 57.0726 34.2265 57.068 34.0259C57.06 33.8062 57.098 33.6142 57.1845 33.4518C57.2717 33.2878 57.3994 33.1706 57.5431 33.0879C57.8179 32.9296 58.1668 32.8897 58.4533 32.8687L58.4607 32.8682L58.4607 32.8683C58.79 32.854 59.1185 32.854 59.4406 32.854H59.4414C59.908 32.8504 60.237 32.8475 60.4758 32.8184C60.7197 32.7888 60.8037 32.7379 60.8406 32.695C60.8781 32.6512 60.9168 32.5573 60.9116 32.3059C60.9064 32.06 60.8624 31.7256 60.7984 31.252C60.4752 28.8634 60.0705 26.5129 59.1552 24.2935C54.9412 14.2038 47.3635 8.49082 36.5879 6.9692L36.587 6.96906C36.152 6.90591 35.8376 6.8769 35.605 6.88971C35.3752 6.90236 35.2598 6.95419 35.1891 7.02107C35.1146 7.09162 35.0495 7.21657 35.0029 7.46269C34.9564 7.70787 34.9348 8.03506 34.9171 8.47608C34.9119 8.61277 34.9212 8.76599 34.9316 8.93893C34.934 8.97774 34.9364 9.01755 34.9387 9.05838C34.9508 9.27139 34.9599 9.50833 34.931 9.72835C34.9022 9.94841 34.8319 10.1807 34.6611 10.3615C34.4852 10.5478 34.2352 10.6456 33.9173 10.658L33.9163 10.658C33.5727 10.67 33.2974 10.5928 33.0951 10.419C32.8954 10.2475 32.8034 10.0127 32.7599 9.78497C32.7166 9.55856 32.7164 9.31222 32.7219 9.09007C32.7233 9.03203 32.7251 8.97603 32.7269 8.92193C32.7321 8.75876 32.7368 8.6129 32.7295 8.48028L32.7294 8.47859C32.7082 8.04429 32.6841 7.72551 32.6358 7.4879C32.5876 7.25055 32.5222 7.13152 32.4471 7.06333C32.3737 6.99673 32.2538 6.94511 32.0184 6.9291C31.7813 6.91297 31.4627 6.93496 31.0233 6.98418L31.0218 6.98435C27.074 7.40289 23.3544 8.58804 19.999 10.6627C12.3391 15.4212 7.90868 22.2911 6.8345 31.2904L6.83446 31.2907C6.78523 31.6987 6.76165 31.9972 6.77473 32.221C6.78772 32.4435 6.8353 32.5564 6.89608 32.6247C6.9576 32.6938 7.06772 32.7566 7.29409 32.8C7.52054 32.8434 7.82772 32.861 8.24847 32.8681H8.25169C8.61417 32.8681 9.0018 32.8681 9.37697 32.8969L9.37856 32.8971C9.65214 32.9199 9.93761 32.9863 10.1635 33.1523C10.402 33.3275 10.5468 33.5936 10.5642 33.9501L10.5645 33.9563H10.5644C10.573 34.3203 10.4435 34.6006 10.2061 34.7856C9.98272 34.9597 9.69325 35.0262 9.41662 35.0419C8.8609 35.0846 8.28912 35.099 7.71578 35.0704M35.7903 61.0973L7.72582 34.8206M35.7903 61.0973L35.7764 61.1006C35.6077 61.1414 35.4808 61.1329 35.3851 61.0984C35.2914 61.0646 35.2062 60.9982 35.132 60.8839C34.9757 60.6432 34.8825 60.211 34.9031 59.5649M35.7903 61.0973L49.8052 56.1938M7.71578 35.0704C7.71496 35.0704 7.71415 35.0703 7.71334 35.0703L7.72582 34.8206M7.71578 35.0704C7.71652 35.0704 7.71727 35.0705 7.71801 35.0705L7.72582 34.8206M7.71578 35.0704C7.29673 35.0577 7.06196 35.1495 6.93715 35.2821C6.81415 35.4128 6.74004 35.6453 6.79203 36.0552M7.72582 34.8206C6.82543 34.7925 6.43151 35.2005 6.54406 36.087M6.79203 36.0552C6.79202 36.0551 6.792 36.055 6.79199 36.0549L6.54406 36.087M6.79203 36.0552C6.82846 36.3367 6.8624 36.6174 6.89619 36.8968C7.00738 37.8163 7.11701 38.7229 7.30892 39.6079L7.30894 39.608C8.60547 45.6035 11.643 50.5938 16.2608 54.6122L16.261 54.6124C20.5099 58.3185 25.5253 60.3543 31.1067 60.9685M6.79203 36.0552C6.79204 36.0553 6.79206 36.0554 6.79207 36.0555L6.54406 36.087M6.54406 36.087L16.0967 54.8008C20.3876 58.5436 25.4524 60.5979 31.0798 61.217M49.8052 56.1938C45.8097 59.1346 41.3078 60.6683 35.8351 61.3436C35.0191 61.5406 34.611 60.8793 34.6532 59.5567M49.8052 56.1938C56.5582 51.2269 60.2301 44.5434 61.1305 36.2558L49.8052 56.1938ZM34.6532 59.5567L34.9031 59.5661C34.9031 59.5657 34.9031 59.5653 34.9031 59.5649M34.6532 59.5567C34.6579 59.4327 34.6719 59.2948 34.6865 59.1508C34.7598 58.4289 34.8484 57.5563 33.8514 57.5446M34.6532 59.5567L33.8514 57.5446M34.9031 59.5649C34.9075 59.4489 34.9202 59.325 34.9342 59.1872C34.9417 59.113 34.9497 59.0347 34.957 58.9516C34.9769 58.726 34.9902 58.476 34.9591 58.2432C34.9279 58.0098 34.8487 57.7667 34.6603 57.5817C34.4681 57.393 34.1975 57.2987 33.8544 57.2946M34.9031 59.5649L33.8544 57.2946M33.8544 57.2946C33.8544 57.2946 33.8543 57.2946 33.8543 57.2946L33.8514 57.5446M33.8544 57.2946C33.5177 57.2906 33.2498 57.3774 33.0565 57.5605C32.8677 57.7394 32.7844 57.9781 32.7465 58.2074C32.7087 58.4363 32.7116 58.6852 32.7191 58.9103C32.7208 58.96 32.7226 59.0083 32.7244 59.0552C32.7311 59.2308 32.7371 59.3878 32.7294 59.529L32.7294 59.5299C32.7082 59.9478 32.6867 60.254 32.6426 60.4832C32.5985 60.7125 32.5384 60.825 32.4705 60.8886C32.4051 60.9499 32.2956 61 32.0703 61.0167C31.8433 61.0336 31.5355 61.0142 31.1067 60.9685M33.8514 57.5446C32.916 57.5333 32.9465 58.3256 32.974 59.039C32.9808 59.2163 32.9875 59.3886 32.9791 59.5426C32.8947 61.2029 32.7962 61.3999 31.0798 61.217M31.0798 61.217L31.1072 60.9685C31.107 60.9685 31.1069 60.9685 31.1067 60.9685M31.0798 61.217L31.1063 60.9684C31.1065 60.9684 31.1066 60.9684 31.1067 60.9685" fill="#E87722" stroke="#E87722" stroke-width="0.5"/>
<path d="M19.923 31.7831C19.9231 31.7829 19.9233 31.7826 19.9235 31.7824L20.1207 31.9361C20.7224 31.1524 21.4075 31.5379 22.0793 31.9159L22.0903 31.922C23.5816 32.7663 23.5956 32.7522 24.2428 31.1763C24.2639 31.1341 24.2815 31.0919 24.2991 31.0497C24.3167 31.0074 24.3343 30.9652 24.3554 30.923L24.1285 30.818C24.129 30.8169 24.1295 30.8158 24.13 30.8148C24.1058 30.8635 24.086 30.9111 24.0695 30.9507L24.0683 30.9535C24.0502 30.9969 24.0358 31.0312 24.0192 31.0645L24.015 31.0728L24.0115 31.0813C23.8475 31.4808 23.7313 31.7614 23.6242 31.9557C23.5147 32.1543 23.4441 32.2055 23.4003 32.2208C23.357 32.236 23.2703 32.2404 23.0615 32.1528C22.857 32.067 22.5912 31.9183 22.2134 31.7045L22.2129 31.7042C22.2025 31.6983 22.1921 31.6925 22.1816 31.6865C21.8635 31.5074 21.4905 31.2974 21.1145 31.2436C20.9116 31.2147 20.7004 31.2292 20.4911 31.3179C20.2831 31.4061 20.0943 31.5602 19.923 31.7831ZM19.923 31.7831C18.7234 33.3216 17.5812 34.9154 16.469 36.5064C16.3027 36.744 16.1726 37.0453 16.1795 37.357C16.1867 37.6856 16.3462 37.9938 16.6961 38.2125L16.6961 38.2126L16.7 38.2149C17.0172 38.4053 17.3278 38.4055 17.6008 38.2858C17.857 38.1734 18.0636 37.9633 18.2212 37.7608C18.9691 36.8152 19.6883 35.842 20.4047 34.8726L20.4051 34.8721C20.4053 34.8718 20.4054 34.8716 20.4056 34.8714C20.5006 34.7446 20.5815 34.5946 20.6526 34.4627L20.6583 34.4521C20.7351 34.3099 20.8027 34.1857 20.8789 34.0832C20.9542 33.9817 21.0239 33.9212 21.0938 33.8909C21.1572 33.8635 21.2456 33.8501 21.3841 33.8918C22.1804 34.1391 22.8688 34.519 23.0258 35.4126L23.0258 35.4126C23.2514 36.6958 23.5059 37.9831 23.8317 39.2441C23.9175 39.588 23.9064 39.8078 23.8353 39.9592C23.7673 40.1041 23.6189 40.2394 23.2999 40.3543L23.2991 40.3546C21.5484 40.992 20.4452 42.1829 19.5558 43.5145C19.1553 44.1141 18.7948 44.7475 18.4395 45.3718C18.4017 45.4382 18.364 45.5045 18.3263 45.5707C17.932 46.2621 17.5385 46.9385 17.0898 47.5634C16.9266 47.7902 16.8577 48.0663 16.9082 48.3357C16.9592 48.6077 17.1281 48.8524 17.4014 49.0199C17.6735 49.1867 17.9479 49.2239 18.207 49.1442C18.4542 49.0681 18.6573 48.8948 18.8208 48.7002L18.8221 48.6986C19.0916 48.3724 19.3522 48.0399 19.5852 47.6757M44.1991 20.6971C43.8754 20.6881 43.6122 20.8075 43.4268 21.0074C43.2467 21.2016 43.1528 21.457 43.1275 21.7096C43.0674 22.3009 43.0561 22.9053 43.0452 23.4946C43.0406 23.7435 43.036 23.9897 43.0278 24.231C43.0091 24.7386 42.7365 25.3536 42.3564 25.8389C42.1682 26.079 41.9623 26.2761 41.7633 26.4071C41.5609 26.5403 41.3886 26.5904 41.2589 26.5794L41.2562 26.5792C41.0205 26.5617 40.7681 26.3521 40.5914 25.8987C40.4196 25.4582 40.3508 24.8521 40.444 24.2053C40.4991 23.8336 40.5554 23.4211 40.4581 23.0443C40.3541 22.6416 40.0852 22.3087 39.5699 22.0708L39.5692 22.0705C38.8308 21.7323 38.5306 21.3998 38.4731 21.0819C38.4143 20.7575 38.5832 20.324 39.1167 19.7208C39.1482 19.686 39.1834 19.6482 39.2202 19.6088C39.2909 19.5328 39.3674 19.4506 39.4347 19.3719C39.5406 19.2478 39.6475 19.106 39.7191 18.9486C39.7923 18.7875 39.8317 18.6027 39.7907 18.4019C39.7502 18.2029 39.6366 18.0171 39.4569 17.8415L39.4566 17.8412C39.2958 17.6846 39.1215 17.5852 38.9364 17.5455C38.751 17.5057 38.5739 17.5297 38.4143 17.589C38.1071 17.7031 37.8485 17.9539 37.6583 18.1802C37.3883 18.4815 37.1414 18.6231 36.8956 18.6636C36.6456 18.7048 36.3552 18.6485 35.9862 18.4705L35.9862 18.4705L35.9835 18.4692C34.8464 17.9376 33.6092 17.8305 32.4002 18.2783L32.3996 18.2786C31.8721 18.4755 31.4139 18.6114 30.9974 18.5851C30.6024 18.5603 30.2196 18.3871 29.8436 17.8964L29.8425 17.895C29.4421 17.3801 28.7133 17.3713 28.2272 17.8748L28.227 17.8751C27.9936 18.1175 27.9129 18.3899 27.9501 18.6626C27.985 18.9182 28.1197 19.1488 28.2632 19.338C28.4024 19.5266 28.5707 19.7059 28.7236 19.8687C28.7947 19.9444 28.8624 20.0165 28.9223 20.0844C29.5481 20.8075 29.2418 21.5899 28.6882 21.8289C27.9127 22.1614 27.4517 22.5958 27.2815 23.1575C27.1154 23.7057 27.2478 24.3111 27.4999 24.9378L27.4999 24.938C27.5812 25.1397 27.5959 25.2984 27.5775 25.4279C27.559 25.558 27.5046 25.6767 27.42 25.7942C27.3338 25.9138 27.2204 26.0266 27.0894 26.145C27.0474 26.183 27.0016 26.2232 26.9544 26.2646C26.8644 26.3436 26.7695 26.4268 26.6867 26.5071C26.5919 26.5964 26.5219 26.6192 26.4733 26.6238C26.4209 26.6286 26.3577 26.6153 26.2729 26.5722C26.1858 26.528 26.0957 26.4629 25.9884 26.3827C25.9798 26.3763 25.9711 26.3697 25.9622 26.363C25.8676 26.2921 25.7583 26.2102 25.6463 26.1467L25.6463 26.1466L25.6418 26.1442C25.2368 25.9256 24.9789 25.6584 24.826 25.3466C24.6717 25.0318 24.6138 24.6501 24.6469 24.187L24.6471 24.1844C24.6902 23.4802 24.6613 22.7639 24.6333 22.0765L24.6333 22.0765L24.6331 22.0732C24.6192 21.8161 24.5911 21.4891 24.451 21.2268C24.3776 21.0892 24.271 20.964 24.1179 20.8764C23.9655 20.7892 23.7841 20.7491 23.5765 20.7533L23.576 20.7533C23.1761 20.7622 22.892 20.9426 22.7171 21.2145C22.5519 21.4712 22.4951 21.7908 22.4875 22.0801L22.4875 22.0809C22.4593 23.2943 22.4593 24.4948 22.5016 25.7102L44.1991 20.6971ZM44.1991 20.6971C44.5261 20.706 44.7818 20.834 44.9519 21.0516C45.115 21.2603 45.1796 21.5259 45.1877 21.7834L45.1879 21.7912H45.1878C45.1878 22.1581 45.181 22.5111 45.1742 22.8693L45.1737 22.8953C45.1668 23.255 45.16 23.621 45.1597 24.0162M44.1991 20.6971L45.1597 24.0162M45.1597 24.0162C45.3372 24.8599 45.299 25.6574 44.9806 26.3554C44.6577 27.0631 44.0596 27.64 43.1724 28.054L43.1629 28.0585L43.1628 28.0583C43.0915 28.088 43.0141 28.1286 42.9522 28.1731C42.9214 28.1951 42.8982 28.2155 42.8821 28.2328C42.8694 28.2466 42.8644 28.255 42.863 28.2574C42.6042 28.9724 42.7649 29.5699 43.0715 30.1731C43.1912 30.4086 43.3287 30.6367 43.4714 30.8734C43.5156 30.9468 43.5603 31.021 43.6052 31.0965C43.7911 31.4095 43.9754 31.7392 44.1034 32.0895L44.1037 32.0901C44.1788 32.2976 44.2568 32.3483 44.293 32.3621C44.3339 32.3777 44.4048 32.3789 44.5275 32.3237C44.6478 32.2696 44.7793 32.1785 44.9167 32.0724C44.9609 32.0382 45.0084 32.0003 45.0561 31.9622C45.1424 31.8931 45.2297 31.8234 45.3009 31.7735L45.3016 31.773C45.907 31.3521 46.4637 31.18 46.9917 31.3099C47.5113 31.4377 47.9325 31.8417 48.3102 32.401C48.8751 33.2349 49.4656 34.0417 50.0586 34.8519C50.3943 35.3106 50.7308 35.7703 51.0638 36.2366C51.2396 36.4801 51.4644 36.793 51.5374 37.1214C51.5759 37.2948 51.5749 37.4814 51.5005 37.6681C51.4267 37.8534 51.2893 38.0167 51.0924 38.1603L51.0917 38.1609C50.8958 38.3026 50.6971 38.3796 50.4969 38.3912C50.2968 38.4029 50.1169 38.3479 49.9606 38.2615C49.6606 38.0955 49.421 37.7965 49.2412 37.5614M45.1597 24.0162L46.1899 33.6949M49.2412 37.5614L49.4398 37.4096L49.2416 37.562C49.2415 37.5618 49.2413 37.5616 49.2412 37.5614ZM49.2412 37.5614C48.8858 37.0993 48.5488 36.6203 48.2167 36.1459L48.1551 36.0577C47.843 35.6117 47.5346 35.171 47.2143 34.7459L47.4139 34.5954L47.2147 34.7465C47.1368 34.6438 47.0666 34.5241 47.0044 34.4182C46.996 34.4038 46.9877 34.3897 46.9796 34.376C46.9071 34.253 46.8424 34.1488 46.7708 34.0657C46.7009 33.9845 46.6354 33.9371 46.5677 33.9147C46.5031 33.8933 46.4106 33.886 46.2689 33.9321M46.2689 33.9321C46.2694 33.932 46.2699 33.9318 46.2703 33.9316L46.1899 33.6949M46.2689 33.9321C46.2685 33.9323 46.268 33.9324 46.2676 33.9325L46.1899 33.6949M46.2689 33.9321C45.5031 34.1923 44.8514 34.4671 44.6893 35.1852L44.6886 35.188C44.564 35.7117 44.4925 36.2427 44.4191 36.7888C44.3909 36.9986 44.3624 37.2106 44.3304 37.4253C44.217 38.1876 44.0617 38.9655 43.7158 39.7092C43.7158 39.7091 43.7159 39.709 43.7159 39.709L43.4887 39.6046C43.9097 38.6997 44.0399 37.7321 44.1697 36.7671C44.2437 36.2165 44.3177 35.6668 44.4454 35.1301C44.6424 34.2578 45.4443 33.9482 46.1899 33.6949M35.4588 49.6478C37.6301 47.885 39.718 46.0117 41.3972 43.7203L41.3974 43.72C42.0657 42.8061 42.7364 42.4003 43.375 42.3943C44.0162 42.3883 44.7214 42.7839 45.4606 43.7012L45.4606 43.7012L45.4625 43.7034C45.7767 44.0843 46.0393 44.5042 46.3118 44.9397C46.4324 45.1325 46.5549 45.3283 46.6846 45.5252L46.6849 45.5256C46.8894 45.8345 47.0932 46.1459 47.2977 46.4583C47.7516 47.1516 48.209 47.8503 48.6854 48.5407L48.6853 48.5407L48.6881 48.5446C48.858 48.781 49.0784 49.0215 49.3591 49.1366C49.6636 49.2614 49.9965 49.222 50.3312 48.9817L50.3325 48.9808C50.6226 48.7697 50.769 48.4867 50.7833 48.1854C50.7972 47.8934 50.6865 47.6093 50.5128 47.3774C50.513 47.3776 50.5131 47.3778 50.5133 47.3779L50.312 47.5263C50.6075 47.9203 50.6497 48.4409 50.1854 48.7786C49.6367 49.1726 49.2147 48.849 48.8911 48.3987C48.4165 47.7109 47.9619 47.0165 47.509 46.3245C47.304 46.0114 47.0994 45.6988 46.8934 45.3876L41.1956 43.5725C39.5355 45.8378 37.4674 47.6952 35.3008 49.454M35.4588 49.6478C35.4589 49.6476 35.4591 49.6475 35.4593 49.6474L35.3008 49.454M35.4588 49.6478C35.4586 49.6479 35.4585 49.648 35.4583 49.6481L35.3008 49.454M35.4588 49.6478C34.9231 50.0866 34.4026 50.3072 33.8618 50.2949C33.3259 50.2827 32.815 50.0423 32.2953 49.6543M35.3008 49.454C34.2878 50.2842 33.4437 50.1997 32.4448 49.454M32.4448 49.454L32.2956 49.6546C32.2955 49.6545 32.2954 49.6544 32.2953 49.6543M32.4448 49.454C30.1939 47.7796 28.182 45.8801 26.5079 43.6288M32.4448 49.454L32.2953 49.6543M32.2953 49.6543C30.0291 47.9685 27.9988 46.0525 26.3075 43.7782M26.5079 43.6288L26.3077 43.7785C26.3076 43.7784 26.3075 43.7783 26.3075 43.7782M26.5079 43.6288C25.0447 41.673 23.3424 41.6589 21.8793 43.6991M26.5079 43.6288L26.3073 43.778C26.3073 43.7781 26.3074 43.7782 26.3075 43.7782M26.3075 43.7782C25.5985 42.8307 24.8732 42.4094 24.1958 42.4154C23.5186 42.4214 22.792 42.8553 22.0824 43.8448M21.8793 43.6991L22.0825 43.8446C22.0825 43.8447 22.0825 43.8447 22.0824 43.8448M21.8793 43.6991C21.2696 44.5509 20.7065 45.4426 20.1442 46.333C19.889 46.737 19.6341 47.1408 19.375 47.5404M21.8793 43.6991L22.0824 43.8448M22.0824 43.8448C21.4771 44.6905 20.9205 45.5719 20.3603 46.4591C20.1044 46.8643 19.8477 47.2708 19.5852 47.6757M19.375 47.5404L19.5856 47.6751C19.5855 47.6753 19.5854 47.6755 19.5852 47.6757M19.375 47.5404L19.5848 47.6764C19.585 47.6762 19.5851 47.6759 19.5852 47.6757" fill="#E87722" stroke="#E87722" stroke-width="0.5"/>
</svg>
