<svg width="68" height="68" viewBox="0 0 68 68" fill="none" xmlns="http://www.w3.org/2000/svg">
<path d="M22.7889 36.4217L22.789 36.4218C24.0005 38.1835 24.6443 39.4481 24.5577 40.7029C24.4712 41.9576 23.6593 43.1342 22.1922 44.7371L22.1914 44.738C20.1218 46.9765 17.7614 48.8484 15.405 50.7171C15.2881 50.8098 15.1711 50.9026 15.0542 50.9954L15.0538 50.9957C14.0715 51.772 13.0701 52.511 12.0731 53.2468C9.7156 54.9866 7.38255 56.7084 5.38489 58.8625L5.38442 58.863C4.73805 59.5562 4.30012 60.2861 4.1948 60.998C4.0921 61.6922 4.30024 62.4045 5.02314 63.0977L5.02395 63.0985C5.71196 63.7641 6.45665 64.0085 7.17959 63.9419C7.90975 63.8747 8.64897 63.4871 9.30622 62.8297C9.94301 62.1929 10.5191 61.4988 11.0889 60.7854C11.2288 60.6103 11.3684 60.4338 11.5086 60.2567C11.937 59.7153 12.3697 59.1685 12.8242 58.6412C14.1382 57.1158 15.3332 55.4959 16.5352 53.8663C16.9634 53.2859 17.3925 52.7043 17.8282 52.1252C19.4822 49.9268 21.2242 47.7767 23.3454 45.9296C24.9092 44.566 26.1575 43.8091 27.4675 43.7256C28.779 43.642 30.0895 44.2371 31.7668 45.4008M22.7889 36.4217L45.4202 54.7563M22.7889 36.4217C20.2788 32.7758 17.7966 29.1174 15.5268 25.7721C14.8635 24.7945 14.2184 23.8438 13.5961 22.9279M22.7889 36.4217L13.5961 22.9279M31.7668 45.4008C31.7671 45.401 31.7673 45.4012 31.7676 45.4014L31.6251 45.6068L31.7667 45.4008C31.7667 45.4008 31.7667 45.4008 31.7668 45.4008ZM31.7668 45.4008C32.9402 46.2072 34.1177 47.0056 35.296 47.8045L35.2976 47.8056C36.4752 48.6041 37.6535 49.403 38.8279 50.2101L38.828 50.2102C40.7082 51.5041 42.5836 52.7985 44.2985 53.9821C44.6809 54.2461 45.0554 54.5046 45.4202 54.7563M45.4202 54.7563L13.5961 22.9279M45.4202 54.7563L13.5961 22.9279M49.7723 50.0975L49.7721 50.0974C39.1804 39.4883 28.5887 28.8952 17.9811 18.302L17.9809 18.3019C17.4714 17.7923 16.9677 17.3045 16.4349 16.8655C16.1324 16.6255 15.8785 16.584 15.6577 16.6367C15.4211 16.6932 15.1758 16.8689 14.9278 17.1546L14.9258 17.1568C14.7038 17.4066 14.6453 17.6152 14.6641 17.7956C14.684 17.9863 14.7956 18.1971 15.0172 18.4335L15.018 18.4344C15.1975 18.6277 15.3746 18.8211 15.5511 19.014C15.9931 19.4967 16.4318 19.9759 16.8967 20.4409L16.8971 20.4413L37.6014 41.2443C41.3396 44.9989 45.0769 48.7527 48.846 52.4744C48.8462 52.4746 48.8465 52.4749 48.8467 52.4751L49.7723 50.0975ZM49.7723 50.0975C49.9272 50.2525 50.0896 50.4019 50.247 50.5466M49.7723 50.0975L50.247 50.5466M50.247 50.5466C50.2768 50.5741 50.3065 50.6014 50.3359 50.6285M50.247 50.5466L50.3359 50.6285M50.3359 50.6285C50.5225 50.8007 50.7003 50.9681 50.8617 51.1429M50.3359 50.6285L50.8617 51.1429M50.8617 51.1429C51.1771 51.4845 51.4178 51.8416 51.5201 52.2804M50.8617 51.1429L51.5201 52.2804M51.5201 52.2804C51.5112 52.7914 51.2478 53.1119 50.8451 53.348L51.5201 52.2804ZM0.754712 61.0888L0.745989 61.1331L0.753306 61.1777C1.12976 63.4694 2.13793 65.3373 4.31518 66.5015C5.29851 67.0467 6.27116 67.2976 7.23277 67.2426C8.19495 67.1875 9.12617 66.8271 10.0279 66.1817L10.028 66.1816C11.9787 64.7835 13.4531 62.9171 14.9037 61.0677C15.6344 60.14 16.36 59.2078 17.0854 58.2758C19.4257 55.2689 21.7648 52.2637 24.2723 49.4149L24.2726 49.4147C24.9897 48.5979 25.5697 48.0019 26.09 47.5987C26.6075 47.1976 27.0509 46.999 27.4955 46.9561C27.9415 46.9131 28.422 47.0235 29.0199 47.3034C29.6201 47.5845 30.3185 48.0266 31.1967 48.6255C35.9891 51.9007 40.7801 55.191 45.5069 58.5448C46.5256 59.2715 47.5447 59.9751 48.5939 60.1418C49.1293 60.2269 49.6722 60.1731 50.2239 59.9211C50.772 59.6708 51.3157 59.231 51.8671 58.5643L51.8677 58.5635C53.3427 56.7659 54.2818 55.0417 54.5722 53.4755C54.8651 51.8955 54.4956 50.4799 53.3695 49.3452L53.3694 49.3451C46.0998 42.0338 38.804 34.7417 31.5074 27.4486C27.3388 23.2822 23.17 19.1154 19.0056 14.9447L19.0055 14.9446C18.1468 14.0858 17.2438 13.521 16.2722 13.3974C15.2927 13.2727 14.2925 13.6023 13.2571 14.4305C12.747 14.8356 12.108 15.1121 11.458 15.3499L11.4564 15.3505C9.64262 16.0277 8.48603 16.8878 8.11817 18.0624C7.75045 19.2366 8.20478 20.6172 9.32498 22.2453C12.5509 26.9411 15.8086 31.6207 19.0658 36.2996L19.0708 36.3068C19.8302 37.398 20.3889 38.2504 20.7422 38.9719C21.0945 39.6914 21.2296 40.2557 21.1704 40.7752C21.1112 41.2935 20.8539 41.8061 20.3409 42.4129C19.8261 43.0219 19.071 43.706 18.0448 44.5686C15.028 47.1039 11.945 49.5478 8.85775 51.9951C7.239 53.2783 5.61905 54.5624 4.00681 55.8612C2.32033 57.2042 1.18266 58.9159 0.754712 61.0888Z" fill="#1D4389" stroke="#1D4389" stroke-width="0.5"/>
<path d="M67.3083 1.90597L67.3143 1.80121L67.2437 1.72356C67.2151 1.69215 67.1806 1.64548 67.1321 1.57798L67.1207 1.56218C67.0777 1.50232 67.0269 1.4315 66.9715 1.36303C66.8589 1.22378 66.6914 1.04645 66.4626 0.981969C66.1488 0.871475 65.8623 0.851405 65.5982 0.903802C65.3335 0.956326 65.1075 1.07842 64.911 1.22693C64.716 1.37427 64.5436 1.55271 64.3876 1.72423C64.3371 1.77975 64.2889 1.83372 64.2422 1.88615C64.1395 2.00141 64.0434 2.10921 63.9429 2.20974C57.2331 8.85651 50.5234 15.5352 43.8297 22.2138C42.1683 23.8595 40.5229 25.5211 38.8785 27.1816L38.8768 27.1834C38.8766 27.1835 38.8765 27.1836 38.8764 27.1838C38.6056 27.4546 38.3261 27.7899 38.1913 28.1642C38.0499 28.5569 38.0708 28.9884 38.393 29.3992C38.5778 29.6379 38.7833 29.8014 39.0092 29.8917C39.2363 29.9824 39.4661 29.9919 39.6865 29.9507C40.1138 29.8709 40.5225 29.5966 40.8672 29.332L40.8672 29.3321L40.8712 29.3289C41.2729 29.0075 41.6807 28.6652 42.042 28.3039L42.0424 28.3035L42.1002 28.2455C50.0526 20.2601 58.0051 12.2746 65.9418 4.2891C65.9962 4.23468 66.0523 4.17989 66.1095 4.12417C66.6367 3.60981 67.2448 3.01657 67.3083 1.90597Z" fill="#1D4389" stroke="#1D4389" stroke-width="0.5"/>
<path d="M47.5487 38.4376L47.5805 38.4444L47.6131 38.4428C48.6688 38.3908 49.3027 37.756 49.8581 37.1999C49.8729 37.1851 49.8876 37.1703 49.9024 37.1556C55.3181 31.755 60.718 26.3543 66.1021 20.9376L66.1034 20.9363C66.1925 20.8452 66.2891 20.7523 66.3909 20.6544L66.3964 20.6491C66.4992 20.5502 66.6069 20.4465 66.711 20.34C66.9178 20.1287 67.1235 19.8937 67.2659 19.636C67.4101 19.3749 67.496 19.0783 67.4431 18.753C67.3904 18.4293 67.2062 18.1134 66.8807 17.8009L66.8807 17.8009L66.8791 17.7994C66.5716 17.5094 66.2648 17.3573 65.955 17.3369C65.6455 17.3165 65.3752 17.4302 65.1462 17.5874C64.9197 17.743 64.7171 17.9525 64.5382 18.1509C64.4801 18.2154 64.4251 18.2778 64.3722 18.3378C64.2551 18.4709 64.1485 18.592 64.0408 18.6971L64.0394 18.6985C58.6101 24.0806 53.2286 29.4787 47.8319 34.8921L47.8234 34.9007C47.8234 34.9007 47.8233 34.9007 47.8233 34.9008C47.7933 34.9307 47.763 34.961 47.7325 34.9914C47.3317 35.391 46.8875 35.8339 46.5873 36.3395C46.2808 36.8506 46.19 37.3296 46.3989 37.728C46.6011 38.1136 47.0376 38.3286 47.5487 38.4376Z" fill="#1D4389" stroke="#1D4389" stroke-width="0.5"/>
<path d="M31.2597 21.6967L31.3616 21.7091L31.4428 21.6463C31.5616 21.5545 31.7011 21.4625 31.8589 21.3584C31.9231 21.3161 31.9904 21.2717 32.0605 21.2245C32.295 21.0669 32.5494 20.8853 32.7733 20.67L32.7733 20.67L32.7763 20.6671C38.3998 15.0748 44.0075 9.48227 49.5994 3.85768C49.6756 3.78145 49.75 3.71281 49.8295 3.63931C49.8965 3.57747 49.9672 3.51219 50.0459 3.43605C50.2029 3.2841 50.3657 3.11202 50.4876 2.92106C50.6106 2.72843 50.7008 2.50291 50.692 2.24814C50.6832 1.99103 50.5747 1.73827 50.3638 1.49048C50.1408 1.22728 49.8985 1.05652 49.6388 0.974156C49.3782 0.891476 49.1206 0.904446 48.8792 0.974634C48.4097 1.11109 47.9804 1.4704 47.634 1.80878C44.4386 4.92466 41.2431 8.0567 38.0635 11.2048C36.1465 13.0965 34.26 14.9986 32.3725 16.9016C31.8997 17.3784 31.4267 17.8553 30.9532 18.332C30.3482 18.9371 29.8058 19.6898 30.006 20.7124C30.0555 20.9783 30.1787 21.211 30.4006 21.3854C30.6169 21.5554 30.906 21.6535 31.2597 21.6967Z" fill="#1D4389" stroke="#1D4389" stroke-width="0.5"/>
<path d="M22.5243 13.2872L22.6018 13.3059L21.928 11.047L21.7494 10.872C21.7494 10.8721 21.7493 10.8722 21.7492 10.8722C21.3425 11.2874 21.0639 11.7833 21.1729 12.2681C21.2853 12.7685 21.7715 13.1052 22.5243 13.2872Z" fill="#1D4389" stroke="#1D4389" stroke-width="0.5"/>
<path d="M67.5674 35.704L67.4646 35.8373C67.3384 36.0009 67.2181 36.1661 67.0997 36.3288C66.8331 36.6949 66.5755 37.0488 66.278 37.3464C63.5138 40.1589 60.7333 42.9558 57.9205 45.7211L57.9193 45.7222C57.855 45.7846 57.7882 45.8538 57.7164 45.9285L57.6989 45.9467C57.6332 46.0151 57.5636 46.0875 57.4922 46.1586C57.3376 46.3125 57.163 46.4716 56.9711 46.5916C56.7781 46.7122 56.5535 46.8021 56.3024 46.7971C56.0475 46.792 55.7975 46.6898 55.5554 46.485C55.0414 46.0548 54.9143 45.5237 55.0246 45.0127C55.1305 44.5227 55.4492 44.0664 55.7949 43.7206C55.795 43.7205 55.7951 43.7204 55.7952 43.7203L55.9719 43.8971L67.5674 35.704ZM67.5674 35.704L67.4826 35.5586M67.5674 35.704L67.4826 35.5586M67.4826 35.5586C67.4104 35.4348 67.3559 35.3103 67.2974 35.1767C67.2716 35.118 67.2451 35.0574 67.216 34.9944C67.1292 34.8068 67.0162 34.5918 66.8274 34.4474L66.8275 34.4472M67.4826 35.5586L66.8275 34.4472M66.8275 34.4472L66.8193 34.4414M66.8275 34.4472L66.8193 34.4414M66.8193 34.4414C66.4654 34.1927 66.0991 34.1377 65.7514 34.2259C65.416 34.311 65.1186 34.5236 64.8702 34.7718L66.8193 34.4414Z" fill="#1D4389" stroke="#1D4389" stroke-width="0.5"/>
</svg>
