<svg width="68" height="68" viewBox="0 0 68 68" fill="none" xmlns="http://www.w3.org/2000/svg">
<circle cx="33.9513" cy="33.9513" r="33.9513" fill="#00993A"/>
<path d="M48.5615 18.8125C44.914 15.0625 40.0564 13 34.8941 13C24.2388 13 15.5682 21.8929 15.5682 32.8214C15.5682 36.3125 16.4562 39.7232 18.145 42.7321L15.4028 53L25.649 50.2411C28.4696 51.8214 31.647 52.6518 34.8854 52.6518H34.8941C45.5408 52.6518 54.4028 43.7589 54.4028 32.8304C54.4028 27.5357 52.2091 22.5625 48.5615 18.8125ZM34.8941 49.3125C32.0039 49.3125 29.1747 48.5179 26.7111 47.0179L26.1278 46.6607L20.0515 48.2946L21.6707 42.2143L21.2877 41.5893C19.6772 38.9643 18.8327 35.9375 18.8327 32.8214C18.8327 23.7411 26.0408 16.3482 34.9028 16.3482C39.1946 16.3482 43.2252 18.0625 46.2546 21.1786C49.2841 24.2946 51.147 28.4286 51.1383 32.8304C51.1383 41.9196 43.7475 49.3125 34.8941 49.3125ZM43.7039 36.9732C43.2252 36.7232 40.8486 35.5268 40.4046 35.3661C39.9606 35.1964 39.6385 35.1161 39.3165 35.6161C38.9944 36.1161 38.0716 37.2232 37.7843 37.5625C37.5057 37.8929 37.2185 37.9375 36.7397 37.6875C33.9017 36.2321 32.0388 35.0893 30.1671 31.7946C29.6709 30.9196 30.6633 30.9821 31.5861 29.0893C31.7428 28.7589 31.6644 28.4732 31.5426 28.2232C31.4207 27.9732 30.4544 25.5357 30.0539 24.5446C29.6622 23.5804 29.2618 23.7143 28.9658 23.6964C28.6872 23.6786 28.3651 23.6786 28.043 23.6786C27.7209 23.6786 27.1986 23.8036 26.7546 24.2946C26.3106 24.7946 25.0658 25.9911 25.0658 28.4286C25.0658 30.8661 26.7981 33.2232 27.0332 33.5536C27.2769 33.8839 30.437 38.8839 35.2859 41.0357C38.3502 42.3929 39.5515 42.5089 41.0836 42.2768C42.0151 42.1339 43.939 41.0804 44.3394 39.9196C44.7399 38.7589 44.7399 37.7679 44.618 37.5625C44.5048 37.3393 44.1827 37.2143 43.7039 36.9732Z" fill="white"/>
</svg>
