<svg width="18" height="14" viewBox="0 0 18 14" fill="none" xmlns="http://www.w3.org/2000/svg">
<path d="M1.4875 3.13906V3.23146L1.55786 3.29135L7.62228 8.45382C7.62229 8.45383 7.6223 8.45384 7.62231 8.45385C8.42478 9.13727 9.57878 9.13726 10.3812 8.45382L10.3812 8.45382L16.4422 3.29132L16.5125 3.23143V3.13906V2.33333C16.5125 1.90896 16.1766 1.55 15.75 1.55H2.25C1.82337 1.55 1.4875 1.90896 1.4875 2.33333V3.13906ZM1.81717 5.25085L1.4875 4.97013V5.40312V11.6667C1.4875 12.091 1.82337 12.45 2.25 12.45H15.75C16.1766 12.45 16.5125 12.091 16.5125 11.6667V5.40312V4.97013L16.1828 5.25085L11.1907 9.50183C11.1907 9.50185 11.1907 9.50187 11.1906 9.50189C9.91526 10.5868 8.08106 10.5866 6.80947 9.502L6.80935 9.50189L1.81717 5.25085ZM0.2 2.33333C0.2 1.14989 1.12623 0.2 2.25 0.2H15.75C16.8738 0.2 17.8 1.14989 17.8 2.33333V11.6667C17.8 12.8501 16.8738 13.8 15.75 13.8H2.25C1.12623 13.8 0.2 12.8501 0.2 11.6667V2.33333Z" fill="white" stroke="#1D4389" stroke-width="0.4"/>
</svg>
