<svg width="264" height="80" viewBox="0 0 264 80" fill="none" xmlns="http://www.w3.org/2000/svg">
<path d="M66.0563 72.0515L47.223 40.9449C47.2633 40.8553 47.2902 40.7657 47.2947 40.6805C47.3485 39.4528 47.3753 38.225 47.3977 36.9927L62.951 27.5783C63.7845 27.072 64.0578 25.9697 63.5515 25.1362L59.2005 17.9488C58.6897 17.1154 57.5918 16.8465 56.7584 17.3484L11.398 44.8075C10.5645 45.3138 10.2912 46.4161 10.7976 47.2496L15.1485 54.437C15.6549 55.2704 16.7572 55.5438 17.5906 55.0374L33.1753 45.6006C34.4165 46.1786 35.6667 46.7567 36.9213 47.3302C36.9751 47.3571 37.0423 47.3571 37.114 47.3481L55.8219 78.2486C56.3282 79.0821 57.4305 79.3554 58.264 78.849L65.4514 74.4981C66.2938 73.9872 66.5582 72.8894 66.0563 72.0515ZM14.8707 47.0927C14.6601 47.2182 14.3868 47.151 14.2568 46.9404L14.0642 46.6178C13.9387 46.4072 14.0059 46.1338 14.2165 46.0039L56.9511 20.4626C57.1617 20.3371 57.435 20.4044 57.565 20.615L57.7576 20.9331C57.8831 21.1437 57.8159 21.417 57.6053 21.547L14.8707 47.0927Z" fill="white"/>
<path d="M98.543 13.244C99.5512 13.244 100.492 13.5352 101.375 14.1133C102.258 14.6958 102.966 15.4799 103.508 16.4657C104.05 17.4515 104.319 18.5583 104.319 19.7771C104.319 20.978 104.046 22.0714 103.508 23.0572C102.966 24.043 102.253 24.8316 101.375 25.4231C100.492 26.0146 99.5512 26.3103 98.543 26.3103H93.2018L93.493 25.7861V31.795C93.493 32.2968 93.3362 32.7181 93.027 33.0586C92.7178 33.3992 92.3101 33.5649 91.8082 33.5649C91.3243 33.5649 90.9255 33.3947 90.6163 33.0586C90.3071 32.7225 90.1503 32.3013 90.1503 31.795V15.0184C90.1503 14.5165 90.3205 14.0953 90.6566 13.7548C90.9927 13.4142 91.4139 13.2484 91.9202 13.2484H98.543V13.244ZM98.543 23.0034C98.9105 23.0034 99.269 22.8466 99.6185 22.5374C99.968 22.2282 100.259 21.8249 100.488 21.332C100.716 20.8391 100.837 20.3193 100.837 19.7771C100.837 19.217 100.721 18.6928 100.488 18.2088C100.255 17.7249 99.9635 17.335 99.6185 17.0348C99.269 16.7346 98.9105 16.5867 98.543 16.5867H93.1435L93.493 16.0625V23.4649L93.1749 22.9989H98.543V23.0034Z" fill="white"/>
<path d="M109.114 33.5693C108.612 33.5693 108.195 33.399 107.864 33.0629C107.532 32.7269 107.371 32.3057 107.371 31.7993V19.8084C107.371 19.3065 107.536 18.8853 107.864 18.5447C108.191 18.2087 108.607 18.0384 109.114 18.0384C109.616 18.0384 110.032 18.2087 110.364 18.5447C110.691 18.8853 110.857 19.3065 110.857 19.8084V22.5372L110.655 20.5925C110.87 20.1265 111.144 19.7187 111.484 19.3603C111.825 19.0018 112.206 18.7016 112.631 18.4596C113.057 18.2176 113.514 18.0384 113.998 17.9219C114.482 17.8054 114.966 17.7471 115.45 17.7471C116.032 17.7471 116.521 17.9129 116.915 18.24C117.309 18.5716 117.511 18.957 117.511 19.4006C117.511 20.0414 117.345 20.4984 117.018 20.7807C116.686 21.063 116.332 21.2019 115.943 21.2019C115.575 21.2019 115.239 21.1347 114.939 21.0003C114.639 20.8659 114.294 20.7986 113.908 20.7986C113.559 20.7986 113.205 20.8793 112.846 21.0451C112.488 21.2109 112.161 21.4663 111.86 21.8158C111.56 22.1653 111.318 22.5955 111.135 23.1063C110.951 23.6216 110.857 24.2221 110.857 24.9211V31.8038C110.857 32.3057 110.691 32.7269 110.364 33.0674C110.032 33.4035 109.616 33.5693 109.114 33.5693Z" fill="white"/>
<path d="M134.404 25.8173C134.404 27.4035 134.05 28.8016 133.342 30.0114C132.634 31.2213 131.689 32.1667 130.497 32.8434C129.305 33.52 127.974 33.8605 126.504 33.8605C125.034 33.8605 123.704 33.5245 122.512 32.8434C121.32 32.1667 120.374 31.2213 119.666 30.0114C118.958 28.8016 118.604 27.4035 118.604 25.8173C118.604 24.231 118.958 22.833 119.666 21.6231C120.374 20.4133 121.32 19.4633 122.512 18.7777C123.704 18.0922 125.034 17.7471 126.504 17.7471C127.974 17.7471 129.305 18.0922 130.497 18.7777C131.689 19.4633 132.634 20.4133 133.342 21.6231C134.05 22.833 134.404 24.231 134.404 25.8173ZM130.918 25.8173C130.918 24.8315 130.721 23.9756 130.322 23.2497C129.923 22.5238 129.394 21.9592 128.727 21.5514C128.059 21.1437 127.32 20.942 126.504 20.942C125.693 20.942 124.949 21.1437 124.282 21.5514C123.614 21.9592 123.081 22.5238 122.686 23.2497C122.288 23.9756 122.09 24.8315 122.09 25.8173C122.09 26.7852 122.288 27.632 122.686 28.358C123.081 29.0839 123.614 29.6485 124.282 30.0562C124.949 30.464 125.689 30.6656 126.504 30.6656C127.315 30.6656 128.059 30.464 128.727 30.0562C129.394 29.6485 129.928 29.0839 130.322 28.358C130.721 27.632 130.918 26.7852 130.918 25.8173Z" fill="white"/>
<path d="M160.102 14.2342C160.604 14.4851 160.899 14.8839 160.989 15.4261C161.074 15.9683 160.935 16.4612 160.568 16.9048C160.317 17.2543 159.99 17.447 159.596 17.4873C159.197 17.5277 158.798 17.447 158.39 17.2543C157.924 17.0393 157.436 16.8779 156.925 16.7614C156.414 16.6449 155.876 16.5867 155.312 16.5867C154.268 16.5867 153.331 16.7525 152.511 17.0796C151.687 17.4112 150.988 17.8772 150.405 18.4866C149.823 19.096 149.384 19.8174 149.083 20.6509C148.783 21.4843 148.635 22.4029 148.635 23.4111C148.635 24.5941 148.805 25.6157 149.142 26.4895C149.482 27.3588 149.948 28.0847 150.549 28.6673C151.149 29.2498 151.857 29.6799 152.668 29.9578C153.479 30.2401 154.362 30.379 155.312 30.379C155.836 30.379 156.356 30.3297 156.88 30.2356C157.404 30.137 157.906 29.9667 158.39 29.7113C158.798 29.5186 159.197 29.4514 159.596 29.5097C159.99 29.5679 160.326 29.7696 160.599 30.1191C160.985 30.603 161.128 31.1004 161.02 31.6157C160.913 32.131 160.617 32.5029 160.133 32.7359C159.631 32.9869 159.112 33.1975 158.578 33.3588C158.045 33.5246 157.507 33.65 156.965 33.7352C156.423 33.8203 155.872 33.8651 155.312 33.8651C153.918 33.8651 152.596 33.6411 151.346 33.1975C150.096 32.7539 148.985 32.0952 148.008 31.2214C147.031 30.3521 146.26 29.2632 145.7 27.9548C145.14 26.6464 144.858 25.1318 144.858 23.4111C144.858 21.919 145.113 20.5478 145.629 19.2887C146.139 18.0295 146.865 16.9407 147.806 16.0221C148.747 15.1035 149.854 14.3866 151.131 13.8712C152.408 13.3604 153.802 13.1005 155.312 13.1005C156.163 13.1005 156.997 13.1991 157.808 13.3918C158.619 13.5845 159.385 13.8668 160.102 14.2342Z" fill="white"/>
<path d="M167.563 31.7994C167.563 32.3013 167.392 32.7225 167.056 33.0631C166.716 33.4036 166.295 33.5694 165.793 33.5694C165.309 33.5694 164.901 33.3991 164.574 33.0631C164.242 32.727 164.081 32.3058 164.081 31.7994V13.8533C164.081 13.3515 164.251 12.9303 164.587 12.5897C164.923 12.2492 165.345 12.0834 165.851 12.0834C166.353 12.0834 166.765 12.2536 167.083 12.5897C167.401 12.9303 167.563 13.3515 167.563 13.8533V31.7994Z" fill="white"/>
<path d="M178.653 33.8605C177.009 33.8605 175.579 33.5155 174.369 32.8299C173.16 32.1443 172.232 31.2078 171.582 30.0293C170.932 28.8509 170.61 27.5155 170.61 26.0234C170.61 24.2803 170.964 22.7971 171.672 21.5649C172.38 20.3371 173.303 19.3916 174.446 18.7329C175.588 18.0742 176.798 17.7471 178.075 17.7471C179.061 17.7471 179.997 17.9488 180.876 18.3565C181.758 18.7643 182.534 19.3199 183.215 20.0279C183.891 20.7359 184.429 21.5514 184.828 22.4835C185.222 23.411 185.424 24.4013 185.424 25.4454C185.406 25.9114 185.222 26.2878 184.873 26.579C184.523 26.8703 184.12 27.0137 183.654 27.0137H172.564L171.694 24.11H182.35L181.709 24.6926V23.9084C181.669 23.3483 181.472 22.8419 181.113 22.3983C180.755 21.9547 180.311 21.6007 179.778 21.3364C179.245 21.0765 178.68 20.9465 178.08 20.9465C177.497 20.9465 176.955 21.0227 176.453 21.1795C175.951 21.3364 175.512 21.5962 175.145 21.9637C174.777 22.3311 174.486 22.824 174.275 23.4424C174.06 24.0608 173.957 24.8449 173.957 25.7949C173.957 26.8389 174.177 27.7261 174.611 28.4521C175.046 29.178 175.606 29.7291 176.296 30.1055C176.982 30.4819 177.712 30.6701 178.487 30.6701C179.204 30.6701 179.773 30.6119 180.199 30.4954C180.625 30.3789 180.97 30.2399 181.23 30.0742C181.49 29.9084 181.727 29.7694 181.942 29.6529C182.292 29.4782 182.619 29.3931 182.928 29.3931C183.354 29.3931 183.708 29.5364 183.99 29.8277C184.272 30.119 184.411 30.455 184.411 30.8449C184.411 31.3691 184.138 31.8441 183.6 32.2698C183.098 32.6955 182.39 33.0674 181.481 33.3856C180.562 33.6992 179.621 33.8605 178.653 33.8605Z" fill="white"/>
<path d="M201.304 17.7471C201.806 17.7471 202.223 17.9129 202.554 18.24C202.881 18.5716 203.047 18.9928 203.047 19.5171V31.7993C203.047 32.3012 202.881 32.7224 202.554 33.0629C202.223 33.4035 201.81 33.5693 201.304 33.5693C200.802 33.5693 200.386 33.399 200.054 33.0629C199.722 32.7269 199.561 32.3057 199.561 31.7993V30.3744L200.202 30.6343C200.202 30.8852 200.067 31.1899 199.794 31.5484C199.521 31.9069 199.153 32.2608 198.692 32.6104C198.226 32.9599 197.679 33.2556 197.052 33.4976C196.424 33.7395 195.739 33.8605 195.004 33.8605C193.669 33.8605 192.459 33.5155 191.374 32.8299C190.29 32.1443 189.434 31.1944 188.807 29.9845C188.179 28.7747 187.861 27.3856 187.861 25.8173C187.861 24.231 188.175 22.833 188.807 21.6231C189.434 20.4133 190.281 19.4633 191.347 18.7777C192.414 18.0922 193.592 17.7471 194.892 17.7471C195.725 17.7471 196.487 17.8726 197.186 18.1235C197.885 18.3745 198.49 18.6926 199.001 19.0824C199.512 19.4678 199.911 19.8621 200.193 20.2564C200.475 20.6553 200.614 20.9868 200.614 21.2602L199.57 21.6366V19.5171C199.57 19.0152 199.736 18.594 200.063 18.2535C200.381 17.9174 200.798 17.7471 201.304 17.7471ZM195.439 30.6656C196.29 30.6656 197.034 30.4506 197.675 30.0249C198.315 29.5992 198.813 29.0167 199.171 28.2818C199.53 27.5469 199.709 26.7224 199.709 25.8128C199.709 24.8852 199.53 24.0518 199.171 23.3169C198.813 22.582 198.315 21.9995 197.675 21.5738C197.034 21.1482 196.29 20.9331 195.439 20.9331C194.605 20.9331 193.87 21.1482 193.234 21.5738C192.593 21.9995 192.096 22.582 191.737 23.3169C191.379 24.0518 191.2 24.8852 191.2 25.8128C191.2 26.7224 191.379 27.5469 191.737 28.2818C192.096 29.0167 192.593 29.5992 193.234 30.0249C193.87 30.455 194.605 30.6656 195.439 30.6656Z" fill="white"/>
<path d="M215.123 17.7471C216.557 17.7471 217.646 18.0474 218.39 18.6478C219.134 19.2482 219.649 20.0458 219.927 21.0451C220.209 22.0443 220.348 23.1511 220.348 24.3699V31.8038C220.348 32.3057 220.182 32.7269 219.855 33.0674C219.523 33.408 219.111 33.5738 218.605 33.5738C218.103 33.5738 217.686 33.4035 217.355 33.0674C217.023 32.7313 216.862 32.3101 216.862 31.8038V24.3655C216.862 23.7247 216.781 23.1511 216.615 22.6358C216.45 22.125 216.154 21.7127 215.728 21.4036C215.302 21.0944 214.693 20.9376 213.9 20.9376C213.125 20.9376 212.47 21.0944 211.942 21.4036C211.408 21.7127 211.001 22.125 210.723 22.6358C210.441 23.1511 210.302 23.7247 210.302 24.3655V31.7993C210.302 32.3012 210.136 32.7224 209.809 33.0629C209.477 33.4035 209.065 33.5693 208.559 33.5693C208.057 33.5693 207.64 33.399 207.308 33.0629C206.977 32.7269 206.816 32.3057 206.816 31.7993V19.8084C206.816 19.3065 206.981 18.8853 207.308 18.5447C207.636 18.2087 208.052 18.0384 208.559 18.0384C209.061 18.0384 209.477 18.2087 209.809 18.5447C210.136 18.8853 210.302 19.3065 210.302 19.8084V21.0585L209.867 20.9734C210.042 20.6463 210.293 20.2923 210.624 19.9114C210.951 19.535 211.341 19.181 211.785 18.8494C212.229 18.5223 212.735 18.2535 213.295 18.0518C213.855 17.8457 214.464 17.7471 215.123 17.7471Z" fill="white"/>
<path d="M225.635 16.1475C224.977 16.1475 224.511 16.0399 224.242 15.8293C223.969 15.6143 223.834 15.2379 223.834 14.6957V14.1445C223.834 13.5844 223.982 13.199 224.282 12.9974C224.582 12.7957 225.039 12.6927 225.662 12.6927C226.339 12.6927 226.814 12.8002 227.087 13.0108C227.356 13.2259 227.495 13.6023 227.495 14.1445V14.6957C227.495 15.2558 227.352 15.6411 227.06 15.8428C226.769 16.0444 226.294 16.1475 225.635 16.1475ZM227.405 31.7994C227.405 32.3012 227.24 32.7224 226.912 33.063C226.581 33.4035 226.169 33.5693 225.662 33.5693C225.16 33.5693 224.744 33.399 224.412 33.063C224.081 32.7269 223.919 32.3057 223.919 31.7994V19.8084C223.919 19.3065 224.085 18.8853 224.412 18.5448C224.739 18.2087 225.156 18.0384 225.662 18.0384C226.164 18.0384 226.581 18.2087 226.912 18.5448C227.24 18.8853 227.405 19.3065 227.405 19.8084V31.7994Z" fill="white"/>
<path d="M239.28 17.7471C240.714 17.7471 241.803 18.0474 242.546 18.6478C243.29 19.2482 243.806 20.0458 244.083 21.0451C244.366 22.0443 244.505 23.1511 244.505 24.3699V31.8038C244.505 32.3057 244.339 32.7269 244.012 33.0674C243.68 33.408 243.268 33.5738 242.762 33.5738C242.26 33.5738 241.843 33.4035 241.511 33.0674C241.18 32.7313 241.018 32.3101 241.018 31.8038V24.3655C241.018 23.7247 240.938 23.1511 240.772 22.6358C240.606 22.125 240.31 21.7127 239.885 21.4036C239.459 21.0944 238.85 20.9376 238.057 20.9376C237.281 20.9376 236.627 21.0944 236.098 21.4036C235.565 21.7127 235.157 22.125 234.88 22.6358C234.597 23.1511 234.458 23.7247 234.458 24.3655V31.7993C234.458 32.3012 234.293 32.7224 233.965 33.0629C233.634 33.4035 233.222 33.5693 232.715 33.5693C232.213 33.5693 231.797 33.399 231.465 33.0629C231.133 32.7269 230.972 32.3057 230.972 31.7993V19.8084C230.972 19.3065 231.138 18.8853 231.465 18.5447C231.792 18.2087 232.209 18.0384 232.715 18.0384C233.217 18.0384 233.634 18.2087 233.965 18.5447C234.293 18.8853 234.458 19.3065 234.458 19.8084V21.0585L234.024 20.9734C234.198 20.6463 234.449 20.2923 234.781 19.9114C235.108 19.535 235.498 19.181 235.942 18.8494C236.385 18.5223 236.891 18.2535 237.452 18.0518C238.012 17.8457 238.621 17.7471 239.28 17.7471Z" fill="white"/>
<path d="M254.73 17.7471C255.541 17.7471 256.289 17.8726 256.966 18.1235C257.643 18.3745 258.23 18.6926 258.723 19.0824C259.215 19.4678 259.605 19.8621 259.883 20.2564C260.165 20.6553 260.304 20.9868 260.304 21.2602L259.552 21.6366V19.5171C259.552 19.0152 259.717 18.594 260.044 18.2535C260.372 17.9174 260.788 17.7471 261.295 17.7471C261.796 17.7471 262.213 17.9129 262.545 18.24C262.872 18.5716 263.038 18.9928 263.038 19.5171V32.4401C263.038 34.1249 262.675 35.4737 261.949 36.4908C261.223 37.508 260.268 38.2429 259.09 38.6954C257.907 39.148 256.639 39.3766 255.286 39.3766C254.9 39.3766 254.394 39.3273 253.776 39.2332C253.157 39.1346 252.566 39.0181 252.006 38.8836C251.446 38.7492 251.02 38.6238 250.729 38.5073C250.146 38.2563 249.747 37.9427 249.523 37.5618C249.299 37.1854 249.259 36.7821 249.393 36.3564C249.568 35.7963 249.846 35.4109 250.236 35.2093C250.621 35.0077 251.029 34.9808 251.454 35.1376C251.647 35.1959 251.965 35.3124 252.413 35.4871C252.857 35.6619 253.345 35.8232 253.879 35.9666C254.412 36.11 254.882 36.1861 255.286 36.1861C256.737 36.1861 257.813 35.8949 258.507 35.3168C259.206 34.7343 259.552 33.9322 259.552 32.9061V30.3789L259.901 30.6388C259.901 30.8897 259.771 31.1944 259.511 31.5529C259.251 31.9113 258.893 32.2653 258.436 32.6148C257.979 32.9643 257.445 33.2601 256.823 33.5021C256.204 33.744 255.546 33.865 254.847 33.865C253.471 33.865 252.234 33.52 251.132 32.8344C250.03 32.1488 249.156 31.1989 248.519 29.989C247.879 28.7792 247.561 27.3901 247.561 25.8218C247.561 24.2355 247.879 22.8375 248.519 21.6276C249.16 20.4178 250.021 19.4678 251.105 18.7822C252.18 18.0877 253.39 17.7471 254.73 17.7471ZM255.281 20.942C254.412 20.942 253.646 21.1571 252.987 21.5828C252.328 22.0085 251.817 22.591 251.45 23.3259C251.083 24.0608 250.899 24.8942 250.899 25.8218C250.899 26.7314 251.083 27.5559 251.45 28.2907C251.817 29.0256 252.333 29.6081 252.987 30.0338C253.646 30.4595 254.412 30.6746 255.281 30.6746C256.173 30.6746 256.944 30.4595 257.602 30.0338C258.261 29.6081 258.772 29.0256 259.139 28.2907C259.507 27.5559 259.69 26.7314 259.69 25.8218C259.69 24.8942 259.507 24.0608 259.139 23.3259C258.772 22.591 258.257 22.0085 257.602 21.5828C256.944 21.1526 256.168 20.942 255.281 20.942Z" fill="white"/>
<path d="M130.268 63.7887C128.915 63.7887 127.691 63.6184 126.611 63.2824C125.527 62.9418 124.492 62.3503 123.506 61.4945C123.255 61.2794 123.063 61.0419 122.924 60.7686C122.789 60.4997 122.722 60.2264 122.722 59.9575C122.722 59.5139 122.883 59.1196 123.201 58.7835C123.52 58.443 123.923 58.2772 124.407 58.2772C124.774 58.2772 125.106 58.3937 125.393 58.6267C126.128 59.2271 126.858 59.6842 127.584 59.9934C128.31 60.3026 129.206 60.4594 130.268 60.4594C130.985 60.4594 131.644 60.3474 132.244 60.1278C132.844 59.9037 133.328 59.6035 133.696 59.2271C134.063 58.8507 134.247 58.4206 134.247 57.9366C134.247 57.3541 134.072 56.8612 133.723 56.4579C133.373 56.0502 132.84 55.7096 132.128 55.4273C131.411 55.145 130.501 54.9299 129.399 54.7731C128.355 54.6163 127.436 54.3833 126.638 54.0606C125.845 53.7425 125.182 53.3347 124.649 52.8418C124.116 52.3489 123.717 51.7664 123.443 51.0987C123.17 50.4311 123.036 49.6828 123.036 48.8493C123.036 47.5902 123.358 46.5148 124.008 45.6275C124.658 44.7358 125.532 44.0592 126.634 43.5932C127.736 43.1272 128.955 42.8942 130.29 42.8942C131.549 42.8942 132.714 43.0824 133.79 43.4588C134.865 43.8352 135.739 44.3146 136.416 44.8971C136.976 45.3408 137.258 45.8561 137.258 46.4341C137.258 46.8598 137.092 47.2451 136.765 47.5947C136.434 47.9442 136.048 48.1189 135.605 48.1189C135.313 48.1189 135.054 48.0338 134.821 47.859C134.511 47.5902 134.095 47.3303 133.57 47.0883C133.046 46.8463 132.495 46.6447 131.917 46.4789C131.334 46.3131 130.792 46.2325 130.29 46.2325C129.457 46.2325 128.758 46.34 128.184 46.5506C127.615 46.7657 127.181 47.0525 126.894 47.4199C126.603 47.7873 126.459 48.213 126.459 48.697C126.459 49.2795 126.629 49.7589 126.965 50.1353C127.306 50.5117 127.794 50.812 128.431 51.036C129.072 51.26 129.833 51.4572 130.725 51.632C131.886 51.8471 132.907 52.098 133.79 52.3848C134.673 52.676 135.403 53.0479 135.981 53.5005C136.564 53.9576 136.998 54.5266 137.29 55.2122C137.581 55.8978 137.724 56.7357 137.724 57.726C137.724 58.9852 137.375 60.0695 136.68 60.9792C135.981 61.8888 135.067 62.5878 133.938 63.0718C132.809 63.5467 131.581 63.7887 130.268 63.7887Z" fill="white"/>
<path d="M148.093 63.7887C146.448 63.7887 145.019 63.4437 143.809 62.7581C142.599 62.0725 141.672 61.136 141.022 59.9575C140.372 58.779 140.05 57.4437 140.05 55.9516C140.05 54.2085 140.404 52.7253 141.112 51.493C141.82 50.2653 142.743 49.3198 143.885 48.6611C145.028 48.0024 146.238 47.6753 147.515 47.6753C148.501 47.6753 149.437 47.8769 150.315 48.2847C151.198 48.6925 151.973 49.2481 152.655 49.9561C153.331 50.6641 153.869 51.4796 154.268 52.4116C154.662 53.3392 154.864 54.3295 154.864 55.3735C154.846 55.8395 154.662 56.2159 154.312 56.5072C153.963 56.7985 153.56 56.9418 153.094 56.9418H141.994L141.125 54.0382H151.781L151.14 54.6207V53.8366C151.1 53.2764 150.902 52.7701 150.544 52.3265C150.186 51.8829 149.742 51.5289 149.209 51.2645C148.675 51.0046 148.111 50.8747 147.51 50.8747C146.928 50.8747 146.386 50.9508 145.884 51.1077C145.382 51.2645 144.943 51.5244 144.575 51.8918C144.208 52.2593 143.917 52.7522 143.706 53.3705C143.491 53.9889 143.388 54.7731 143.388 55.723C143.388 56.7671 143.608 57.6543 144.042 58.3802C144.477 59.1061 145.037 59.6573 145.727 60.0337C146.413 60.4101 147.143 60.5983 147.918 60.5983C148.635 60.5983 149.204 60.54 149.63 60.4235C150.056 60.307 150.401 60.1681 150.661 60.0023C150.92 59.8365 151.158 59.6976 151.373 59.5811C151.722 59.4064 152.05 59.3212 152.359 59.3212C152.784 59.3212 153.138 59.4646 153.421 59.7559C153.703 60.0471 153.842 60.3832 153.842 60.773C153.842 61.2973 153.569 61.7723 153.031 62.198C152.529 62.6237 151.821 62.9956 150.911 63.3137C150.002 63.6319 149.061 63.7887 148.093 63.7887Z" fill="white"/>
<path d="M159.649 63.5018C159.147 63.5018 158.731 63.3316 158.399 62.9955C158.068 62.6594 157.906 62.2382 157.906 61.7319V49.7409C157.906 49.239 158.072 48.8178 158.399 48.4773C158.726 48.1412 159.143 47.9709 159.649 47.9709C160.151 47.9709 160.568 48.1412 160.9 48.4773C161.227 48.8178 161.392 49.239 161.392 49.7409V52.4698L161.191 50.5251C161.406 50.0591 161.679 49.6513 162.02 49.2928C162.36 48.9343 162.741 48.6341 163.167 48.3922C163.593 48.1502 164.05 47.9709 164.534 47.8544C165.017 47.7379 165.501 47.6797 165.985 47.6797C166.568 47.6797 167.056 47.8455 167.451 48.1726C167.845 48.5042 168.047 48.8895 168.047 49.3331C168.047 49.9739 167.881 50.431 167.554 50.7133C167.222 50.9956 166.868 51.1345 166.478 51.1345C166.111 51.1345 165.775 51.0673 165.475 50.9328C165.174 50.7984 164.829 50.7312 164.444 50.7312C164.094 50.7312 163.74 50.8119 163.382 50.9776C163.023 51.1434 162.696 51.3989 162.396 51.7484C162.096 52.0979 161.854 52.528 161.67 53.0389C161.487 53.5542 161.392 54.1546 161.392 54.8536V61.7363C161.392 62.2382 161.227 62.6594 160.9 63C160.568 63.3316 160.151 63.5018 159.649 63.5018Z" fill="white"/>
<path d="M172.657 47.9666C173.025 47.9666 173.365 48.0607 173.675 48.2444C173.984 48.4281 174.217 48.7059 174.374 49.0733L178.644 58.8283L178.003 59.1196L182.359 49.1002C182.686 48.325 183.201 47.9576 183.896 47.9979C184.38 47.9979 184.769 48.1458 185.07 48.446C185.37 48.7462 185.518 49.1181 185.518 49.5618C185.518 49.6962 185.495 49.8441 185.446 49.9964C185.397 50.1532 185.343 50.2966 185.285 50.4311L179.854 62.3951C179.545 63.0942 179.052 63.4616 178.375 63.4974C178.008 63.5557 177.654 63.4885 177.313 63.2958C176.973 63.1031 176.717 62.8029 176.542 62.3951L171.143 50.4311C171.103 50.3325 171.062 50.207 171.013 50.0547C170.964 49.8978 170.941 49.7186 170.941 49.5035C170.941 49.154 171.098 48.8134 171.407 48.4729C171.716 48.1368 172.133 47.9666 172.657 47.9666Z" fill="white"/>
<path d="M189.788 46.08C189.129 46.08 188.663 45.9725 188.395 45.7619C188.121 45.5468 187.987 45.1704 187.987 44.6282V44.0771C187.987 43.5169 188.135 43.1316 188.435 42.9299C188.735 42.7283 189.192 42.6252 189.815 42.6252C190.492 42.6252 190.967 42.7328 191.24 42.9434C191.509 43.1585 191.648 43.5349 191.648 44.0771V44.6282C191.648 45.1883 191.504 45.5737 191.213 45.7753C190.922 45.977 190.447 46.08 189.788 46.08ZM191.558 61.7274C191.558 62.2293 191.392 62.6505 191.065 62.991C190.734 63.3316 190.321 63.4974 189.815 63.4974C189.313 63.4974 188.896 63.3271 188.565 62.991C188.233 62.655 188.072 62.2338 188.072 61.7274V49.7365C188.072 49.2346 188.238 48.8134 188.565 48.4728C188.892 48.1368 189.309 47.9665 189.815 47.9665C190.317 47.9665 190.734 48.1368 191.065 48.4728C191.392 48.8134 191.558 49.2346 191.558 49.7365V61.7274Z" fill="white"/>
<path d="M202.043 47.6753C203.146 47.6753 204.109 47.7918 204.934 48.0248C205.758 48.2578 206.394 48.5804 206.851 48.9972C207.304 49.4139 207.533 49.9113 207.533 50.4938C207.533 50.8836 207.416 51.2421 207.183 51.5827C206.95 51.9232 206.614 52.089 206.166 52.089C205.857 52.089 205.601 52.0442 205.395 51.9591C205.194 51.8739 205.014 51.7619 204.857 51.623C204.701 51.4886 204.517 51.3631 204.306 51.2466C204.114 51.1301 203.818 51.0405 203.419 50.9688C203.02 50.9016 202.725 50.8657 202.532 50.8657C201.546 50.8657 200.708 51.0808 200.023 51.5065C199.337 51.9322 198.808 52.5102 198.441 53.2361C198.073 53.962 197.89 54.8 197.89 55.7499C197.89 56.6775 198.078 57.5064 198.454 58.2323C198.831 58.9583 199.355 59.5363 200.023 59.962C200.69 60.3877 201.461 60.6028 202.33 60.6028C202.814 60.6028 203.231 60.5759 203.58 60.5176C203.93 60.4594 204.221 60.3742 204.45 60.2577C204.719 60.1009 204.961 59.9396 205.176 59.7648C205.391 59.5901 205.709 59.5049 206.135 59.5049C206.636 59.5049 207.026 59.6662 207.295 59.9844C207.564 60.3025 207.703 60.6969 207.703 61.1584C207.703 61.6423 207.43 62.0815 206.892 62.4803C206.35 62.8791 205.637 63.1972 204.759 63.4392C203.876 63.6812 202.926 63.8021 201.9 63.8021C200.372 63.8021 199.046 63.4481 197.921 62.7402C196.796 62.0322 195.931 61.0688 195.322 59.85C194.713 58.6312 194.408 57.2645 194.408 55.7544C194.408 54.1682 194.731 52.7701 195.38 51.5603C196.03 50.3504 196.931 49.4004 198.082 48.7149C199.229 48.0203 200.551 47.6753 202.043 47.6753Z" fill="white"/>
<path d="M217.547 63.7887C215.903 63.7887 214.473 63.4437 213.264 62.7581C212.054 62.0725 211.126 61.136 210.476 59.9575C209.827 58.779 209.504 57.4437 209.504 55.9516C209.504 54.2085 209.858 52.7253 210.566 51.493C211.274 50.2653 212.197 49.3198 213.34 48.6611C214.482 48.0024 215.692 47.6753 216.969 47.6753C217.955 47.6753 218.892 47.8769 219.77 48.2847C220.653 48.6925 221.428 49.2481 222.109 49.9561C222.785 50.6641 223.323 51.4796 223.722 52.4116C224.116 53.3392 224.318 54.3295 224.318 55.3735C224.3 55.8395 224.116 56.2159 223.767 56.5072C223.417 56.7985 223.014 56.9418 222.548 56.9418H211.449L210.579 54.0382H221.235L220.594 54.6207V53.8366C220.554 53.2764 220.357 52.7701 219.998 52.3265C219.64 51.8829 219.196 51.5289 218.663 51.2645C218.13 51.0046 217.565 50.8747 216.965 50.8747C216.382 50.8747 215.84 50.9508 215.338 51.1077C214.836 51.2645 214.397 51.5244 214.03 51.8918C213.662 52.2593 213.371 52.7522 213.16 53.3705C212.945 53.9889 212.842 54.7731 212.842 55.723C212.842 56.7671 213.062 57.6543 213.497 58.3802C213.931 59.1061 214.491 59.6573 215.181 60.0337C215.867 60.4101 216.597 60.5983 217.373 60.5983C218.089 60.5983 218.659 60.54 219.084 60.4235C219.51 60.307 219.855 60.1681 220.115 60.0023C220.375 59.8365 220.612 59.6976 220.827 59.5811C221.177 59.4064 221.504 59.3212 221.813 59.3212C222.239 59.3212 222.593 59.4646 222.875 59.7559C223.157 60.0471 223.296 60.3832 223.296 60.773C223.296 61.2973 223.023 61.7723 222.485 62.198C221.983 62.6237 221.275 62.9956 220.366 63.3137C219.452 63.6319 218.515 63.7887 217.547 63.7887Z" fill="white"/>
<path d="M226.46 61.0911C226.267 60.8222 226.178 60.4727 226.2 60.047C226.218 59.6214 226.469 59.2539 226.953 58.9447C227.262 58.752 227.594 58.6669 227.939 58.6983C228.288 58.7252 228.624 58.9044 228.956 59.236C229.516 59.7961 230.107 60.2352 230.726 60.5444C231.344 60.8536 232.119 61.0104 233.047 61.0104C233.338 60.9925 233.656 60.9477 234.006 60.8805C234.355 60.8133 234.66 60.6564 234.92 60.4145C235.18 60.1725 235.31 59.8006 235.31 59.2987C235.31 58.873 235.166 58.5325 234.875 58.2816C234.584 58.0306 234.203 57.8155 233.728 57.6408C233.253 57.466 232.724 57.3002 232.146 57.1479C231.546 56.9731 230.932 56.7804 230.3 56.5654C229.673 56.3548 229.095 56.0769 228.57 55.7364C228.046 55.4003 227.62 54.9477 227.293 54.3876C226.962 53.8275 226.8 53.1195 226.8 52.2682C226.8 51.3003 227.069 50.4758 227.612 49.7992C228.154 49.1225 228.857 48.5983 229.718 48.2308C230.578 47.8634 231.483 47.6797 232.433 47.6797C233.033 47.6797 233.661 47.7514 234.319 47.8993C234.978 48.0426 235.605 48.2756 236.206 48.5983C236.806 48.9164 237.308 49.3376 237.716 49.8619C237.927 50.1532 238.052 50.5027 238.092 50.906C238.133 51.3137 237.949 51.6812 237.541 52.0083C237.25 52.2413 236.914 52.3443 236.524 52.313C236.139 52.2861 235.816 52.1517 235.565 51.9231C235.234 51.4974 234.794 51.1569 234.243 50.906C233.692 50.655 233.056 50.5296 232.343 50.5296C232.052 50.5296 231.738 50.5654 231.398 50.6326C231.057 50.6998 230.762 50.8477 230.511 51.0673C230.26 51.2913 230.134 51.6453 230.134 52.1292C230.134 52.5729 230.278 52.9268 230.569 53.1912C230.86 53.4511 231.25 53.6662 231.743 53.832C232.236 53.9978 232.765 54.1546 233.325 54.3115C233.907 54.4683 234.494 54.652 235.095 54.8626C235.695 55.0777 236.246 55.3555 236.748 55.705C237.25 56.0545 237.658 56.5026 237.967 57.0538C238.276 57.6049 238.433 58.3084 238.433 59.1598C238.433 60.1456 238.142 60.988 237.564 61.6871C236.981 62.3861 236.255 62.9104 235.386 63.2688C234.517 63.6273 233.625 63.8065 232.715 63.8065C231.573 63.8065 230.43 63.6094 229.287 63.2106C228.163 62.7983 227.217 62.0993 226.46 61.0911Z" fill="white"/>
<path fill-rule="evenodd" clip-rule="evenodd" d="M21.9326 30.4594L4.07615 28.331C3.70872 28.2862 3.43986 27.9501 3.48467 27.5782C3.52948 27.2108 3.86555 26.9419 4.23747 26.9867L21.8027 29.0793C20.2702 26.8612 18.3748 25.0196 15.9192 23.8008C14.4988 23.0973 13.0918 22.7746 11.6892 22.7343C7.62953 22.2369 3.56533 23.6708 0.159828 26.4804C-0.0149283 26.6282 -0.0597375 26.7537 0.0926139 26.9778C1.77744 29.4647 3.87003 31.5035 6.62132 32.7716C10.8961 34.7387 15.0992 34.3802 19.2038 32.2115C19.5174 32.0457 19.8221 31.862 20.1358 31.6693C20.4046 31.5124 20.6735 31.3467 20.9379 31.1719C20.9916 31.1405 21.0409 31.1092 21.0947 31.0778C21.0902 31.0778 21.0857 31.0778 21.0857 31.0778C21.368 30.8851 21.6503 30.67 21.9326 30.4594Z" fill="white"/>
<path fill-rule="evenodd" clip-rule="evenodd" d="M28.8827 24.2982L19.0874 9.21994C18.8857 8.90627 18.9754 8.48506 19.2845 8.28342C19.5982 8.08178 20.0194 8.1714 20.2211 8.48058L29.8595 23.3124C30.581 20.7135 30.7826 18.0787 30.1463 15.4126C29.7789 13.8711 29.1247 12.5851 28.2554 11.4783C26.0373 8.04145 22.3361 5.83684 17.994 5.02131C17.77 4.98098 17.64 5.02579 17.5684 5.28569C16.7349 8.1714 16.5109 11.084 17.2995 14.01C18.5273 18.5537 21.4936 21.5514 25.7819 23.3169C26.109 23.4514 26.4451 23.5679 26.7946 23.6844C27.0903 23.7919 27.3861 23.8905 27.6908 23.9846C27.749 24.0025 27.8073 24.0249 27.8655 24.0428C27.8655 24.0384 27.861 24.0384 27.861 24.0339C28.1971 24.1369 28.5377 24.2176 28.8827 24.2982Z" fill="white"/>
<path fill-rule="evenodd" clip-rule="evenodd" d="M38.5837 20.9465L43.8309 3.74426C43.9384 3.39026 44.3193 3.18414 44.6733 3.29616C45.0273 3.40371 45.2334 3.78458 45.1214 4.13858L39.9639 21.0585C42.4194 19.9428 44.5658 18.4014 46.1968 16.1967C47.1423 14.9242 47.7069 13.5933 47.9937 12.2177C49.1991 8.31032 48.5045 4.05344 46.3402 0.208807C46.2282 0.00716535 46.1072 -0.0555676 45.8652 0.0519746C43.1184 1.27079 40.7435 2.96906 39.0094 5.45597C36.3164 9.31852 35.931 13.5171 37.338 17.9353C37.4456 18.2714 37.5711 18.6075 37.7055 18.948C37.813 19.2438 37.9295 19.535 38.055 19.8263C38.0774 19.8845 38.0998 19.9383 38.1222 19.9966C38.1222 19.9921 38.1267 19.9921 38.1267 19.9876C38.2656 20.3147 38.4269 20.6329 38.5837 20.9465Z" fill="white"/>
</svg>
