<svg width="25" height="25" viewBox="0 0 25 25" fill="none" xmlns="http://www.w3.org/2000/svg">
<circle cx="12.5" cy="12.5" r="12.5" fill="white"/>
<path d="M13.0018 8.89774C10.7316 8.89774 8.9005 10.7293 8.9005 12.9999C8.9005 15.2706 10.7316 17.1021 13.0018 17.1021C15.2719 17.1021 17.1031 15.2706 17.1031 12.9999C17.1031 10.7293 15.2719 8.89774 13.0018 8.89774ZM13.0018 15.6669C11.5347 15.6669 10.3354 14.4709 10.3354 12.9999C10.3354 11.529 11.5312 10.333 13.0018 10.333C14.4724 10.333 15.6682 11.529 15.6682 12.9999C15.6682 14.4709 14.4688 15.6669 13.0018 15.6669ZM18.2274 8.72994C18.2274 9.2619 17.7991 9.68676 17.2708 9.68676C16.739 9.68676 16.3142 9.25833 16.3142 8.72994C16.3142 8.20155 16.7426 7.77312 17.2708 7.77312C17.7991 7.77312 18.2274 8.20155 18.2274 8.72994ZM20.9438 9.70104C20.8831 8.41933 20.5904 7.284 19.6516 6.34859C18.7165 5.41319 17.5814 5.12043 16.2999 5.05617C14.9793 4.9812 11.0207 4.9812 9.70006 5.05617C8.4222 5.11686 7.28712 5.40962 6.34835 6.34502C5.40959 7.28043 5.12047 8.41576 5.05622 9.69747C4.98126 11.0185 4.98126 14.9778 5.05622 16.2988C5.1169 17.5805 5.40959 18.7159 6.34835 19.6513C7.28712 20.5867 8.41863 20.8794 9.70006 20.9437C11.0207 21.0187 14.9793 21.0187 16.2999 20.9437C17.5814 20.883 18.7165 20.5903 19.6516 19.6513C20.5868 18.7159 20.8795 17.5805 20.9438 16.2988C21.0187 14.9778 21.0187 11.022 20.9438 9.70104ZM19.2376 17.7162C18.9592 18.416 18.4202 18.9551 17.717 19.2371C16.664 19.6549 14.1654 19.5585 13.0018 19.5585C11.8381 19.5585 9.33597 19.6513 8.28656 19.2371C7.58695 18.9587 7.04796 18.4196 6.76598 17.7162C6.34835 16.663 6.44473 14.1638 6.44473 12.9999C6.44473 11.836 6.35192 9.33331 6.76598 8.28366C7.04439 7.5839 7.58338 7.04479 8.28656 6.76274C9.33954 6.34502 11.8381 6.44142 13.0018 6.44142C14.1654 6.44142 16.6676 6.34859 17.717 6.76274C18.4166 7.04122 18.9556 7.58032 19.2376 8.28366C19.6552 9.33688 19.5588 11.836 19.5588 12.9999C19.5588 14.1638 19.6552 16.6666 19.2376 17.7162Z" fill="#1D4389"/>
</svg>
