<svg width="16" height="14" viewBox="0 0 16 14" fill="none" xmlns="http://www.w3.org/2000/svg">
<path d="M5.3756 5.87734C6.29661 7.35425 7.59295 8.49477 9.28772 9.29889C9.42638 9.15206 9.56449 9.00585 9.70243 8.85949C9.90173 8.64833 10.0946 8.43215 10.3014 8.22694C10.6048 7.92623 10.9786 7.73635 11.4507 7.76093C11.6405 7.77079 11.838 7.80664 12.0128 7.87097C13.0426 8.24963 14.0674 8.63909 15.0927 9.02714C15.7965 9.29357 16.1283 9.87572 15.9545 10.5283C15.7355 11.3503 15.5136 12.1716 15.3004 12.9948C15.1936 13.4075 14.9277 13.7049 14.4973 13.8896C14.3132 13.9685 14.1137 14.0014 13.9081 14C12.7626 13.9918 11.6314 13.8768 10.519 13.6354C9.47647 13.4092 8.4771 13.0798 7.53016 12.6356C6.44921 12.1284 5.44198 11.5283 4.53296 10.8035C3.38224 9.88605 2.45426 8.81864 1.69784 7.63163C1.04287 6.60382 0.582728 5.51355 0.30614 4.36302C0.165342 3.77554 0.0782146 3.18149 0.0367086 2.58243C0.020786 2.35342 0.0145243 2.12394 0.00164312 1.89461C-0.0310966 1.30776 0.428153 0.754411 1.13501 0.61619C2.10253 0.427096 3.06665 0.224226 4.03345 0.0323136C4.71669 -0.103246 5.38741 0.196832 5.66811 0.761298C6.11967 1.66967 6.57695 2.57586 7.01151 3.49033C7.28685 4.06983 7.13209 4.60048 6.5528 5.02438C6.17549 5.30051 5.79388 5.57194 5.41442 5.84572C5.40297 5.85402 5.39278 5.86341 5.3756 5.87734ZM0.997967 2.15211C1.03428 2.87265 1.12893 3.58566 1.30425 4.29086C1.50463 5.09639 1.80018 5.87343 2.20236 6.61838C2.70437 7.54836 3.35558 8.39302 4.11843 9.17429C4.91599 9.99124 5.83181 10.6917 6.84996 11.2877C8.13092 12.0373 9.52567 12.5645 11.0344 12.8458C11.5604 12.944 12.0951 13.0128 12.6293 13.0692C13.0249 13.1108 13.4262 13.1107 13.8248 13.129C14.1012 13.1417 14.2817 13.0255 14.3439 12.7909C14.5627 11.9663 14.7805 11.1413 14.9982 10.3165C15.0571 10.0933 14.9603 9.91814 14.7193 9.82688C13.6806 9.4332 12.6417 9.04014 11.6003 8.65193C11.5203 8.62219 11.4203 8.62172 11.3308 8.62641C11.1884 8.63377 11.1133 8.73395 11.0319 8.82036C10.6263 9.25099 10.2227 9.68287 9.81514 10.1121C9.61924 10.3186 9.41188 10.3488 9.14048 10.2287C8.10999 9.7735 7.19489 9.18274 6.37515 8.47113C5.53125 7.73854 4.8362 6.91533 4.30217 5.98707C4.1798 5.77418 4.22274 5.57491 4.42776 5.42605C4.59736 5.30286 4.76858 5.18123 4.93925 5.05882C5.2849 4.81087 5.63144 4.56385 5.97565 4.31418C6.16064 4.18003 6.20447 4.02725 6.11269 3.84066C5.66722 2.93589 5.22103 2.03127 4.77323 1.12728C4.66374 0.906094 4.47642 0.827356 4.20914 0.881517C3.26023 1.07327 2.31167 1.26472 1.36311 1.45647C1.13519 1.50249 0.994389 1.65981 0.997609 1.86268C0.999219 1.95911 0.997967 2.05553 0.997967 2.15211Z" fill="white"/>
</svg>
