<svg width="25" height="25" viewBox="0 0 25 25" fill="none" xmlns="http://www.w3.org/2000/svg">
<circle cx="12.5001" cy="12.5" r="12.5" fill="white"/>
<path d="M20.1499 8.73821C20.1613 8.90226 20.1613 9.06635 20.1613 9.23041C20.1613 14.2343 16.4494 19.9999 9.66512 19.9999C7.575 19.9999 5.63338 19.3788 4.00012 18.3007C4.29709 18.3359 4.58259 18.3476 4.89098 18.3476C6.61558 18.3476 8.20317 17.75 9.47095 16.7304C7.84911 16.6953 6.48997 15.6054 6.02168 14.1054C6.25013 14.1405 6.47854 14.164 6.71841 14.164C7.04962 14.164 7.38087 14.1171 7.68922 14.0351C5.99887 13.6835 4.73106 12.1601 4.73106 10.3202V10.2734C5.22216 10.5546 5.79327 10.7304 6.39856 10.7538C5.4049 10.0741 4.75391 8.91398 4.75391 7.60148C4.75391 6.89836 4.93662 6.25383 5.25644 5.69133C7.07244 7.9882 9.80216 9.48818 12.863 9.65227C12.806 9.37101 12.7717 9.07808 12.7717 8.7851C12.7717 6.69914 14.4164 4.99994 16.4608 4.99994C17.523 4.99994 18.4823 5.45697 19.1562 6.19525C19.99 6.0312 20.7894 5.71477 21.4976 5.28119C21.2234 6.16012 20.641 6.8984 19.8758 7.36712C20.6182 7.28513 21.3377 7.07414 22.0001 6.7812C21.4977 7.53117 20.8695 8.19911 20.1499 8.73821Z" fill="#1D4389"/>
</svg>
