<svg width="15" height="20" viewBox="0 0 15 20" fill="none" xmlns="http://www.w3.org/2000/svg">
<mask id="path-1-inside-1_62_172" fill="white">
<path d="M7.3027 0C8.36046 0.0268753 9.38127 0.227503 10.3497 0.661467C11.178 1.03272 11.9006 1.55544 12.5356 2.20169C13.0686 2.7442 13.5021 3.35588 13.838 4.03755C14.1395 4.64923 14.3394 5.29298 14.4561 5.96278C14.5431 6.46237 14.611 6.96571 14.5749 7.47426C14.525 8.1776 14.3527 8.85553 14.1174 9.51887C13.8334 10.3193 13.4614 11.0787 13.0542 11.8231C12.0438 13.6706 10.8579 15.4039 9.60886 17.0956C9.15911 17.7048 8.69433 18.3027 8.22767 18.8992C7.95018 19.2538 7.58791 19.4365 7.1248 19.3717C6.88573 19.3382 6.6738 19.2405 6.51428 19.0619C6.28314 18.8032 6.05806 18.5379 5.84655 18.2631C4.76164 16.8533 3.69051 15.4329 2.74487 13.9246C1.99007 12.7206 1.27953 11.491 0.723717 10.1795C0.396323 9.40679 0.151196 8.60969 0.0346874 7.77614C-0.0289957 7.32155 0.00482942 6.86925 0.0574462 6.41675C0.142427 5.6882 0.330552 4.98756 0.620154 4.31339C0.919151 3.61775 1.33152 2.9942 1.83472 2.43066C2.36402 1.83752 2.97538 1.34231 3.66713 0.948554C4.25385 0.614383 4.88044 0.380005 5.53607 0.221669C6.02737 0.103126 6.52702 0.0408339 7.03126 0.0135418C7.12209 0.00833344 7.2125 0.00437506 7.3027 0ZM7.27931 18.1536C7.32232 18.1031 7.35051 18.0729 7.37557 18.0404C7.69628 17.6254 8.02138 17.2138 8.33624 16.7944C9.14303 15.7192 9.94377 14.6398 10.6706 13.5077C11.6016 12.0577 12.4232 10.5516 13.0302 8.93595C13.2235 8.42115 13.3716 7.89177 13.3737 7.33676C13.3747 7.0603 13.3463 6.78238 13.3129 6.50737C13.2194 5.7382 12.9889 5.01048 12.6078 4.33443C12.0547 3.35358 11.2911 2.57753 10.3127 2.01461C9.5126 1.55419 8.64484 1.31793 7.7301 1.23252C7.30458 1.19272 6.88343 1.22064 6.46208 1.27981C5.92234 1.35564 5.39868 1.49044 4.89757 1.70398C4.18619 2.00711 3.55667 2.43316 3.00816 2.9792C2.52856 3.4565 2.13581 3.99443 1.8366 4.60152C1.53427 5.21486 1.34844 5.86216 1.26638 6.53821C1.2313 6.82675 1.20395 7.11947 1.2123 7.40905C1.22796 7.94448 1.37788 8.45552 1.56329 8.9547C2.07985 10.3464 2.76972 11.6526 3.54435 12.9156C4.20561 13.9939 4.93097 15.0289 5.68891 16.0415C6.21319 16.7421 6.74166 17.4398 7.27931 18.1536Z"/>
</mask>
<path d="M7.3027 0C8.36046 0.0268753 9.38127 0.227503 10.3497 0.661467C11.178 1.03272 11.9006 1.55544 12.5356 2.20169C13.0686 2.7442 13.5021 3.35588 13.838 4.03755C14.1395 4.64923 14.3394 5.29298 14.4561 5.96278C14.5431 6.46237 14.611 6.96571 14.5749 7.47426C14.525 8.1776 14.3527 8.85553 14.1174 9.51887C13.8334 10.3193 13.4614 11.0787 13.0542 11.8231C12.0438 13.6706 10.8579 15.4039 9.60886 17.0956C9.15911 17.7048 8.69433 18.3027 8.22767 18.8992C7.95018 19.2538 7.58791 19.4365 7.1248 19.3717C6.88573 19.3382 6.6738 19.2405 6.51428 19.0619C6.28314 18.8032 6.05806 18.5379 5.84655 18.2631C4.76164 16.8533 3.69051 15.4329 2.74487 13.9246C1.99007 12.7206 1.27953 11.491 0.723717 10.1795C0.396323 9.40679 0.151196 8.60969 0.0346874 7.77614C-0.0289957 7.32155 0.00482942 6.86925 0.0574462 6.41675C0.142427 5.6882 0.330552 4.98756 0.620154 4.31339C0.919151 3.61775 1.33152 2.9942 1.83472 2.43066C2.36402 1.83752 2.97538 1.34231 3.66713 0.948554C4.25385 0.614383 4.88044 0.380005 5.53607 0.221669C6.02737 0.103126 6.52702 0.0408339 7.03126 0.0135418C7.12209 0.00833344 7.2125 0.00437506 7.3027 0ZM7.27931 18.1536C7.32232 18.1031 7.35051 18.0729 7.37557 18.0404C7.69628 17.6254 8.02138 17.2138 8.33624 16.7944C9.14303 15.7192 9.94377 14.6398 10.6706 13.5077C11.6016 12.0577 12.4232 10.5516 13.0302 8.93595C13.2235 8.42115 13.3716 7.89177 13.3737 7.33676C13.3747 7.0603 13.3463 6.78238 13.3129 6.50737C13.2194 5.7382 12.9889 5.01048 12.6078 4.33443C12.0547 3.35358 11.2911 2.57753 10.3127 2.01461C9.5126 1.55419 8.64484 1.31793 7.7301 1.23252C7.30458 1.19272 6.88343 1.22064 6.46208 1.27981C5.92234 1.35564 5.39868 1.49044 4.89757 1.70398C4.18619 2.00711 3.55667 2.43316 3.00816 2.9792C2.52856 3.4565 2.13581 3.99443 1.8366 4.60152C1.53427 5.21486 1.34844 5.86216 1.26638 6.53821C1.2313 6.82675 1.20395 7.11947 1.2123 7.40905C1.22796 7.94448 1.37788 8.45552 1.56329 8.9547C2.07985 10.3464 2.76972 11.6526 3.54435 12.9156C4.20561 13.9939 4.93097 15.0289 5.68891 16.0415C6.21319 16.7421 6.74166 17.4398 7.27931 18.1536Z" fill="white" stroke="#1D428A" stroke-width="0.2" mask="url(#path-1-inside-1_62_172)"/>
<mask id="path-2-inside-2_62_172" fill="white">
<path d="M10.3277 7.283C10.2797 9.06344 9.03673 10.3135 7.28639 10.3039C5.46589 10.2939 4.26113 9.00844 4.2676 7.2805C4.27449 5.47194 5.54565 4.26484 7.29411 4.26526C9.05928 4.26547 10.278 5.51361 10.3277 7.283ZM9.119 7.28175C9.06095 6.22528 8.36148 5.47152 7.29516 5.47361C6.21839 5.4759 5.54043 6.20278 5.46046 7.28592C5.54126 8.35156 6.20524 9.08594 7.28889 9.09428C8.35397 9.10261 9.06722 8.33698 9.119 7.28175Z"/>
</mask>
<path d="M10.3277 7.283C10.2797 9.06344 9.03673 10.3135 7.28639 10.3039C5.46589 10.2939 4.26113 9.00844 4.2676 7.2805C4.27449 5.47194 5.54565 4.26484 7.29411 4.26526C9.05928 4.26547 10.278 5.51361 10.3277 7.283ZM9.119 7.28175C9.06095 6.22528 8.36148 5.47152 7.29516 5.47361C6.21839 5.4759 5.54043 6.20278 5.46046 7.28592C5.54126 8.35156 6.20524 9.08594 7.28889 9.09428C8.35397 9.10261 9.06722 8.33698 9.119 7.28175Z" fill="white" stroke="#1D428A" stroke-width="0.2" mask="url(#path-2-inside-2_62_172)"/>
</svg>
