<svg width="163" height="49" viewBox="0 0 163 49" fill="none" xmlns="http://www.w3.org/2000/svg">
<path d="M40.6953 44.3869L29.0951 25.2246C29.1196 25.1675 29.1359 25.1145 29.14 25.0614C29.1726 24.3068 29.1889 23.5482 29.2052 22.7895L38.7864 16.9894C39.3003 16.6795 39.4676 15.9983 39.1535 15.4844L36.4737 11.0548C36.1596 10.5408 35.4825 10.3736 34.9686 10.6877L7.0287 27.6025C6.51477 27.9125 6.34753 28.5937 6.6616 29.1076L9.34139 33.5372C9.65138 34.0511 10.3325 34.2184 10.8465 33.9043L20.448 28.092C21.2108 28.4468 21.9817 28.8017 22.7566 29.1566C22.7893 29.1729 22.83 29.1729 22.8749 29.1688L34.3976 48.2047C34.7076 48.7186 35.3887 48.8858 35.9027 48.5718L40.3323 45.892C40.8421 45.5779 41.0093 44.9008 40.6953 44.3869Z" fill="#1D428A"/>
<path d="M8.76635 28.3408L35.0911 12.6047C35.2216 12.5272 35.3888 12.568 35.4704 12.6985L35.5887 12.8943C35.6662 13.0248 35.6254 13.1921 35.4949 13.2736L9.16607 29.0097C9.03555 29.0872 8.86832 29.0464 8.78674 28.9159L8.66846 28.7201C8.59504 28.5896 8.63583 28.4183 8.76635 28.3408Z" fill="white"/>
<path d="M12.6003 5.98877L18.2128 14.9214" stroke="white" stroke-width="3" stroke-linecap="round"/>
<path d="M60.7102 8.15857C61.3301 8.15857 61.9134 8.33804 62.4559 8.69697C62.9984 9.05591 63.4348 9.53721 63.7693 10.145C64.1037 10.7527 64.271 11.4339 64.271 12.1844C64.271 12.9226 64.1037 13.5956 63.7693 14.2075C63.4348 14.8152 62.9984 15.3006 62.4559 15.6636C61.9134 16.0266 61.3301 16.2102 60.7102 16.2102H57.4186L57.598 15.8879V19.5915C57.598 19.9015 57.5042 20.1625 57.3125 20.3706C57.1208 20.5786 56.872 20.6846 56.562 20.6846C56.2642 20.6846 56.0195 20.5786 55.8278 20.3706C55.6361 20.1625 55.5423 19.9015 55.5423 19.5915V9.25169C55.5423 8.9417 55.6483 8.68066 55.8564 8.47264C56.0644 8.26462 56.3254 8.15857 56.6354 8.15857H60.7102ZM60.7102 14.1708C60.9345 14.1708 61.1588 14.0769 61.3709 13.8852C61.5871 13.6935 61.7625 13.4488 61.9093 13.1429C62.0521 12.837 62.1255 12.5188 62.1255 12.1844C62.1255 11.8377 62.0521 11.5154 61.9093 11.2177C61.7666 10.9199 61.5871 10.6793 61.3709 10.4917C61.1548 10.3081 60.9345 10.2143 60.7102 10.2143H57.3818L57.598 9.89207V14.4522L57.4022 14.1667H60.7102V14.1708Z" fill="#1D428A"/>
<path d="M67.224 20.6805C66.914 20.6805 66.657 20.5745 66.4531 20.3664C66.2491 20.1584 66.1472 19.8974 66.1472 19.5874V12.2006C66.1472 11.8907 66.2491 11.6296 66.4531 11.4216C66.657 11.2136 66.914 11.1075 67.224 11.1075C67.534 11.1075 67.7909 11.2136 67.9949 11.4216C68.1988 11.6296 68.3008 11.8907 68.3008 12.2006V13.8811L68.1743 12.6819C68.3049 12.3964 68.4762 12.1435 68.6842 11.9233C68.8922 11.703 69.1288 11.5195 69.3898 11.3686C69.6509 11.2176 69.9323 11.1075 70.2301 11.0382C70.5278 10.9648 70.8256 10.9321 71.1233 10.9321C71.4823 10.9321 71.7841 11.0341 72.0247 11.238C72.2695 11.442 72.3918 11.6786 72.3918 11.9518C72.3918 12.3434 72.2899 12.6289 72.0859 12.8002C71.882 12.9715 71.6617 13.0613 71.4252 13.0613C71.1967 13.0613 70.9928 13.0205 70.8093 12.9348C70.6257 12.8533 70.4136 12.8084 70.1729 12.8084C69.9568 12.8084 69.7406 12.8573 69.5203 12.9593C69.3001 13.0613 69.0961 13.2203 68.9126 13.4324C68.729 13.6486 68.5781 13.9137 68.4639 14.2278C68.3497 14.546 68.2926 14.9171 68.2926 15.3454V19.5833C68.2926 19.8933 68.1906 20.1543 67.9867 20.3624C67.7909 20.5745 67.534 20.6805 67.224 20.6805Z" fill="#1D428A"/>
<path d="M82.805 15.9044C82.805 16.8833 82.5888 17.7439 82.1524 18.4904C81.716 19.2368 81.1327 19.816 80.3985 20.2361C79.6643 20.6521 78.8445 20.8601 77.939 20.8601C77.0335 20.8601 76.2136 20.6521 75.4794 20.2361C74.7453 19.8201 74.162 19.2368 73.7256 18.4904C73.2891 17.7439 73.0729 16.8833 73.0729 15.9044C73.0729 14.9255 73.2891 14.0648 73.7256 13.3184C74.162 12.572 74.7453 11.9887 75.4794 11.5645C76.2136 11.1403 77.0335 10.9282 77.939 10.9282C78.8445 10.9282 79.6643 11.1403 80.3985 11.5645C81.1327 11.9887 81.716 12.572 82.1524 13.3184C82.5847 14.0648 82.805 14.9255 82.805 15.9044ZM80.6555 15.9044C80.6555 15.2966 80.5331 14.7705 80.2884 14.3218C80.0436 13.8731 79.7173 13.5264 79.3054 13.2735C78.8934 13.0247 78.4366 12.8983 77.939 12.8983C77.4373 12.8983 76.9804 13.0247 76.5726 13.2735C76.1606 13.5224 75.8343 13.8731 75.5896 14.3218C75.3448 14.7705 75.2225 15.2966 75.2225 15.9044C75.2225 16.4999 75.3448 17.022 75.5896 17.4707C75.8343 17.9193 76.1606 18.266 76.5726 18.5189C76.9845 18.7677 77.4414 18.8942 77.939 18.8942C78.4407 18.8942 78.8975 18.7677 79.3054 18.5189C79.7173 18.2701 80.0436 17.9193 80.2884 17.4707C80.5331 17.022 80.6555 16.4999 80.6555 15.9044Z" fill="#1D428A"/>
<path d="M98.6351 8.76617C98.9451 8.92117 99.1286 9.1659 99.1817 9.50036C99.2347 9.83483 99.149 10.1367 98.9206 10.414C98.7656 10.6302 98.5658 10.7485 98.321 10.773C98.0763 10.7974 97.8275 10.7485 97.5787 10.6302C97.2932 10.4997 96.9913 10.3977 96.6773 10.3243C96.3632 10.2509 96.0287 10.2182 95.6861 10.2182C95.0417 10.2182 94.4666 10.3202 93.9608 10.5241C93.455 10.7281 93.0227 11.0177 92.6637 11.3929C92.3048 11.7682 92.0356 12.2128 91.8479 12.7267C91.6644 13.2406 91.5706 13.8076 91.5706 14.4276C91.5706 15.1536 91.6766 15.7858 91.8847 16.3242C92.0927 16.8626 92.3823 17.3072 92.7534 17.6662C93.1246 18.0251 93.557 18.2902 94.0587 18.4615C94.5604 18.6328 95.1029 18.7226 95.6861 18.7226C96.0083 18.7226 96.3306 18.694 96.6528 18.6328C96.975 18.5717 97.285 18.4656 97.5828 18.3106C97.8316 18.1923 98.0804 18.1515 98.3251 18.1842C98.5698 18.2209 98.7738 18.3432 98.941 18.5594C99.1776 18.8572 99.2673 19.1631 99.2021 19.4812C99.1368 19.7994 98.9533 20.0278 98.6555 20.1706C98.3455 20.3256 98.0274 20.452 97.697 20.554C97.3707 20.6559 97.0362 20.7334 96.7058 20.7865C96.3714 20.8395 96.0328 20.868 95.6861 20.868C94.8255 20.868 94.0138 20.7294 93.2429 20.4561C92.472 20.1828 91.7868 19.7749 91.1872 19.2406C90.5835 18.7022 90.1104 18.0333 89.7637 17.2297C89.417 16.4262 89.2457 15.4922 89.2457 14.4317C89.2457 13.5139 89.4047 12.6655 89.7188 11.8906C90.0329 11.1156 90.4815 10.4466 91.0607 9.87969C91.6399 9.31274 92.3211 8.87222 93.1083 8.55408C93.8955 8.24001 94.7521 8.08093 95.682 8.08093C96.2082 8.08093 96.7181 8.14212 97.2198 8.2604C97.7215 8.36645 98.1905 8.54184 98.6351 8.76617Z" fill="#1D428A"/>
<path d="M103.232 19.5875C103.232 19.8975 103.126 20.1586 102.918 20.3666C102.71 20.5746 102.449 20.6806 102.139 20.6806C101.841 20.6806 101.588 20.5746 101.388 20.3666C101.184 20.1586 101.082 19.8975 101.082 19.5875V8.53392C101.082 8.22393 101.188 7.96289 101.396 7.75487C101.604 7.54685 101.865 7.4408 102.175 7.4408C102.485 7.4408 102.738 7.54685 102.934 7.75487C103.13 7.96289 103.228 8.22393 103.228 8.53392V19.5875H103.232Z" fill="#1D428A"/>
<path d="M110.064 20.86C109.048 20.86 108.171 20.6479 107.425 20.2237C106.678 19.7995 106.107 19.2244 105.708 18.4983C105.308 17.7723 105.108 16.9484 105.108 16.0307C105.108 14.9579 105.324 14.0443 105.761 13.2856C106.197 12.5269 106.764 11.9478 107.47 11.5399C108.171 11.1361 108.918 10.9321 109.705 10.9321C110.313 10.9321 110.888 11.0586 111.43 11.3074C111.973 11.5562 112.454 11.8988 112.87 12.3352C113.286 12.7717 113.617 13.2734 113.861 13.8485C114.106 14.4195 114.228 15.0273 114.228 15.6717C114.216 15.9572 114.102 16.1897 113.89 16.3692C113.674 16.5487 113.425 16.6384 113.139 16.6384H106.307L105.769 14.8478H112.332L111.94 15.2067V14.7254C111.916 14.3787 111.793 14.0687 111.573 13.7955C111.353 13.5222 111.08 13.3019 110.749 13.1429C110.423 12.9838 110.072 12.9022 109.701 12.9022C109.342 12.9022 109.008 12.9511 108.698 13.045C108.388 13.1388 108.118 13.3019 107.894 13.5263C107.666 13.7547 107.49 14.0565 107.356 14.4399C107.225 14.8233 107.16 15.3046 107.16 15.8879C107.16 16.5324 107.294 17.0789 107.564 17.5235C107.833 17.9722 108.18 18.3107 108.6 18.5432C109.024 18.7757 109.472 18.894 109.95 18.894C110.39 18.894 110.741 18.8573 111.006 18.7879C111.267 18.7145 111.479 18.6289 111.642 18.5269C111.801 18.4249 111.948 18.3393 112.079 18.2658C112.295 18.1598 112.495 18.1068 112.687 18.1068C112.948 18.1068 113.168 18.1965 113.339 18.376C113.511 18.5554 113.6 18.7635 113.6 19C113.6 19.3223 113.433 19.6159 113.099 19.877C112.789 20.138 112.352 20.3705 111.793 20.5663C111.239 20.7621 110.659 20.86 110.064 20.86Z" fill="#1D428A"/>
<path d="M124.018 10.9323C124.328 10.9323 124.584 11.0343 124.788 11.2382C124.992 11.4422 125.094 11.7032 125.094 12.0254V19.5916C125.094 19.9016 124.992 20.1627 124.788 20.3707C124.584 20.5787 124.328 20.6848 124.018 20.6848C123.708 20.6848 123.451 20.5787 123.247 20.3707C123.043 20.1627 122.941 19.9016 122.941 19.5916V18.7147L123.332 18.8738C123.332 19.0288 123.251 19.2164 123.083 19.4366C122.916 19.6569 122.692 19.8731 122.402 20.0893C122.117 20.3054 121.778 20.4849 121.391 20.6358C121.003 20.7867 120.583 20.8601 120.13 20.8601C119.306 20.8601 118.564 20.6481 117.895 20.2239C117.226 19.7997 116.7 19.2164 116.313 18.47C115.925 17.7235 115.729 16.867 115.729 15.9044C115.729 14.9255 115.921 14.0648 116.313 13.3184C116.7 12.572 117.222 11.9887 117.879 11.5645C118.536 11.1403 119.262 10.9282 120.061 10.9282C120.575 10.9282 121.044 11.0057 121.472 11.1607C121.901 11.3157 122.276 11.5115 122.59 11.7521C122.904 11.9928 123.149 12.2334 123.324 12.4782C123.495 12.7229 123.585 12.9268 123.585 13.0941L122.941 13.3266V12.0213C122.941 11.7114 123.043 11.4503 123.247 11.2423C123.451 11.0343 123.708 10.9323 124.018 10.9323ZM120.404 18.8901C120.93 18.8901 121.387 18.7596 121.782 18.4985C122.174 18.2375 122.484 17.8785 122.704 17.4258C122.924 16.973 123.035 16.4673 123.035 15.9044C123.035 15.3333 122.924 14.8194 122.704 14.3667C122.484 13.9139 122.178 13.555 121.782 13.2939C121.391 13.0329 120.93 12.9024 120.404 12.9024C119.89 12.9024 119.437 13.0329 119.045 13.2939C118.654 13.555 118.344 13.9139 118.124 14.3667C117.903 14.8194 117.793 15.3333 117.793 15.9044C117.793 16.4632 117.903 16.973 118.124 17.4258C118.344 17.8785 118.65 18.2375 119.045 18.4985C119.437 18.7596 119.89 18.8901 120.404 18.8901Z" fill="#1D428A"/>
<path d="M132.53 10.9321C133.411 10.9321 134.084 11.1157 134.541 11.4868C135.002 11.858 135.316 12.3475 135.487 12.9634C135.658 13.5793 135.748 14.2604 135.748 15.0109V19.5915C135.748 19.9015 135.646 20.1625 135.442 20.3705C135.238 20.5785 134.981 20.6846 134.671 20.6846C134.361 20.6846 134.104 20.5785 133.9 20.3705C133.697 20.1625 133.595 19.9015 133.595 19.5915V15.0109C133.595 14.6194 133.546 14.2645 133.444 13.9464C133.342 13.6323 133.162 13.3753 132.897 13.1877C132.636 12.996 132.261 12.9022 131.771 12.9022C131.294 12.9022 130.89 12.996 130.564 13.1877C130.238 13.3794 129.985 13.6323 129.813 13.9464C129.642 14.2645 129.552 14.6153 129.552 15.0109V19.5915C129.552 19.9015 129.45 20.1625 129.247 20.3705C129.043 20.5785 128.786 20.6846 128.476 20.6846C128.166 20.6846 127.909 20.5785 127.705 20.3705C127.501 20.1625 127.399 19.9015 127.399 19.5915V12.2006C127.399 11.8907 127.501 11.6296 127.705 11.4216C127.909 11.2136 128.166 11.1075 128.476 11.1075C128.786 11.1075 129.043 11.2136 129.247 11.4216C129.45 11.6296 129.552 11.8907 129.552 12.2006V12.9715L129.283 12.9185C129.389 12.7146 129.544 12.4984 129.748 12.2659C129.952 12.0334 130.189 11.8172 130.462 11.6133C130.735 11.4094 131.045 11.2462 131.392 11.1198C131.747 10.9933 132.126 10.9321 132.53 10.9321Z" fill="#1D428A"/>
<path d="M139.007 9.94904C138.603 9.94904 138.314 9.88378 138.146 9.75326C137.979 9.62273 137.898 9.39024 137.898 9.05578V8.71724C137.898 8.37054 137.991 8.13396 138.175 8.0116C138.358 7.88516 138.644 7.82397 139.023 7.82397C139.439 7.82397 139.733 7.88924 139.9 8.01976C140.068 8.15028 140.149 8.38277 140.149 8.71724V9.05578C140.149 9.40248 140.059 9.63905 139.88 9.76141C139.705 9.88378 139.411 9.94904 139.007 9.94904ZM140.096 19.5873C140.096 19.8973 139.994 20.1583 139.79 20.3663C139.586 20.5744 139.329 20.6804 139.019 20.6804C138.709 20.6804 138.452 20.5744 138.248 20.3663C138.044 20.1583 137.942 19.8973 137.942 19.5873V12.2005C137.942 11.8906 138.044 11.6295 138.248 11.4215C138.452 11.2135 138.709 11.1074 139.019 11.1074C139.329 11.1074 139.586 11.2135 139.79 11.4215C139.994 11.6295 140.096 11.8906 140.096 12.2005V19.5873Z" fill="#1D428A"/>
<path d="M147.414 10.9321C148.295 10.9321 148.968 11.1157 149.424 11.4868C149.885 11.858 150.199 12.3475 150.371 12.9634C150.542 13.5793 150.632 14.2604 150.632 15.0109V19.5915C150.632 19.9015 150.53 20.1625 150.326 20.3705C150.122 20.5785 149.865 20.6846 149.555 20.6846C149.245 20.6846 148.988 20.5785 148.784 20.3705C148.58 20.1625 148.478 19.9015 148.478 19.5915V15.0109C148.478 14.6194 148.429 14.2645 148.327 13.9464C148.225 13.6323 148.046 13.3753 147.781 13.1877C147.52 12.996 147.144 12.9022 146.655 12.9022C146.178 12.9022 145.774 12.996 145.448 13.1877C145.121 13.3794 144.868 13.6323 144.697 13.9464C144.526 14.2645 144.436 14.6153 144.436 15.0109V19.5915C144.436 19.9015 144.334 20.1625 144.13 20.3705C143.926 20.5785 143.669 20.6846 143.359 20.6846C143.049 20.6846 142.792 20.5785 142.588 20.3705C142.384 20.1625 142.282 19.9015 142.282 19.5915V12.2006C142.282 11.8907 142.384 11.6296 142.588 11.4216C142.792 11.2136 143.049 11.1075 143.359 11.1075C143.669 11.1075 143.926 11.2136 144.13 11.4216C144.334 11.6296 144.436 11.8907 144.436 12.2006V12.9715L144.167 12.9185C144.273 12.7146 144.428 12.4984 144.632 12.2659C144.836 12.0334 145.072 11.8172 145.346 11.6133C145.619 11.4094 145.929 11.2462 146.276 11.1198C146.63 10.9933 147.006 10.9321 147.414 10.9321Z" fill="#1D428A"/>
<path d="M156.929 10.9321C157.431 10.9321 157.888 11.0096 158.308 11.1646C158.724 11.3196 159.087 11.5154 159.389 11.7561C159.695 11.9967 159.931 12.2374 160.103 12.4821C160.274 12.7268 160.364 12.9308 160.364 13.098L159.899 13.3305V12.0253C159.899 11.7153 160.001 11.4542 160.205 11.2462C160.409 11.0382 160.666 10.9321 160.976 10.9321C161.286 10.9321 161.543 11.0341 161.746 11.238C161.95 11.442 162.052 11.703 162.052 12.0253V19.9871C162.052 21.0231 161.828 21.8552 161.383 22.4833C160.935 23.1074 160.347 23.5642 159.621 23.8416C158.895 24.123 158.112 24.2617 157.28 24.2617C157.04 24.2617 156.73 24.2332 156.35 24.172C155.967 24.1108 155.604 24.0415 155.257 23.9558C154.91 23.8742 154.649 23.7967 154.47 23.7233C154.111 23.5683 153.866 23.3766 153.728 23.14C153.589 22.9075 153.564 22.6587 153.646 22.3977C153.752 22.051 153.927 21.8144 154.164 21.6921C154.401 21.5656 154.653 21.5534 154.914 21.6472C155.033 21.6839 155.229 21.7532 155.506 21.8634C155.779 21.9694 156.081 22.0673 156.407 22.157C156.734 22.2468 157.023 22.2916 157.276 22.2916C158.169 22.2916 158.834 22.1122 159.262 21.7532C159.691 21.3943 159.907 20.9008 159.907 20.2685V18.7104L160.123 18.8695C160.123 19.0245 160.042 19.2121 159.882 19.4324C159.723 19.6526 159.499 19.8688 159.222 20.085C158.94 20.3012 158.61 20.4806 158.231 20.6316C157.847 20.7825 157.443 20.8559 157.015 20.8559C156.167 20.8559 155.404 20.6438 154.727 20.2196C154.046 19.7954 153.511 19.2121 153.116 18.4657C152.724 17.7193 152.524 16.8627 152.524 15.9001C152.524 14.9212 152.72 14.0606 153.116 13.3142C153.507 12.5677 154.042 11.9845 154.706 11.5603C155.359 11.1442 156.105 10.9321 156.929 10.9321ZM157.268 12.8981C156.73 12.8981 156.26 13.0286 155.857 13.2897C155.453 13.5507 155.135 13.9097 154.91 14.3624C154.682 14.8152 154.572 15.3291 154.572 15.9001C154.572 16.4589 154.686 16.9688 154.91 17.4215C155.139 17.8743 155.453 18.2332 155.857 18.4943C156.26 18.7553 156.734 18.8858 157.268 18.8858C157.815 18.8858 158.292 18.7553 158.7 18.4943C159.103 18.2332 159.422 17.8743 159.646 17.4215C159.87 16.9688 159.984 16.463 159.984 15.9001C159.984 15.3291 159.87 14.8152 159.646 14.3624C159.417 13.9097 159.103 13.5507 158.7 13.2897C158.292 13.0286 157.815 12.8981 157.268 12.8981Z" fill="#1D428A"/>
<path d="M80.2558 39.2962C79.4196 39.2962 78.6691 39.1902 78.0002 38.9822C77.3313 38.7742 76.695 38.4071 76.0872 37.8809C75.9322 37.7504 75.814 37.5995 75.7283 37.4322C75.6467 37.265 75.6019 37.0978 75.6019 36.9305C75.6019 36.6573 75.6998 36.4166 75.8955 36.2045C76.0913 35.9965 76.3401 35.8904 76.6379 35.8904C76.8663 35.8904 77.0662 35.9639 77.2456 36.1066C77.6984 36.4778 78.1471 36.7551 78.5957 36.9468C79.0444 37.1386 79.595 37.2324 80.2517 37.2324C80.6922 37.2324 81.1001 37.163 81.4672 37.0284C81.8384 36.8897 82.1361 36.7062 82.3605 36.4737C82.5889 36.2412 82.699 35.9761 82.699 35.6783C82.699 35.3194 82.593 35.0176 82.3768 34.7647C82.1606 34.5159 81.8343 34.3038 81.3938 34.1284C80.9533 33.9571 80.3904 33.8225 79.7133 33.7246C79.0689 33.6308 78.5019 33.4839 78.0124 33.2881C77.523 33.0924 77.1151 32.8395 76.7888 32.5376C76.4625 32.2317 76.2137 31.8769 76.0465 31.4649C75.8792 31.053 75.7976 30.592 75.7976 30.0781C75.7976 29.3031 75.9975 28.6424 76.3972 28.0917C76.797 27.5452 77.3354 27.125 78.0165 26.8395C78.6977 26.554 79.4482 26.4113 80.2721 26.4113C81.0471 26.4113 81.765 26.5255 82.4257 26.762C83.0865 26.9945 83.629 27.2882 84.045 27.6471C84.3917 27.9204 84.563 28.2386 84.563 28.5934C84.563 28.8545 84.4611 29.0951 84.2571 29.3072C84.0532 29.5234 83.8166 29.6294 83.5433 29.6294C83.3639 29.6294 83.2048 29.5764 83.062 29.4704C82.8703 29.3031 82.6134 29.1441 82.2911 28.9972C81.9689 28.8463 81.6304 28.7239 81.2714 28.622C80.9125 28.52 80.578 28.4711 80.268 28.4711C79.7541 28.4711 79.3217 28.5363 78.971 28.6668C78.6202 28.7974 78.3551 28.9768 78.1756 29.2052C77.9961 29.4337 77.9064 29.6947 77.9064 29.9925C77.9064 30.3514 78.0124 30.6451 78.2205 30.8776C78.4285 31.1101 78.7303 31.2936 79.1219 31.4323C79.5135 31.571 79.9866 31.6933 80.5332 31.7994C81.247 31.9299 81.8792 32.0849 82.4217 32.2644C82.9641 32.4438 83.4128 32.6722 83.7717 32.9537C84.1307 33.2351 84.3958 33.5859 84.5753 34.0101C84.7547 34.4343 84.8445 34.9482 84.8445 35.556C84.8445 36.3309 84.6283 36.9999 84.2 37.5587C83.7717 38.1175 83.2089 38.5498 82.5114 38.8476C81.818 39.1494 81.0634 39.2962 80.2558 39.2962Z" fill="#1D428A"/>
<path d="M91.2362 39.2961C90.2205 39.2961 89.3436 39.084 88.5972 38.6598C87.8507 38.2356 87.2797 37.6605 86.88 36.9345C86.4803 36.2085 86.2804 35.3845 86.2804 34.4668C86.2804 33.3941 86.4966 32.4804 86.933 31.7218C87.3694 30.9631 87.9364 30.3839 88.642 29.976C89.3436 29.5722 90.09 29.3683 90.8772 29.3683C91.485 29.3683 92.0601 29.4947 92.6026 29.7435C93.1451 29.9923 93.6264 30.335 94.0424 30.7714C94.4584 31.2078 94.7888 31.7095 95.0335 32.2846C95.2783 32.8557 95.4006 33.4634 95.4006 34.1079C95.3884 34.3934 95.2742 34.6259 95.0621 34.8054C94.8459 34.9848 94.5971 35.0746 94.3116 35.0746H87.4796L86.9412 33.284H93.504L93.1124 33.6429V33.1616C93.0879 32.8149 92.9656 32.5049 92.7453 32.2316C92.5251 31.9583 92.2518 31.7381 91.9214 31.579C91.5951 31.4199 91.2443 31.3384 90.8731 31.3384C90.5142 31.3384 90.1797 31.3873 89.8698 31.4811C89.5598 31.5749 89.2906 31.7381 89.0662 31.9624C88.8378 32.1908 88.6624 32.4927 88.5278 32.8761C88.3973 33.2595 88.332 33.7408 88.332 34.3241C88.332 34.9685 88.4666 35.5151 88.7358 35.9597C89.005 36.4083 89.3517 36.7469 89.7719 36.9794C90.1961 37.2119 90.6447 37.3301 91.122 37.3301C91.5625 37.3301 91.9132 37.2934 92.1784 37.2241C92.4394 37.1507 92.6515 37.065 92.8147 36.9631C92.9737 36.8611 93.1206 36.7754 93.2511 36.702C93.4673 36.596 93.6671 36.5429 93.8588 36.5429C94.1199 36.5429 94.3401 36.6327 94.5115 36.8121C94.6828 36.9916 94.7725 37.1996 94.7725 37.4362C94.7725 37.7584 94.6053 38.0521 94.2708 38.3131C93.9608 38.5742 93.5244 38.8067 92.9656 39.0025C92.4109 39.1982 91.8317 39.2961 91.2362 39.2961Z" fill="#1D428A"/>
<path d="M98.3577 39.117C98.0477 39.117 97.7907 39.0109 97.5868 38.8029C97.3829 38.5949 97.2809 38.3338 97.2809 38.0239V30.6412C97.2809 30.3312 97.3829 30.0702 97.5868 29.8621C97.7907 29.6541 98.0477 29.5481 98.3577 29.5481C98.6677 29.5481 98.9246 29.6541 99.1286 29.8621C99.3325 30.0702 99.4345 30.3312 99.4345 30.6412V32.3217L99.3081 31.1225C99.4386 30.837 99.6099 30.5841 99.8179 30.3638C100.026 30.1436 100.263 29.96 100.524 29.8091C100.785 29.6582 101.066 29.5481 101.364 29.4787C101.662 29.4053 101.959 29.3727 102.257 29.3727C102.616 29.3727 102.918 29.4747 103.158 29.6786C103.403 29.8825 103.526 30.1191 103.526 30.3924C103.526 30.784 103.424 31.0695 103.22 31.2408C103.016 31.4121 102.795 31.5018 102.559 31.5018C102.33 31.5018 102.127 31.461 101.943 31.3754C101.759 31.2938 101.547 31.2489 101.307 31.2489C101.091 31.2489 100.874 31.2979 100.654 31.3999C100.434 31.5018 100.23 31.6609 100.046 31.873C99.8628 32.0892 99.7119 32.3543 99.5977 32.6684C99.4834 32.9865 99.4263 33.3577 99.4263 33.786V38.0239C99.4263 38.3338 99.3244 38.5949 99.1204 38.8029C98.9206 39.015 98.6677 39.117 98.3577 39.117Z" fill="#1D428A"/>
<path d="M106.369 29.5479C106.593 29.5479 106.805 29.605 106.993 29.7192C107.184 29.8334 107.327 30.0047 107.421 30.229L110.052 36.2412L109.66 36.4207L112.344 30.2494C112.548 29.7722 112.862 29.5478 113.29 29.5682C113.588 29.5682 113.829 29.6621 114.016 29.8456C114.2 30.0292 114.294 30.2616 114.294 30.5349C114.294 30.6165 114.277 30.7062 114.249 30.8041C114.22 30.8979 114.188 30.9877 114.151 31.0733L110.806 38.4438C110.615 38.872 110.313 39.1004 109.893 39.1249C109.664 39.1616 109.448 39.1208 109.24 38.9985C109.032 38.8802 108.873 38.6926 108.767 38.4438L105.439 31.0733C105.414 31.0121 105.39 30.9346 105.357 30.8408C105.328 30.747 105.312 30.6328 105.312 30.5023C105.312 30.2861 105.406 30.0781 105.598 29.866C105.789 29.6539 106.046 29.5479 106.369 29.5479Z" fill="#1D428A"/>
<path d="M116.924 28.3854C116.521 28.3854 116.231 28.3202 116.064 28.1897C115.897 28.0591 115.815 27.8266 115.815 27.4922V27.1536C115.815 26.8069 115.909 26.5704 116.092 26.448C116.276 26.3216 116.561 26.2604 116.941 26.2604C117.357 26.2604 117.65 26.3256 117.818 26.4562C117.985 26.5867 118.066 26.8192 118.066 27.1536V27.4922C118.066 27.8389 117.977 28.0755 117.797 28.1978C117.618 28.3202 117.328 28.3854 116.924 28.3854ZM118.013 38.0278C118.013 38.3378 117.911 38.5988 117.708 38.8068C117.504 39.0148 117.247 39.1209 116.937 39.1209C116.627 39.1209 116.37 39.0148 116.166 38.8068C115.962 38.5988 115.86 38.3378 115.86 38.0278V30.641C115.86 30.331 115.962 30.07 116.166 29.862C116.37 29.654 116.627 29.5479 116.937 29.5479C117.247 29.5479 117.504 29.654 117.708 29.862C117.911 30.07 118.013 30.331 118.013 30.641V38.0278Z" fill="#1D428A"/>
<path d="M124.47 29.3683C125.151 29.3683 125.743 29.4417 126.249 29.5845C126.754 29.7272 127.15 29.9271 127.427 30.1841C127.709 30.441 127.848 30.7469 127.848 31.1059C127.848 31.3465 127.774 31.5668 127.631 31.7748C127.489 31.9828 127.281 32.0889 127.003 32.0889C126.812 32.0889 126.657 32.0603 126.53 32.0073C126.404 31.9543 126.294 31.8849 126.2 31.8033C126.106 31.7218 125.992 31.6443 125.861 31.5708C125.743 31.4974 125.559 31.4444 125.315 31.3995C125.07 31.3588 124.886 31.3384 124.768 31.3384C124.16 31.3384 123.642 31.4689 123.222 31.7299C122.798 31.991 122.472 32.3458 122.247 32.7945C122.019 33.2432 121.909 33.7571 121.909 34.3404C121.909 34.9114 122.023 35.4213 122.26 35.8699C122.492 36.3186 122.814 36.6735 123.226 36.9345C123.638 37.1955 124.111 37.3261 124.65 37.3261C124.948 37.3261 125.204 37.3097 125.421 37.273C125.637 37.2363 125.812 37.1833 125.959 37.114C126.126 37.0202 126.273 36.9182 126.408 36.8081C126.538 36.702 126.734 36.649 126.999 36.649C127.309 36.649 127.546 36.7469 127.713 36.9427C127.88 37.1384 127.962 37.3791 127.962 37.6687C127.962 37.9664 127.795 38.2397 127.46 38.4844C127.126 38.7292 126.689 38.925 126.147 39.0759C125.604 39.2268 125.017 39.3002 124.385 39.3002C123.442 39.3002 122.627 39.084 121.933 38.6476C121.24 38.2112 120.71 37.6197 120.334 36.8692C119.959 36.1187 119.771 35.2785 119.771 34.3485C119.771 33.3696 119.971 32.509 120.371 31.7626C120.771 31.0161 121.326 30.4329 122.035 30.0087C122.741 29.5804 123.553 29.3683 124.47 29.3683Z" fill="#1D428A"/>
<path d="M134.023 39.2961C133.007 39.2961 132.13 39.084 131.384 38.6598C130.637 38.2356 130.066 37.6605 129.667 36.9345C129.267 36.2085 129.067 35.3845 129.067 34.4668C129.067 33.3941 129.283 32.4804 129.72 31.7218C130.156 30.9631 130.723 30.3839 131.429 29.976C132.13 29.5722 132.877 29.3683 133.664 29.3683C134.272 29.3683 134.847 29.4947 135.389 29.7435C135.932 29.9923 136.413 30.335 136.829 30.7714C137.245 31.2078 137.576 31.7095 137.82 32.2846C138.065 32.8557 138.187 33.4634 138.187 34.1079C138.175 34.3934 138.061 34.6259 137.849 34.8054C137.633 34.9848 137.384 35.0746 137.098 35.0746H130.266L129.728 33.284H136.291L135.899 33.6429V33.1616C135.875 32.8149 135.752 32.5049 135.532 32.2316C135.312 31.9583 135.038 31.7381 134.708 31.579C134.382 31.4199 134.031 31.3384 133.66 31.3384C133.301 31.3384 132.966 31.3873 132.656 31.4811C132.346 31.5749 132.077 31.7381 131.853 31.9624C131.625 32.1908 131.449 32.4927 131.315 32.8761C131.184 33.2595 131.119 33.7408 131.119 34.3241C131.119 34.9685 131.253 35.5151 131.523 35.9597C131.792 36.4083 132.138 36.7469 132.559 36.9794C132.983 37.2119 133.431 37.3301 133.909 37.3301C134.349 37.3301 134.7 37.2934 134.965 37.2241C135.226 37.1507 135.438 37.065 135.601 36.9631C135.76 36.8611 135.907 36.7754 136.038 36.702C136.254 36.596 136.454 36.5429 136.646 36.5429C136.907 36.5429 137.127 36.6327 137.298 36.8121C137.469 36.9916 137.559 37.1996 137.559 37.4362C137.559 37.7584 137.392 38.0521 137.057 38.3131C136.747 38.5742 136.311 38.8067 135.752 39.0025C135.198 39.1982 134.618 39.2961 134.023 39.2961Z" fill="#1D428A"/>
<path d="M139.513 37.6321C139.395 37.4648 139.342 37.2487 139.354 36.9876C139.366 36.7266 139.521 36.4982 139.819 36.3065C140.011 36.1882 140.211 36.1351 140.427 36.1555C140.643 36.1719 140.851 36.282 141.051 36.4859C141.398 36.8326 141.761 37.1018 142.144 37.2895C142.527 37.4812 143 37.575 143.576 37.575C143.755 37.5627 143.951 37.5383 144.167 37.4934C144.383 37.4526 144.571 37.3547 144.73 37.2079C144.889 37.057 144.971 36.8285 144.971 36.5186C144.971 36.2575 144.881 36.0495 144.701 35.8904C144.522 35.7354 144.285 35.6049 143.996 35.4989C143.702 35.3928 143.38 35.2908 143.021 35.1929C142.65 35.0869 142.27 34.9645 141.883 34.834C141.495 34.7035 141.141 34.5322 140.818 34.3242C140.496 34.1161 140.235 33.8388 140.031 33.4921C139.827 33.1454 139.725 32.713 139.725 32.1869C139.725 31.5913 139.892 31.0856 140.227 30.6655C140.561 30.2494 140.994 29.9272 141.524 29.6988C142.054 29.4704 142.613 29.3602 143.196 29.3602C143.567 29.3602 143.955 29.4051 144.359 29.4948C144.763 29.5846 145.15 29.7273 145.521 29.9231C145.892 30.1189 146.202 30.3799 146.451 30.7022C146.582 30.8816 146.659 31.0937 146.684 31.3466C146.708 31.5954 146.594 31.8238 146.345 32.0278C146.166 32.1705 145.958 32.2317 145.721 32.2154C145.48 32.1991 145.285 32.1175 145.13 31.9748C144.926 31.7137 144.656 31.5057 144.314 31.3507C143.975 31.1957 143.584 31.1182 143.143 31.1182C142.964 31.1182 142.772 31.1386 142.56 31.1794C142.352 31.2202 142.168 31.3099 142.013 31.4486C141.858 31.5873 141.781 31.8034 141.781 32.1012C141.781 32.3745 141.871 32.5947 142.05 32.7538C142.23 32.9129 142.47 33.0475 142.776 33.1454C143.082 33.2473 143.404 33.3452 143.751 33.439C144.11 33.5329 144.473 33.6471 144.844 33.7776C145.215 33.9081 145.554 34.0835 145.864 34.2956C146.174 34.5118 146.423 34.7891 146.614 35.1277C146.806 35.4662 146.9 35.8986 146.9 36.4247C146.9 37.0325 146.72 37.5505 146.361 37.9829C146.002 38.4111 145.558 38.7374 145.02 38.9577C144.481 39.1779 143.935 39.2881 143.376 39.2881C142.67 39.2881 141.969 39.1657 141.267 38.921C140.565 38.6844 139.978 38.2521 139.513 37.6321Z" fill="#1D428A"/>
<path fill-rule="evenodd" clip-rule="evenodd" d="M13.5181 18.7636L2.51755 17.4502C2.28914 17.4217 2.12599 17.2137 2.15454 16.9853C2.18309 16.7568 2.39111 16.5937 2.61952 16.6222L13.4406 17.9112C12.4943 16.5448 11.3278 15.4108 9.81456 14.6603C8.9417 14.2239 8.07291 14.0281 7.2082 14.0036C4.7038 13.6977 2.19941 14.5828 0.0988134 16.3163C-0.0113147 16.4061 -0.0357876 16.4836 0.0580252 16.6222C1.09405 18.1559 2.38703 19.4122 4.07974 20.1912C6.71466 21.4026 9.30471 21.1824 11.8295 19.8486C12.0212 19.7466 12.2088 19.6324 12.4046 19.5141C12.5718 19.4162 12.735 19.3143 12.8982 19.2082C12.9308 19.1878 12.9634 19.1674 12.996 19.1511C12.992 19.1511 12.992 19.1511 12.9879 19.1511C13.1674 19.0247 13.3427 18.8942 13.5181 18.7636Z" fill="#37AD68"/>
<path fill-rule="evenodd" clip-rule="evenodd" d="M17.7967 14.9704L11.7601 5.67883C11.6336 5.48712 11.6907 5.22608 11.8824 5.10371C12.0741 4.97727 12.3352 5.03437 12.4576 5.22608L18.3963 14.3626C18.8409 12.7637 18.9674 11.1404 18.5717 9.4966C18.3474 8.54624 17.9436 7.75495 17.4052 7.07378C16.0388 4.95688 13.7587 3.59863 11.083 3.09693C10.9443 3.07246 10.8668 3.10101 10.8219 3.26009C10.308 5.03845 10.1693 6.83313 10.6547 8.63597C11.4093 11.434 13.2366 13.2817 15.8797 14.3667C16.0836 14.4483 16.2876 14.5217 16.5037 14.5951C16.6832 14.6604 16.8708 14.7216 17.0544 14.7787C17.0911 14.7909 17.1237 14.8031 17.1604 14.8154L17.1564 14.8113C17.3725 14.8684 17.5846 14.9214 17.7967 14.9704Z" fill="#37AD68"/>
<path fill-rule="evenodd" clip-rule="evenodd" d="M23.7764 12.9024L27.0068 2.3056C27.0721 2.08534 27.3086 1.96298 27.5289 2.02824C27.7491 2.0935 27.8715 2.33007 27.8063 2.55033L24.6248 12.9717C26.138 12.2824 27.4596 11.3361 28.467 9.97786C29.0503 9.19472 29.397 8.37488 29.5724 7.52649C30.3147 5.11998 29.8865 2.4973 28.5527 0.127507C28.4833 0.00514242 28.4099 -0.0356458 28.259 0.0336942C26.5663 0.784197 25.102 1.83245 24.0374 3.36201C22.3773 5.73996 22.1408 8.33001 23.0096 11.0506C23.0748 11.2586 23.1523 11.4625 23.238 11.6746C23.3032 11.8541 23.3767 12.0377 23.4542 12.2171C23.4664 12.2538 23.4827 12.2865 23.4949 12.3232C23.4949 12.3191 23.4949 12.3191 23.499 12.3191C23.5806 12.5149 23.6744 12.7107 23.7764 12.9024Z" fill="#37AD68"/>
</svg>
